solid CATIA STL
  facet normal  3.577621e-016 -1.000000e+000  2.759004e-019
    outer loop
      vertex -1.000000e+001  0.000000e+000  2.130000e+001
      vertex -9.900000e+001 -3.184083e-014  2.130000e+001
      vertex -1.000000e+001 -1.387779e-017 -2.900000e+001
    endloop
  endfacet
  facet normal  1.387779e-018 -9.999999e-001  0.000000e+000
    outer loop
      vertex  0.000000e+000  0.000000e+000 -2.900000e+001
      vertex -1.000000e+001 -1.387779e-017 -2.900000e+001
      vertex  0.000000e+000  0.000000e+000 -4.000000e+001
    endloop
  endfacet
  facet normal  7.340303e-016 -1.000000e+000  6.660386e-016
    outer loop
      vertex  0.000000e+000  0.000000e+000 -4.000000e+001
      vertex -1.000000e+001 -1.387779e-017 -2.900000e+001
      vertex -9.900000e+001 -3.184083e-014  2.130000e+001
    endloop
  endfacet
  facet normal -1.224647e-016 -1.000000e+000 -7.172078e-016
    outer loop
      vertex  0.000000e+000  0.000000e+000 -4.000000e+001
      vertex -9.900000e+001 -3.184083e-014  2.130000e+001
      vertex -1.025000e+002  1.255263e-014 -4.000000e+001
    endloop
  endfacet
  facet normal -1.268385e-014 -1.000000e+000  0.000000e+000
    outer loop
      vertex -1.025000e+002  1.255263e-014 -4.000000e+001
      vertex -9.900000e+001 -3.184083e-014  2.130000e+001
      vertex -9.900000e+001 -3.184083e-014  4.000000e+001
    endloop
  endfacet
  facet normal -1.268384e-014 -1.000000e+000  0.000000e+000
    outer loop
      vertex -1.025000e+002  1.255263e-014 -4.000000e+001
      vertex -9.900000e+001 -3.184083e-014  4.000000e+001
      vertex -1.025000e+002  1.255263e-014  4.000000e+001
    endloop
  endfacet
  facet normal  1.000000e+000  0.000000e+000  -0.000000e+000
    outer loop
      vertex -1.000000e+001 -1.387779e-017 -2.900000e+001
      vertex -1.000000e+001  3.000000e+001 -2.900000e+001
      vertex -1.000000e+001  3.000000e+001  1.900000e+001
    endloop
  endfacet
  facet normal  1.000000e+000  0.000000e+000  0.000000e+000
    outer loop
      vertex -1.000000e+001 -1.387779e-017 -2.900000e+001
      vertex -1.000000e+001  3.000000e+001  1.900000e+001
      vertex -1.000000e+001  2.022500e+001  1.900000e+001
    endloop
  endfacet
  facet normal  1.000000e+000  0.000000e+000  -0.000000e+000
    outer loop
      vertex -1.000000e+001 -1.387779e-017 -2.900000e+001
      vertex -1.000000e+001  2.022500e+001  1.900000e+001
      vertex -1.000000e+001  2.022500e+001  2.130000e+001
    endloop
  endfacet
  facet normal  1.000000e+000  0.000000e+000  0.000000e+000
    outer loop
      vertex -1.000000e+001 -1.387779e-017 -2.900000e+001
      vertex -1.000000e+001  2.022500e+001  2.130000e+001
      vertex -1.000000e+001  0.000000e+000  2.130000e+001
    endloop
  endfacet
  facet normal  0.000000e+000  0.000000e+000  1.000000e+000
    outer loop
      vertex -1.000000e+001 -1.387779e-017 -2.900000e+001
      vertex  0.000000e+000  0.000000e+000 -2.900000e+001
      vertex -1.000000e+001  3.000000e+001 -2.900000e+001
    endloop
  endfacet
  facet normal  -0.000000e+000  0.000000e+000  1.000000e+000
    outer loop
      vertex -1.000000e+001  3.000000e+001 -2.900000e+001
      vertex  0.000000e+000  0.000000e+000 -2.900000e+001
      vertex  0.000000e+000  3.000000e+001 -2.900000e+001
    endloop
  endfacet
  facet normal  0.000000e+000  0.000000e+000  1.000000e+000
    outer loop
      vertex -4.440892e-015  2.022500e+001  2.130000e+001
      vertex  4.452086e-014  9.900000e+001  2.130000e+001
      vertex -1.193313e+001  9.827818e+001  2.130000e+001
    endloop
  endfacet
  facet normal  0.000000e+000  0.000000e+000  1.000000e+000
    outer loop
      vertex -4.440892e-015  2.022500e+001  2.130000e+001
      vertex -1.193313e+001  9.827818e+001  2.130000e+001
      vertex -2.369225e+001  9.612324e+001  2.130000e+001
    endloop
  endfacet
  facet normal  0.000000e+000  0.000000e+000  1.000000e+000
    outer loop
      vertex -4.440892e-015  2.022500e+001  2.130000e+001
      vertex -2.369225e+001  9.612324e+001  2.130000e+001
      vertex -3.510588e+001  9.256660e+001  2.130000e+001
    endloop
  endfacet
  facet normal  0.000000e+000  0.000000e+000  1.000000e+000
    outer loop
      vertex -4.440892e-015  2.022500e+001  2.130000e+001
      vertex -3.510588e+001  9.256660e+001  2.130000e+001
      vertex -4.600760e+001  8.766015e+001  2.130000e+001
    endloop
  endfacet
  facet normal  0.000000e+000  0.000000e+000  1.000000e+000
    outer loop
      vertex -4.440892e-015  2.022500e+001  2.130000e+001
      vertex -4.600760e+001  8.766015e+001  2.130000e+001
      vertex -5.623841e+001  8.147540e+001  2.130000e+001
    endloop
  endfacet
  facet normal  0.000000e+000  0.000000e+000  1.000000e+000
    outer loop
      vertex -4.440892e-015  2.022500e+001  2.130000e+001
      vertex -5.623841e+001  8.147540e+001  2.130000e+001
      vertex -6.564914e+001  7.410256e+001  2.130000e+001
    endloop
  endfacet
  facet normal  0.000000e+000  0.000000e+000  9.999999e-001
    outer loop
      vertex -4.440892e-015  2.022500e+001  2.130000e+001
      vertex -6.564914e+001  7.410256e+001  2.130000e+001
      vertex -7.410256e+001  6.564914e+001  2.130000e+001
    endloop
  endfacet
  facet normal  0.000000e+000  0.000000e+000  1.000000e+000
    outer loop
      vertex -4.440892e-015  2.022500e+001  2.130000e+001
      vertex -7.410256e+001  6.564914e+001  2.130000e+001
      vertex -8.147540e+001  5.623841e+001  2.130000e+001
    endloop
  endfacet
  facet normal  0.000000e+000  0.000000e+000  1.000000e+000
    outer loop
      vertex -4.440892e-015  2.022500e+001  2.130000e+001
      vertex -8.147540e+001  5.623841e+001  2.130000e+001
      vertex -8.766015e+001  4.600760e+001  2.130000e+001
    endloop
  endfacet
  facet normal  0.000000e+000  0.000000e+000  1.000000e+000
    outer loop
      vertex -4.440892e-015  2.022500e+001  2.130000e+001
      vertex -8.766015e+001  4.600760e+001  2.130000e+001
      vertex -9.256660e+001  3.510588e+001  2.130000e+001
    endloop
  endfacet
  facet normal  0.000000e+000  0.000000e+000  1.000000e+000
    outer loop
      vertex -4.440892e-015  2.022500e+001  2.130000e+001
      vertex -9.256660e+001  3.510588e+001  2.130000e+001
      vertex -9.612324e+001  2.369225e+001  2.130000e+001
    endloop
  endfacet
  facet normal  0.000000e+000  0.000000e+000  1.000000e+000
    outer loop
      vertex -4.440892e-015  2.022500e+001  2.130000e+001
      vertex -9.612324e+001  2.369225e+001  2.130000e+001
      vertex -1.000000e+001  2.022500e+001  2.130000e+001
    endloop
  endfacet
  facet normal  0.000000e+000  0.000000e+000  1.000000e+000
    outer loop
      vertex -1.000000e+001  2.022500e+001  2.130000e+001
      vertex -9.612324e+001  2.369225e+001  2.130000e+001
      vertex -1.000000e+001  0.000000e+000  2.130000e+001
    endloop
  endfacet
  facet normal  0.000000e+000  0.000000e+000  1.000000e+000
    outer loop
      vertex -1.000000e+001  0.000000e+000  2.130000e+001
      vertex -9.612324e+001  2.369225e+001  2.130000e+001
      vertex -9.827818e+001  1.193313e+001  2.130000e+001
    endloop
  endfacet
  facet normal  0.000000e+000  0.000000e+000  1.000000e+000
    outer loop
      vertex -1.000000e+001  0.000000e+000  2.130000e+001
      vertex -9.827818e+001  1.193313e+001  2.130000e+001
      vertex -9.900000e+001 -3.184083e-014  2.130000e+001
    endloop
  endfacet
  facet normal  -0.000000e+000  0.000000e+000  1.000000e+000
    outer loop
      vertex  6.276315e-015  1.025000e+002  4.000000e+001
      vertex -1.235501e+001  1.017527e+002  4.000000e+001
      vertex  5.002683e-014  9.900000e+001  4.000000e+001
    endloop
  endfacet
  facet normal  0.000000e+000  0.000000e+000  1.000000e+000
    outer loop
      vertex  5.002683e-014  9.900000e+001  4.000000e+001
      vertex -1.235501e+001  1.017527e+002  4.000000e+001
      vertex -2.452986e+001  9.952154e+001  4.000000e+001
    endloop
  endfacet
  facet normal  0.000000e+000  0.000000e+000  1.000000e+000
    outer loop
      vertex  5.002683e-014  9.900000e+001  4.000000e+001
      vertex -2.452986e+001  9.952154e+001  4.000000e+001
      vertex -1.193313e+001  9.827818e+001  4.000000e+001
    endloop
  endfacet
  facet normal  0.000000e+000  0.000000e+000  1.000000e+000
    outer loop
      vertex -1.193313e+001  9.827818e+001  4.000000e+001
      vertex -2.452986e+001  9.952154e+001  4.000000e+001
      vertex -2.369225e+001  9.612324e+001  4.000000e+001
    endloop
  endfacet
  facet normal  0.000000e+000  0.000000e+000  1.000000e+000
    outer loop
      vertex -2.369225e+001  9.612324e+001  4.000000e+001
      vertex -2.452986e+001  9.952154e+001  4.000000e+001
      vertex -3.634700e+001  9.583916e+001  4.000000e+001
    endloop
  endfacet
  facet normal  -0.000000e+000  0.000000e+000  1.000000e+000
    outer loop
      vertex -2.369225e+001  9.612324e+001  4.000000e+001
      vertex -3.634700e+001  9.583916e+001  4.000000e+001
      vertex -3.510588e+001  9.256660e+001  4.000000e+001
    endloop
  endfacet
  facet normal  0.000000e+000  0.000000e+000  9.999999e-001
    outer loop
      vertex -3.510588e+001  9.256660e+001  4.000000e+001
      vertex -3.634700e+001  9.583916e+001  4.000000e+001
      vertex -4.763412e+001  9.075924e+001  4.000000e+001
    endloop
  endfacet
  facet normal  -0.000000e+000  0.000000e+000  1.000000e+000
    outer loop
      vertex -3.510588e+001  9.256660e+001  4.000000e+001
      vertex -4.763412e+001  9.075924e+001  4.000000e+001
      vertex -4.600760e+001  8.766015e+001  4.000000e+001
    endloop
  endfacet
  facet normal  0.000000e+000  0.000000e+000  1.000000e+000
    outer loop
      vertex -4.600760e+001  8.766015e+001  4.000000e+001
      vertex -4.763412e+001  9.075924e+001  4.000000e+001
      vertex -5.822663e+001  8.435584e+001  4.000000e+001
    endloop
  endfacet
  facet normal  -0.000000e+000  0.000000e+000  1.000000e+000
    outer loop
      vertex -4.600760e+001  8.766015e+001  4.000000e+001
      vertex -5.822663e+001  8.435584e+001  4.000000e+001
      vertex -5.623841e+001  8.147540e+001  4.000000e+001
    endloop
  endfacet
  facet normal  0.000000e+000  0.000000e+000  9.999999e-001
    outer loop
      vertex -5.623841e+001  8.147540e+001  4.000000e+001
      vertex -5.822663e+001  8.435584e+001  4.000000e+001
      vertex -6.564914e+001  7.410256e+001  4.000000e+001
    endloop
  endfacet
  facet normal  0.000000e+000  -0.000000e+000  1.000000e+000
    outer loop
      vertex -6.564914e+001  7.410256e+001  4.000000e+001
      vertex -5.822663e+001  8.435584e+001  4.000000e+001
      vertex -6.797007e+001  7.672235e+001  4.000000e+001
    endloop
  endfacet
  facet normal  0.000000e+000  0.000000e+000  1.000000e+000
    outer loop
      vertex -6.564914e+001  7.410256e+001  4.000000e+001
      vertex -6.797007e+001  7.672235e+001  4.000000e+001
      vertex -7.410256e+001  6.564914e+001  4.000000e+001
    endloop
  endfacet
  facet normal  0.000000e+000  -0.000000e+000  9.999999e-001
    outer loop
      vertex -7.410256e+001  6.564914e+001  4.000000e+001
      vertex -6.797007e+001  7.672235e+001  4.000000e+001
      vertex -7.672235e+001  6.797007e+001  4.000000e+001
    endloop
  endfacet
  facet normal  0.000000e+000  0.000000e+000  1.000000e+000
    outer loop
      vertex -7.410256e+001  6.564914e+001  4.000000e+001
      vertex -7.672235e+001  6.797007e+001  4.000000e+001
      vertex -8.147540e+001  5.623841e+001  4.000000e+001
    endloop
  endfacet
  facet normal  0.000000e+000  -0.000000e+000  1.000000e+000
    outer loop
      vertex -8.147540e+001  5.623841e+001  4.000000e+001
      vertex -7.672235e+001  6.797007e+001  4.000000e+001
      vertex -8.435584e+001  5.822663e+001  4.000000e+001
    endloop
  endfacet
  facet normal  0.000000e+000  0.000000e+000  1.000000e+000
    outer loop
      vertex -8.147540e+001  5.623841e+001  4.000000e+001
      vertex -8.435584e+001  5.822663e+001  4.000000e+001
      vertex -8.766015e+001  4.600760e+001  4.000000e+001
    endloop
  endfacet
  facet normal  0.000000e+000  -0.000000e+000  1.000000e+000
    outer loop
      vertex -8.766015e+001  4.600760e+001  4.000000e+001
      vertex -8.435584e+001  5.822663e+001  4.000000e+001
      vertex -9.075924e+001  4.763412e+001  4.000000e+001
    endloop
  endfacet
  facet normal  0.000000e+000  0.000000e+000  1.000000e+000
    outer loop
      vertex -8.766015e+001  4.600760e+001  4.000000e+001
      vertex -9.075924e+001  4.763412e+001  4.000000e+001
      vertex -9.256660e+001  3.510588e+001  4.000000e+001
    endloop
  endfacet
  facet normal  0.000000e+000  -0.000000e+000  9.999999e-001
    outer loop
      vertex -9.256660e+001  3.510588e+001  4.000000e+001
      vertex -9.075924e+001  4.763412e+001  4.000000e+001
      vertex -9.583916e+001  3.634700e+001  4.000000e+001
    endloop
  endfacet
  facet normal  0.000000e+000  0.000000e+000  1.000000e+000
    outer loop
      vertex -9.256660e+001  3.510588e+001  4.000000e+001
      vertex -9.583916e+001  3.634700e+001  4.000000e+001
      vertex -9.612324e+001  2.369225e+001  4.000000e+001
    endloop
  endfacet
  facet normal  0.000000e+000  -0.000000e+000  1.000000e+000
    outer loop
      vertex -9.612324e+001  2.369225e+001  4.000000e+001
      vertex -9.583916e+001  3.634700e+001  4.000000e+001
      vertex -9.952154e+001  2.452986e+001  4.000000e+001
    endloop
  endfacet
  facet normal  0.000000e+000  0.000000e+000  1.000000e+000
    outer loop
      vertex -9.612324e+001  2.369225e+001  4.000000e+001
      vertex -9.952154e+001  2.452986e+001  4.000000e+001
      vertex -9.827818e+001  1.193313e+001  4.000000e+001
    endloop
  endfacet
  facet normal  0.000000e+000  0.000000e+000  9.999999e-001
    outer loop
      vertex -9.827818e+001  1.193313e+001  4.000000e+001
      vertex -9.952154e+001  2.452986e+001  4.000000e+001
      vertex -1.017527e+002  1.235501e+001  4.000000e+001
    endloop
  endfacet
  facet normal  0.000000e+000  0.000000e+000  1.000000e+000
    outer loop
      vertex -9.827818e+001  1.193313e+001  4.000000e+001
      vertex -1.017527e+002  1.235501e+001  4.000000e+001
      vertex -9.900000e+001 -3.184083e-014  4.000000e+001
    endloop
  endfacet
  facet normal  0.000000e+000  0.000000e+000  1.000000e+000
    outer loop
      vertex -9.900000e+001 -3.184083e-014  4.000000e+001
      vertex -1.017527e+002  1.235501e+001  4.000000e+001
      vertex -1.025000e+002  1.255263e-014  4.000000e+001
    endloop
  endfacet
  facet normal  0.000000e+000  0.000000e+000 -1.000000e+000
    outer loop
      vertex  0.000000e+000  0.000000e+000 -4.000000e+001
      vertex -1.025000e+002  1.255263e-014 -4.000000e+001
      vertex -1.017527e+002  1.235501e+001 -4.000000e+001
    endloop
  endfacet
  facet normal  0.000000e+000  0.000000e+000 -1.000000e+000
    outer loop
      vertex  0.000000e+000  0.000000e+000 -4.000000e+001
      vertex -1.017527e+002  1.235501e+001 -4.000000e+001
      vertex -9.952154e+001  2.452986e+001 -4.000000e+001
    endloop
  endfacet
  facet normal  0.000000e+000  0.000000e+000 -1.000000e+000
    outer loop
      vertex  0.000000e+000  0.000000e+000 -4.000000e+001
      vertex -9.952154e+001  2.452986e+001 -4.000000e+001
      vertex -9.583916e+001  3.634700e+001 -4.000000e+001
    endloop
  endfacet
  facet normal  0.000000e+000  0.000000e+000 -1.000000e+000
    outer loop
      vertex  0.000000e+000  0.000000e+000 -4.000000e+001
      vertex -9.583916e+001  3.634700e+001 -4.000000e+001
      vertex -9.075924e+001  4.763412e+001 -4.000000e+001
    endloop
  endfacet
  facet normal  0.000000e+000  0.000000e+000 -1.000000e+000
    outer loop
      vertex  0.000000e+000  0.000000e+000 -4.000000e+001
      vertex -9.075924e+001  4.763412e+001 -4.000000e+001
      vertex -8.435584e+001  5.822663e+001 -4.000000e+001
    endloop
  endfacet
  facet normal  0.000000e+000  0.000000e+000 -1.000000e+000
    outer loop
      vertex  0.000000e+000  0.000000e+000 -4.000000e+001
      vertex -8.435584e+001  5.822663e+001 -4.000000e+001
      vertex -7.672235e+001  6.797007e+001 -4.000000e+001
    endloop
  endfacet
  facet normal  0.000000e+000  0.000000e+000 -1.000000e+000
    outer loop
      vertex  0.000000e+000  0.000000e+000 -4.000000e+001
      vertex -7.672235e+001  6.797007e+001 -4.000000e+001
      vertex -6.797007e+001  7.672235e+001 -4.000000e+001
    endloop
  endfacet
  facet normal  0.000000e+000  0.000000e+000 -1.000000e+000
    outer loop
      vertex  0.000000e+000  0.000000e+000 -4.000000e+001
      vertex -6.797007e+001  7.672235e+001 -4.000000e+001
      vertex -5.822663e+001  8.435584e+001 -4.000000e+001
    endloop
  endfacet
  facet normal  0.000000e+000  0.000000e+000 -1.000000e+000
    outer loop
      vertex  0.000000e+000  0.000000e+000 -4.000000e+001
      vertex -5.822663e+001  8.435584e+001 -4.000000e+001
      vertex -4.763412e+001  9.075924e+001 -4.000000e+001
    endloop
  endfacet
  facet normal  0.000000e+000  0.000000e+000 -1.000000e+000
    outer loop
      vertex  0.000000e+000  0.000000e+000 -4.000000e+001
      vertex -4.763412e+001  9.075924e+001 -4.000000e+001
      vertex -3.634700e+001  9.583916e+001 -4.000000e+001
    endloop
  endfacet
  facet normal  0.000000e+000  0.000000e+000 -1.000000e+000
    outer loop
      vertex  0.000000e+000  0.000000e+000 -4.000000e+001
      vertex -3.634700e+001  9.583916e+001 -4.000000e+001
      vertex -2.452986e+001  9.952154e+001 -4.000000e+001
    endloop
  endfacet
  facet normal  0.000000e+000  0.000000e+000 -1.000000e+000
    outer loop
      vertex  0.000000e+000  0.000000e+000 -4.000000e+001
      vertex -2.452986e+001  9.952154e+001 -4.000000e+001
      vertex -1.235501e+001  1.017527e+002 -4.000000e+001
    endloop
  endfacet
  facet normal  0.000000e+000  0.000000e+000 -1.000000e+000
    outer loop
      vertex  0.000000e+000  0.000000e+000 -4.000000e+001
      vertex -1.235501e+001  1.017527e+002 -4.000000e+001
      vertex  6.276315e-015  1.025000e+002 -4.000000e+001
    endloop
  endfacet
  facet normal  1.000000e+000  1.250015e-014  0.000000e+000
    outer loop
      vertex  6.276315e-015  1.025000e+002 -4.000000e+001
      vertex  6.276315e-015  1.025000e+002  4.000000e+001
      vertex  5.002683e-014  9.900000e+001  4.000000e+001
    endloop
  endfacet
  facet normal  1.000000e+000  5.770160e-015 -2.944370e-016
    outer loop
      vertex  6.276315e-015  1.025000e+002 -4.000000e+001
      vertex  5.002683e-014  9.900000e+001  4.000000e+001
      vertex  4.452086e-014  9.900000e+001  2.130000e+001
    endloop
  endfacet
  facet normal  1.000000e+000 -6.232474e-016 -6.594766e-016
    outer loop
      vertex  6.276315e-015  1.025000e+002 -4.000000e+001
      vertex  4.452086e-014  9.900000e+001  2.130000e+001
      vertex  0.000000e+000  3.000000e+001  1.900000e+001
    endloop
  endfacet
  facet normal  1.000000e+000 -8.656986e-017  0.000000e+000
    outer loop
      vertex  6.276315e-015  1.025000e+002 -4.000000e+001
      vertex  0.000000e+000  3.000000e+001  1.900000e+001
      vertex  0.000000e+000  3.000000e+001 -2.900000e+001
    endloop
  endfacet
  facet normal  9.999999e-001  0.000000e+000  5.705740e-016
    outer loop
      vertex  6.276315e-015  1.025000e+002 -4.000000e+001
      vertex  0.000000e+000  3.000000e+001 -2.900000e+001
      vertex  0.000000e+000  0.000000e+000 -2.900000e+001
    endloop
  endfacet
  facet normal  1.000000e+000 -6.123234e-017  0.000000e+000
    outer loop
      vertex  6.276315e-015  1.025000e+002 -4.000000e+001
      vertex  0.000000e+000  0.000000e+000 -2.900000e+001
      vertex  0.000000e+000  0.000000e+000 -4.000000e+001
    endloop
  endfacet
  facet normal  1.000000e+000 -6.215392e-016  1.930823e-015
    outer loop
      vertex -4.440892e-015  2.022500e+001  2.130000e+001
      vertex  0.000000e+000  2.022500e+001  1.900000e+001
      vertex  4.452086e-014  9.900000e+001  2.130000e+001
    endloop
  endfacet
  facet normal  1.000000e+000  0.000000e+000 -1.935691e-014
    outer loop
      vertex  4.452086e-014  9.900000e+001  2.130000e+001
      vertex  0.000000e+000  2.022500e+001  1.900000e+001
      vertex  0.000000e+000  3.000000e+001  1.900000e+001
    endloop
  endfacet
  facet normal -9.981755e-001  6.037825e-002  0.000000e+000
    outer loop
      vertex -1.025000e+002  1.255263e-014 -4.000000e+001
      vertex -1.025000e+002  1.255263e-014  4.000000e+001
      vertex -1.017527e+002  1.235501e+001 -4.000000e+001
    endloop
  endfacet
  facet normal -9.981755e-001  6.037825e-002  0.000000e+000
    outer loop
      vertex -1.017527e+002  1.235501e+001 -4.000000e+001
      vertex -1.025000e+002  1.255263e-014  4.000000e+001
      vertex -1.017527e+002  1.235501e+001  4.000000e+001
    endloop
  endfacet
  facet normal -9.836198e-001  1.802551e-001  0.000000e+000
    outer loop
      vertex -1.017527e+002  1.235501e+001 -4.000000e+001
      vertex -1.017527e+002  1.235501e+001  4.000000e+001
      vertex -9.952154e+001  2.452986e+001 -4.000000e+001
    endloop
  endfacet
  facet normal -9.836198e-001  1.802551e-001  0.000000e+000
    outer loop
      vertex -9.952154e+001  2.452986e+001 -4.000000e+001
      vertex -1.017527e+002  1.235501e+001  4.000000e+001
      vertex -9.952154e+001  2.452986e+001  4.000000e+001
    endloop
  endfacet
  facet normal -9.547209e-001  2.975032e-001  0.000000e+000
    outer loop
      vertex -9.952154e+001  2.452986e+001 -4.000000e+001
      vertex -9.952154e+001  2.452986e+001  4.000000e+001
      vertex -9.583916e+001  3.634700e+001 -4.000000e+001
    endloop
  endfacet
  facet normal -9.547209e-001  2.975032e-001  0.000000e+000
    outer loop
      vertex -9.583916e+001  3.634700e+001 -4.000000e+001
      vertex -9.952154e+001  2.452986e+001  4.000000e+001
      vertex -9.583916e+001  3.634700e+001  4.000000e+001
    endloop
  endfacet
  facet normal -9.118997e-001  4.104130e-001  0.000000e+000
    outer loop
      vertex -9.583916e+001  3.634700e+001 -4.000000e+001
      vertex -9.583916e+001  3.634700e+001  4.000000e+001
      vertex -9.075924e+001  4.763412e+001 -4.000000e+001
    endloop
  endfacet
  facet normal -9.118997e-001  4.104130e-001  0.000000e+000
    outer loop
      vertex -9.075924e+001  4.763412e+001 -4.000000e+001
      vertex -9.583916e+001  3.634700e+001  4.000000e+001
      vertex -9.075924e+001  4.763412e+001  4.000000e+001
    endloop
  endfacet
  facet normal -8.557812e-001  5.173379e-001  0.000000e+000
    outer loop
      vertex -9.075924e+001  4.763412e+001 -4.000000e+001
      vertex -9.075924e+001  4.763412e+001  4.000000e+001
      vertex -8.435584e+001  5.822663e+001 -4.000000e+001
    endloop
  endfacet
  facet normal -8.557812e-001  5.173379e-001  0.000000e+000
    outer loop
      vertex -8.435584e+001  5.822663e+001 -4.000000e+001
      vertex -9.075924e+001  4.763412e+001  4.000000e+001
      vertex -8.435584e+001  5.822663e+001  4.000000e+001
    endloop
  endfacet
  facet normal -7.871836e-001  6.167188e-001  0.000000e+000
    outer loop
      vertex -8.435584e+001  5.822663e+001 -4.000000e+001
      vertex -8.435584e+001  5.822663e+001  4.000000e+001
      vertex -7.672235e+001  6.797007e+001 -4.000000e+001
    endloop
  endfacet
  facet normal -7.871836e-001  6.167188e-001  0.000000e+000
    outer loop
      vertex -7.672235e+001  6.797007e+001 -4.000000e+001
      vertex -8.435584e+001  5.822663e+001  4.000000e+001
      vertex -7.672235e+001  6.797007e+001  4.000000e+001
    endloop
  endfacet
  facet normal -7.071068e-001  7.071068e-001  0.000000e+000
    outer loop
      vertex -7.672235e+001  6.797007e+001 -4.000000e+001
      vertex -7.672235e+001  6.797007e+001  4.000000e+001
      vertex -6.797007e+001  7.672235e+001 -4.000000e+001
    endloop
  endfacet
  facet normal -7.071068e-001  7.071068e-001  0.000000e+000
    outer loop
      vertex -6.797007e+001  7.672235e+001 -4.000000e+001
      vertex -7.672235e+001  6.797007e+001  4.000000e+001
      vertex -6.797007e+001  7.672235e+001  4.000000e+001
    endloop
  endfacet
  facet normal -6.167188e-001  7.871836e-001  0.000000e+000
    outer loop
      vertex -6.797007e+001  7.672235e+001 -4.000000e+001
      vertex -6.797007e+001  7.672235e+001  4.000000e+001
      vertex -5.822663e+001  8.435584e+001 -4.000000e+001
    endloop
  endfacet
  facet normal -6.167188e-001  7.871836e-001  0.000000e+000
    outer loop
      vertex -5.822663e+001  8.435584e+001 -4.000000e+001
      vertex -6.797007e+001  7.672235e+001  4.000000e+001
      vertex -5.822663e+001  8.435584e+001  4.000000e+001
    endloop
  endfacet
  facet normal -5.173379e-001  8.557812e-001  0.000000e+000
    outer loop
      vertex -5.822663e+001  8.435584e+001 -4.000000e+001
      vertex -5.822663e+001  8.435584e+001  4.000000e+001
      vertex -4.763412e+001  9.075924e+001 -4.000000e+001
    endloop
  endfacet
  facet normal -5.173379e-001  8.557812e-001  0.000000e+000
    outer loop
      vertex -4.763412e+001  9.075924e+001 -4.000000e+001
      vertex -5.822663e+001  8.435584e+001  4.000000e+001
      vertex -4.763412e+001  9.075924e+001  4.000000e+001
    endloop
  endfacet
  facet normal -4.104130e-001  9.118997e-001  0.000000e+000
    outer loop
      vertex -4.763412e+001  9.075924e+001 -4.000000e+001
      vertex -4.763412e+001  9.075924e+001  4.000000e+001
      vertex -3.634700e+001  9.583916e+001 -4.000000e+001
    endloop
  endfacet
  facet normal -4.104130e-001  9.118997e-001  0.000000e+000
    outer loop
      vertex -3.634700e+001  9.583916e+001 -4.000000e+001
      vertex -4.763412e+001  9.075924e+001  4.000000e+001
      vertex -3.634700e+001  9.583916e+001  4.000000e+001
    endloop
  endfacet
  facet normal -2.975032e-001  9.547209e-001  0.000000e+000
    outer loop
      vertex -3.634700e+001  9.583916e+001 -4.000000e+001
      vertex -3.634700e+001  9.583916e+001  4.000000e+001
      vertex -2.452986e+001  9.952154e+001 -4.000000e+001
    endloop
  endfacet
  facet normal -2.975032e-001  9.547209e-001  0.000000e+000
    outer loop
      vertex -2.452986e+001  9.952154e+001 -4.000000e+001
      vertex -3.634700e+001  9.583916e+001  4.000000e+001
      vertex -2.452986e+001  9.952154e+001  4.000000e+001
    endloop
  endfacet
  facet normal -1.802551e-001  9.836198e-001  0.000000e+000
    outer loop
      vertex -2.452986e+001  9.952154e+001 -4.000000e+001
      vertex -2.452986e+001  9.952154e+001  4.000000e+001
      vertex -1.235501e+001  1.017527e+002 -4.000000e+001
    endloop
  endfacet
  facet normal -1.802551e-001  9.836198e-001  0.000000e+000
    outer loop
      vertex -1.235501e+001  1.017527e+002 -4.000000e+001
      vertex -2.452986e+001  9.952154e+001  4.000000e+001
      vertex -1.235501e+001  1.017527e+002  4.000000e+001
    endloop
  endfacet
  facet normal -6.037825e-002  9.981755e-001  0.000000e+000
    outer loop
      vertex -1.235501e+001  1.017527e+002 -4.000000e+001
      vertex -1.235501e+001  1.017527e+002  4.000000e+001
      vertex  6.276315e-015  1.025000e+002 -4.000000e+001
    endloop
  endfacet
  facet normal -6.037825e-002  9.981755e-001  0.000000e+000
    outer loop
      vertex  6.276315e-015  1.025000e+002 -4.000000e+001
      vertex -1.235501e+001  1.017527e+002  4.000000e+001
      vertex  6.276315e-015  1.025000e+002  4.000000e+001
    endloop
  endfacet
  facet normal  7.871832e-001 -6.167192e-001  0.000000e+000
    outer loop
      vertex -7.410256e+001  6.564914e+001  2.130000e+001
      vertex -8.147540e+001  5.623841e+001  4.000000e+001
      vertex -8.147540e+001  5.623841e+001  2.130000e+001
    endloop
  endfacet
  facet normal  8.557811e-001 -5.173379e-001  0.000000e+000
    outer loop
      vertex -8.147540e+001  5.623841e+001  2.130000e+001
      vertex -8.147540e+001  5.623841e+001  4.000000e+001
      vertex -8.766015e+001  4.600760e+001  4.000000e+001
    endloop
  endfacet
  facet normal  8.557811e-001 -5.173379e-001  0.000000e+000
    outer loop
      vertex -8.147540e+001  5.623841e+001  2.130000e+001
      vertex -8.766015e+001  4.600760e+001  4.000000e+001
      vertex -8.766015e+001  4.600760e+001  2.130000e+001
    endloop
  endfacet
  facet normal  9.119000e-001 -4.104124e-001  0.000000e+000
    outer loop
      vertex -8.766015e+001  4.600760e+001  2.130000e+001
      vertex -8.766015e+001  4.600760e+001  4.000000e+001
      vertex -9.256660e+001  3.510588e+001  4.000000e+001
    endloop
  endfacet
  facet normal  9.119000e-001 -4.104124e-001  0.000000e+000
    outer loop
      vertex -8.766015e+001  4.600760e+001  2.130000e+001
      vertex -9.256660e+001  3.510588e+001  4.000000e+001
      vertex -9.256660e+001  3.510588e+001  2.130000e+001
    endloop
  endfacet
  facet normal  9.547209e-001 -2.975031e-001  0.000000e+000
    outer loop
      vertex -9.256660e+001  3.510588e+001  2.130000e+001
      vertex -9.256660e+001  3.510588e+001  4.000000e+001
      vertex -9.612324e+001  2.369225e+001  4.000000e+001
    endloop
  endfacet
  facet normal  9.547209e-001 -2.975031e-001  0.000000e+000
    outer loop
      vertex -9.256660e+001  3.510588e+001  2.130000e+001
      vertex -9.612324e+001  2.369225e+001  4.000000e+001
      vertex -9.612324e+001  2.369225e+001  2.130000e+001
    endloop
  endfacet
  facet normal  9.836199e-001 -1.802550e-001  0.000000e+000
    outer loop
      vertex -9.612324e+001  2.369225e+001  2.130000e+001
      vertex -9.612324e+001  2.369225e+001  4.000000e+001
      vertex -9.827818e+001  1.193313e+001  4.000000e+001
    endloop
  endfacet
  facet normal  9.836199e-001 -1.802550e-001  0.000000e+000
    outer loop
      vertex -9.612324e+001  2.369225e+001  2.130000e+001
      vertex -9.827818e+001  1.193313e+001  4.000000e+001
      vertex -9.827818e+001  1.193313e+001  2.130000e+001
    endloop
  endfacet
  facet normal  9.981755e-001 -6.037876e-002  0.000000e+000
    outer loop
      vertex -9.827818e+001  1.193313e+001  2.130000e+001
      vertex -9.827818e+001  1.193313e+001  4.000000e+001
      vertex -9.900000e+001 -3.184083e-014  4.000000e+001
    endloop
  endfacet
  facet normal  9.981755e-001 -6.037876e-002  0.000000e+000
    outer loop
      vertex -9.827818e+001  1.193313e+001  2.130000e+001
      vertex -9.900000e+001 -3.184083e-014  4.000000e+001
      vertex -9.900000e+001 -3.184083e-014  2.130000e+001
    endloop
  endfacet
  facet normal  7.871832e-001 -6.167192e-001  0.000000e+000
    outer loop
      vertex -8.147540e+001  5.623841e+001  4.000000e+001
      vertex -7.410256e+001  6.564914e+001  2.130000e+001
      vertex -7.410256e+001  6.564914e+001  4.000000e+001
    endloop
  endfacet
  facet normal  7.071068e-001 -7.071068e-001  0.000000e+000
    outer loop
      vertex -7.410256e+001  6.564914e+001  4.000000e+001
      vertex -7.410256e+001  6.564914e+001  2.130000e+001
      vertex -6.564914e+001  7.410256e+001  2.130000e+001
    endloop
  endfacet
  facet normal  7.071068e-001 -7.071068e-001  0.000000e+000
    outer loop
      vertex -7.410256e+001  6.564914e+001  4.000000e+001
      vertex -6.564914e+001  7.410256e+001  2.130000e+001
      vertex -6.564914e+001  7.410256e+001  4.000000e+001
    endloop
  endfacet
  facet normal  6.167192e-001 -7.871832e-001  0.000000e+000
    outer loop
      vertex -6.564914e+001  7.410256e+001  4.000000e+001
      vertex -6.564914e+001  7.410256e+001  2.130000e+001
      vertex -5.623841e+001  8.147540e+001  2.130000e+001
    endloop
  endfacet
  facet normal  6.167192e-001 -7.871832e-001  0.000000e+000
    outer loop
      vertex -6.564914e+001  7.410256e+001  4.000000e+001
      vertex -5.623841e+001  8.147540e+001  2.130000e+001
      vertex -5.623841e+001  8.147540e+001  4.000000e+001
    endloop
  endfacet
  facet normal  5.173379e-001 -8.557811e-001  0.000000e+000
    outer loop
      vertex -5.623841e+001  8.147540e+001  4.000000e+001
      vertex -5.623841e+001  8.147540e+001  2.130000e+001
      vertex -4.600760e+001  8.766015e+001  2.130000e+001
    endloop
  endfacet
  facet normal  5.173379e-001 -8.557811e-001  0.000000e+000
    outer loop
      vertex -5.623841e+001  8.147540e+001  4.000000e+001
      vertex -4.600760e+001  8.766015e+001  2.130000e+001
      vertex -4.600760e+001  8.766015e+001  4.000000e+001
    endloop
  endfacet
  facet normal  4.104124e-001 -9.119000e-001  0.000000e+000
    outer loop
      vertex -4.600760e+001  8.766015e+001  4.000000e+001
      vertex -4.600760e+001  8.766015e+001  2.130000e+001
      vertex -3.510588e+001  9.256660e+001  2.130000e+001
    endloop
  endfacet
  facet normal  4.104124e-001 -9.119000e-001  0.000000e+000
    outer loop
      vertex -4.600760e+001  8.766015e+001  4.000000e+001
      vertex -3.510588e+001  9.256660e+001  2.130000e+001
      vertex -3.510588e+001  9.256660e+001  4.000000e+001
    endloop
  endfacet
  facet normal  2.975031e-001 -9.547209e-001  0.000000e+000
    outer loop
      vertex -3.510588e+001  9.256660e+001  4.000000e+001
      vertex -3.510588e+001  9.256660e+001  2.130000e+001
      vertex -2.369225e+001  9.612324e+001  2.130000e+001
    endloop
  endfacet
  facet normal  2.975031e-001 -9.547209e-001  0.000000e+000
    outer loop
      vertex -3.510588e+001  9.256660e+001  4.000000e+001
      vertex -2.369225e+001  9.612324e+001  2.130000e+001
      vertex -2.369225e+001  9.612324e+001  4.000000e+001
    endloop
  endfacet
  facet normal  1.802550e-001 -9.836199e-001  0.000000e+000
    outer loop
      vertex -2.369225e+001  9.612324e+001  4.000000e+001
      vertex -2.369225e+001  9.612324e+001  2.130000e+001
      vertex -1.193313e+001  9.827818e+001  2.130000e+001
    endloop
  endfacet
  facet normal  1.802550e-001 -9.836199e-001  0.000000e+000
    outer loop
      vertex -2.369225e+001  9.612324e+001  4.000000e+001
      vertex -1.193313e+001  9.827818e+001  2.130000e+001
      vertex -1.193313e+001  9.827818e+001  4.000000e+001
    endloop
  endfacet
  facet normal  6.037876e-002 -9.981755e-001  0.000000e+000
    outer loop
      vertex -1.193313e+001  9.827818e+001  4.000000e+001
      vertex -1.193313e+001  9.827818e+001  2.130000e+001
      vertex  4.452086e-014  9.900000e+001  2.130000e+001
    endloop
  endfacet
  facet normal  6.037876e-002 -9.981755e-001 -1.777774e-017
    outer loop
      vertex -1.193313e+001  9.827818e+001  4.000000e+001
      vertex  4.452086e-014  9.900000e+001  2.130000e+001
      vertex  5.002683e-014  9.900000e+001  4.000000e+001
    endloop
  endfacet
  facet normal  0.000000e+000 -1.000000e+000  0.000000e+000
    outer loop
      vertex -1.000000e+001  2.022500e+001  1.900000e+001
      vertex  0.000000e+000  2.022500e+001  1.900000e+001
      vertex -1.000000e+001  2.022500e+001  2.130000e+001
    endloop
  endfacet
  facet normal  0.000000e+000 -1.000000e+000  0.000000e+000
    outer loop
      vertex -1.000000e+001  2.022500e+001  2.130000e+001
      vertex  0.000000e+000  2.022500e+001  1.900000e+001
      vertex -4.440892e-015  2.022500e+001  2.130000e+001
    endloop
  endfacet
  facet normal  0.000000e+000 -1.000000e+000  0.000000e+000
    outer loop
      vertex  0.000000e+000  3.000000e+001  1.900000e+001
      vertex -1.000000e+001  3.000000e+001  1.900000e+001
      vertex  0.000000e+000  3.000000e+001 -2.900000e+001
    endloop
  endfacet
  facet normal  0.000000e+000 -1.000000e+000  0.000000e+000
    outer loop
      vertex  0.000000e+000  3.000000e+001 -2.900000e+001
      vertex -1.000000e+001  3.000000e+001  1.900000e+001
      vertex -1.000000e+001  3.000000e+001 -2.900000e+001
    endloop
  endfacet
  facet normal  0.000000e+000  0.000000e+000 -1.000000e+000
    outer loop
      vertex -1.000000e+001  2.022500e+001  1.900000e+001
      vertex -1.000000e+001  3.000000e+001  1.900000e+001
      vertex  0.000000e+000  2.022500e+001  1.900000e+001
    endloop
  endfacet
  facet normal  0.000000e+000  0.000000e+000 -1.000000e+000
    outer loop
      vertex  0.000000e+000  2.022500e+001  1.900000e+001
      vertex -1.000000e+001  3.000000e+001  1.900000e+001
      vertex  0.000000e+000  3.000000e+001  1.900000e+001
    endloop
  endfacet
endsolid CATIA STL
