solid CATIA STL
  facet normal  0.000000e+000  -0.000000e+000  1.000000e+000
    outer loop
      vertex  5.468885e+001  8.669128e+001  0.000000e+000
      vertex  6.161186e+001  8.000000e+001  0.000000e+000
      vertex  6.408002e+001  8.000000e+001  0.000000e+000
    endloop
  endfacet
  facet normal  0.000000e+000  0.000000e+000  1.000000e+000
    outer loop
      vertex  1.616119e+002  7.000000e+001  0.000000e+000
      vertex  1.616119e+002  8.000000e+001  0.000000e+000
      vertex  6.408002e+001  8.000000e+001  0.000000e+000
    endloop
  endfacet
  facet normal  0.000000e+000  0.000000e+000  1.000000e+000
    outer loop
      vertex  1.616119e+002  7.000000e+001  0.000000e+000
      vertex  6.408002e+001  8.000000e+001  0.000000e+000
      vertex  6.161186e+001  8.000000e+001  0.000000e+000
    endloop
  endfacet
  facet normal  0.000000e+000  0.000000e+000  1.000000e+000
    outer loop
      vertex  1.616119e+002  7.000000e+001  0.000000e+000
      vertex  6.161186e+001  8.000000e+001  0.000000e+000
      vertex  6.161186e+001  7.000000e+001  0.000000e+000
    endloop
  endfacet
  facet normal  0.000000e+000  0.000000e+000  1.000000e+000
    outer loop
      vertex  0.000000e+000  8.000000e+001  0.000000e+000
      vertex  6.161186e+001  8.000000e+001  0.000000e+000
      vertex  5.468885e+001  8.669128e+001  0.000000e+000
    endloop
  endfacet
  facet normal  0.000000e+000  0.000000e+000  1.000000e+000
    outer loop
      vertex  0.000000e+000  8.000000e+001  0.000000e+000
      vertex  5.468885e+001  8.669128e+001  0.000000e+000
      vertex  4.460554e+001  9.228541e+001  0.000000e+000
    endloop
  endfacet
  facet normal  0.000000e+000  0.000000e+000  1.000000e+000
    outer loop
      vertex  0.000000e+000  8.000000e+001  0.000000e+000
      vertex  4.460554e+001  9.228541e+001  0.000000e+000
      vertex  3.395770e+001  9.671156e+001  0.000000e+000
    endloop
  endfacet
  facet normal  0.000000e+000  0.000000e+000  1.000000e+000
    outer loop
      vertex  0.000000e+000  8.000000e+001  0.000000e+000
      vertex  3.395770e+001  9.671156e+001  0.000000e+000
      vertex  2.288008e+001  9.991372e+001  0.000000e+000
    endloop
  endfacet
  facet normal  0.000000e+000  0.000000e+000  1.000000e+000
    outer loop
      vertex  0.000000e+000  8.000000e+001  0.000000e+000
      vertex  2.288008e+001  9.991372e+001  0.000000e+000
      vertex  1.151289e+001  1.018514e+002  0.000000e+000
    endloop
  endfacet
  facet normal  2.996899e-016 -1.578984e-016  1.000000e+000
    outer loop
      vertex  0.000000e+000  8.000000e+001  0.000000e+000
      vertex  1.151289e+001  1.018514e+002  0.000000e+000
      vertex  0.000000e+000  1.025000e+002  3.552714e-015
    endloop
  endfacet
  facet normal  5.802791e-001  8.144177e-001  0.000000e+000
    outer loop
      vertex  6.408002e+001  8.000000e+001 -4.000000e+001
      vertex  5.468885e+001  8.669128e+001 -4.000000e+001
      vertex  6.408002e+001  8.000000e+001 -3.000000e+001
    endloop
  endfacet
  facet normal  5.624942e-002  9.984167e-001  8.825977e-018
    outer loop
      vertex  6.276315e-015  1.025000e+002 -4.000000e+001
      vertex  0.000000e+000  1.025000e+002  3.552714e-015
      vertex  1.151289e+001  1.018514e+002 -4.000000e+001
    endloop
  endfacet
  facet normal  5.624942e-002  9.984167e-001  -0.000000e+000
    outer loop
      vertex  1.151289e+001  1.018514e+002 -4.000000e+001
      vertex  0.000000e+000  1.025000e+002  3.552714e-015
      vertex  1.151289e+001  1.018514e+002  0.000000e+000
    endloop
  endfacet
  facet normal  1.680370e-001  9.857807e-001  0.000000e+000
    outer loop
      vertex  1.151289e+001  1.018514e+002 -4.000000e+001
      vertex  1.151289e+001  1.018514e+002  0.000000e+000
      vertex  2.288008e+001  9.991372e+001 -4.000000e+001
    endloop
  endfacet
  facet normal  1.680370e-001  9.857807e-001  -0.000000e+000
    outer loop
      vertex  2.288008e+001  9.991372e+001 -4.000000e+001
      vertex  1.151289e+001  1.018514e+002  0.000000e+000
      vertex  2.288008e+001  9.991372e+001  0.000000e+000
    endloop
  endfacet
  facet normal  2.776968e-001  9.606687e-001  0.000000e+000
    outer loop
      vertex  2.288008e+001  9.991372e+001 -4.000000e+001
      vertex  2.288008e+001  9.991372e+001  0.000000e+000
      vertex  3.395770e+001  9.671156e+001 -4.000000e+001
    endloop
  endfacet
  facet normal  2.776968e-001  9.606687e-001  -0.000000e+000
    outer loop
      vertex  3.395770e+001  9.671156e+001 -4.000000e+001
      vertex  2.288008e+001  9.991372e+001  0.000000e+000
      vertex  3.395770e+001  9.671156e+001  0.000000e+000
    endloop
  endfacet
  facet normal  3.838427e-001  9.233986e-001  0.000000e+000
    outer loop
      vertex  3.395770e+001  9.671156e+001 -4.000000e+001
      vertex  3.395770e+001  9.671156e+001  0.000000e+000
      vertex  4.460554e+001  9.228541e+001 -4.000000e+001
    endloop
  endfacet
  facet normal  3.838427e-001  9.233986e-001  -0.000000e+000
    outer loop
      vertex  4.460554e+001  9.228541e+001 -4.000000e+001
      vertex  3.395770e+001  9.671156e+001  0.000000e+000
      vertex  4.460554e+001  9.228541e+001  0.000000e+000
    endloop
  endfacet
  facet normal  4.851315e-001  8.744412e-001  0.000000e+000
    outer loop
      vertex  4.460554e+001  9.228541e+001 -4.000000e+001
      vertex  4.460554e+001  9.228541e+001  0.000000e+000
      vertex  5.468885e+001  8.669128e+001 -4.000000e+001
    endloop
  endfacet
  facet normal  4.851315e-001  8.744412e-001  -0.000000e+000
    outer loop
      vertex  5.468885e+001  8.669128e+001 -4.000000e+001
      vertex  4.460554e+001  9.228541e+001  0.000000e+000
      vertex  5.468885e+001  8.669128e+001  0.000000e+000
    endloop
  endfacet
  facet normal  5.802791e-001  8.144177e-001  0.000000e+000
    outer loop
      vertex  5.468885e+001  8.669128e+001 -4.000000e+001
      vertex  5.468885e+001  8.669128e+001  0.000000e+000
      vertex  6.408002e+001  8.000000e+001 -3.000000e+001
    endloop
  endfacet
  facet normal  5.802792e-001  8.144177e-001  -0.000000e+000
    outer loop
      vertex  6.408002e+001  8.000000e+001 -3.000000e+001
      vertex  5.468885e+001  8.669128e+001  0.000000e+000
      vertex  6.408002e+001  8.000000e+001  0.000000e+000
    endloop
  endfacet
  facet normal -1.000000e+000  0.000000e+000 -1.569079e-016
    outer loop
      vertex  0.000000e+000  1.025000e+002  3.552714e-015
      vertex  6.276315e-015  1.025000e+002 -4.000000e+001
      vertex  0.000000e+000  8.000000e+001  0.000000e+000
    endloop
  endfacet
  facet normal -1.000000e+000  2.789473e-016  0.000000e+000
    outer loop
      vertex  0.000000e+000  8.000000e+001  0.000000e+000
      vertex  6.276315e-015  1.025000e+002 -4.000000e+001
      vertex  0.000000e+000  8.000000e+001 -3.000000e+001
    endloop
  endfacet
  facet normal -1.000000e+000  6.123234e-017 -4.898587e-016
    outer loop
      vertex  6.276315e-015  1.025000e+002 -4.000000e+001
      vertex  0.000000e+000  0.000000e+000 -4.000000e+001
      vertex  0.000000e+000  8.000000e+001 -3.000000e+001
    endloop
  endfacet
  facet normal -1.000000e+000  -0.000000e+000  0.000000e+000
    outer loop
      vertex  0.000000e+000  8.000000e+001 -3.000000e+001
      vertex  0.000000e+000  0.000000e+000 -4.000000e+001
      vertex  0.000000e+000  0.000000e+000 -3.000000e+001
    endloop
  endfacet
  facet normal  1.000000e+000  0.000000e+000  0.000000e+000
    outer loop
      vertex  1.616119e+002 -2.842171e-014 -4.000000e+001
      vertex  1.616119e+002  8.000000e+001 -4.000000e+001
      vertex  1.616119e+002 -1.421085e-014 -3.000000e+001
    endloop
  endfacet
  facet normal  1.000000e+000  -0.000000e+000  0.000000e+000
    outer loop
      vertex  1.616119e+002 -1.421085e-014 -3.000000e+001
      vertex  1.616119e+002  8.000000e+001 -4.000000e+001
      vertex  1.616119e+002  7.000000e+001 -3.000000e+001
    endloop
  endfacet
  facet normal  1.000000e+000  0.000000e+000  0.000000e+000
    outer loop
      vertex  1.616119e+002  8.000000e+001 -4.000000e+001
      vertex  1.616119e+002  8.000000e+001  0.000000e+000
      vertex  1.616119e+002  7.000000e+001 -3.000000e+001
    endloop
  endfacet
  facet normal  1.000000e+000  0.000000e+000  0.000000e+000
    outer loop
      vertex  1.616119e+002  7.000000e+001 -3.000000e+001
      vertex  1.616119e+002  8.000000e+001  0.000000e+000
      vertex  1.616119e+002  7.000000e+001  0.000000e+000
    endloop
  endfacet
  facet normal  0.000000e+000  1.000000e+000  0.000000e+000
    outer loop
      vertex  1.616119e+002  8.000000e+001 -4.000000e+001
      vertex  6.408002e+001  8.000000e+001 -4.000000e+001
      vertex  1.300000e+002  8.000000e+001 -3.000000e+001
    endloop
  endfacet
  facet normal  -0.000000e+000  1.000000e+000  0.000000e+000
    outer loop
      vertex  1.616119e+002  8.000000e+001 -4.000000e+001
      vertex  1.300000e+002  8.000000e+001 -3.000000e+001
      vertex  1.338268e+002  8.000000e+001 -2.923880e+001
    endloop
  endfacet
  facet normal  -0.000000e+000  1.000000e+000  0.000000e+000
    outer loop
      vertex  1.616119e+002  8.000000e+001 -4.000000e+001
      vertex  1.338268e+002  8.000000e+001 -2.923880e+001
      vertex  1.370711e+002  8.000000e+001 -2.707107e+001
    endloop
  endfacet
  facet normal  -0.000000e+000  1.000000e+000  0.000000e+000
    outer loop
      vertex  1.616119e+002  8.000000e+001 -4.000000e+001
      vertex  1.370711e+002  8.000000e+001 -2.707107e+001
      vertex  1.392388e+002  8.000000e+001 -2.382683e+001
    endloop
  endfacet
  facet normal  -0.000000e+000  1.000000e+000  0.000000e+000
    outer loop
      vertex  1.616119e+002  8.000000e+001 -4.000000e+001
      vertex  1.392388e+002  8.000000e+001 -2.382683e+001
      vertex  1.400000e+002  8.000000e+001 -2.000000e+001
    endloop
  endfacet
  facet normal  -0.000000e+000  1.000000e+000  0.000000e+000
    outer loop
      vertex  1.616119e+002  8.000000e+001 -4.000000e+001
      vertex  1.400000e+002  8.000000e+001 -2.000000e+001
      vertex  1.616119e+002  8.000000e+001  0.000000e+000
    endloop
  endfacet
  facet normal  -0.000000e+000  1.000000e+000  0.000000e+000
    outer loop
      vertex  6.408002e+001  8.000000e+001 -4.000000e+001
      vertex  6.408002e+001  8.000000e+001 -3.000000e+001
      vertex  1.200000e+002  8.000000e+001 -2.000000e+001
    endloop
  endfacet
  facet normal  0.000000e+000  1.000000e+000  0.000000e+000
    outer loop
      vertex  6.408002e+001  8.000000e+001 -4.000000e+001
      vertex  1.200000e+002  8.000000e+001 -2.000000e+001
      vertex  1.207612e+002  8.000000e+001 -2.382683e+001
    endloop
  endfacet
  facet normal  0.000000e+000  1.000000e+000  0.000000e+000
    outer loop
      vertex  6.408002e+001  8.000000e+001 -4.000000e+001
      vertex  1.207612e+002  8.000000e+001 -2.382683e+001
      vertex  1.229289e+002  8.000000e+001 -2.707107e+001
    endloop
  endfacet
  facet normal  0.000000e+000  1.000000e+000  0.000000e+000
    outer loop
      vertex  6.408002e+001  8.000000e+001 -4.000000e+001
      vertex  1.229289e+002  8.000000e+001 -2.707107e+001
      vertex  1.261732e+002  8.000000e+001 -2.923880e+001
    endloop
  endfacet
  facet normal  0.000000e+000  1.000000e+000  0.000000e+000
    outer loop
      vertex  6.408002e+001  8.000000e+001 -4.000000e+001
      vertex  1.261732e+002  8.000000e+001 -2.923880e+001
      vertex  1.300000e+002  8.000000e+001 -3.000000e+001
    endloop
  endfacet
  facet normal  0.000000e+000  1.000000e+000  0.000000e+000
    outer loop
      vertex  6.408002e+001  8.000000e+001  0.000000e+000
      vertex  1.300000e+002  8.000000e+001 -1.000000e+001
      vertex  1.261732e+002  8.000000e+001 -1.076120e+001
    endloop
  endfacet
  facet normal  0.000000e+000  1.000000e+000  0.000000e+000
    outer loop
      vertex  6.408002e+001  8.000000e+001  0.000000e+000
      vertex  1.261732e+002  8.000000e+001 -1.076120e+001
      vertex  1.229289e+002  8.000000e+001 -1.292893e+001
    endloop
  endfacet
  facet normal  0.000000e+000  1.000000e+000  0.000000e+000
    outer loop
      vertex  6.408002e+001  8.000000e+001  0.000000e+000
      vertex  1.229289e+002  8.000000e+001 -1.292893e+001
      vertex  1.207612e+002  8.000000e+001 -1.617317e+001
    endloop
  endfacet
  facet normal  0.000000e+000  9.999999e-001  0.000000e+000
    outer loop
      vertex  6.408002e+001  8.000000e+001  0.000000e+000
      vertex  1.207612e+002  8.000000e+001 -1.617317e+001
      vertex  1.200000e+002  8.000000e+001 -2.000000e+001
    endloop
  endfacet
  facet normal  0.000000e+000  1.000000e+000  0.000000e+000
    outer loop
      vertex  6.408002e+001  8.000000e+001  0.000000e+000
      vertex  1.200000e+002  8.000000e+001 -2.000000e+001
      vertex  6.408002e+001  8.000000e+001 -3.000000e+001
    endloop
  endfacet
  facet normal  0.000000e+000  1.000000e+000  -0.000000e+000
    outer loop
      vertex  1.616119e+002  8.000000e+001  0.000000e+000
      vertex  1.400000e+002  8.000000e+001 -2.000000e+001
      vertex  1.392388e+002  8.000000e+001 -1.617317e+001
    endloop
  endfacet
  facet normal  0.000000e+000  1.000000e+000  -0.000000e+000
    outer loop
      vertex  1.616119e+002  8.000000e+001  0.000000e+000
      vertex  1.392388e+002  8.000000e+001 -1.617317e+001
      vertex  1.370711e+002  8.000000e+001 -1.292893e+001
    endloop
  endfacet
  facet normal  0.000000e+000  1.000000e+000  -0.000000e+000
    outer loop
      vertex  1.616119e+002  8.000000e+001  0.000000e+000
      vertex  1.370711e+002  8.000000e+001 -1.292893e+001
      vertex  1.338268e+002  8.000000e+001 -1.076120e+001
    endloop
  endfacet
  facet normal  0.000000e+000  1.000000e+000  -0.000000e+000
    outer loop
      vertex  1.616119e+002  8.000000e+001  0.000000e+000
      vertex  1.338268e+002  8.000000e+001 -1.076120e+001
      vertex  1.300000e+002  8.000000e+001 -1.000000e+001
    endloop
  endfacet
  facet normal  0.000000e+000  1.000000e+000  -0.000000e+000
    outer loop
      vertex  1.616119e+002  8.000000e+001  0.000000e+000
      vertex  1.300000e+002  8.000000e+001 -1.000000e+001
      vertex  6.408002e+001  8.000000e+001  0.000000e+000
    endloop
  endfacet
  facet normal  0.000000e+000 -1.000000e+000  -0.000000e+000
    outer loop
      vertex  1.616119e+002  7.000000e+001 -3.000000e+001
      vertex  1.616119e+002  7.000000e+001  0.000000e+000
      vertex  1.392388e+002  7.000000e+001 -2.382683e+001
    endloop
  endfacet
  facet normal  0.000000e+000 -9.999999e-001  -0.000000e+000
    outer loop
      vertex  1.616119e+002  7.000000e+001 -3.000000e+001
      vertex  1.392388e+002  7.000000e+001 -2.382683e+001
      vertex  1.370711e+002  7.000000e+001 -2.707107e+001
    endloop
  endfacet
  facet normal  0.000000e+000 -1.000000e+000  -0.000000e+000
    outer loop
      vertex  1.616119e+002  7.000000e+001 -3.000000e+001
      vertex  1.370711e+002  7.000000e+001 -2.707107e+001
      vertex  1.338268e+002  7.000000e+001 -2.923880e+001
    endloop
  endfacet
  facet normal  0.000000e+000 -1.000000e+000  -0.000000e+000
    outer loop
      vertex  1.616119e+002  7.000000e+001 -3.000000e+001
      vertex  1.338268e+002  7.000000e+001 -2.923880e+001
      vertex  1.300000e+002  7.000000e+001 -3.000000e+001
    endloop
  endfacet
  facet normal  0.000000e+000 -9.999999e-001  0.000000e+000
    outer loop
      vertex  6.161186e+001  7.000000e+001  0.000000e+000
      vertex  6.161186e+001  7.000000e+001 -3.000000e+001
      vertex  1.200000e+002  7.000000e+001 -2.000000e+001
    endloop
  endfacet
  facet normal  0.000000e+000 -9.999999e-001  0.000000e+000
    outer loop
      vertex  6.161186e+001  7.000000e+001  0.000000e+000
      vertex  1.200000e+002  7.000000e+001 -2.000000e+001
      vertex  1.207612e+002  7.000000e+001 -1.617317e+001
    endloop
  endfacet
  facet normal  0.000000e+000 -9.999999e-001  0.000000e+000
    outer loop
      vertex  6.161186e+001  7.000000e+001  0.000000e+000
      vertex  1.207612e+002  7.000000e+001 -1.617317e+001
      vertex  1.229289e+002  7.000000e+001 -1.292893e+001
    endloop
  endfacet
  facet normal  0.000000e+000 -1.000000e+000  0.000000e+000
    outer loop
      vertex  6.161186e+001  7.000000e+001  0.000000e+000
      vertex  1.229289e+002  7.000000e+001 -1.292893e+001
      vertex  1.261732e+002  7.000000e+001 -1.076120e+001
    endloop
  endfacet
  facet normal  0.000000e+000 -1.000000e+000  0.000000e+000
    outer loop
      vertex  6.161186e+001  7.000000e+001  0.000000e+000
      vertex  1.261732e+002  7.000000e+001 -1.076120e+001
      vertex  1.300000e+002  7.000000e+001 -1.000000e+001
    endloop
  endfacet
  facet normal  0.000000e+000 -1.000000e+000  0.000000e+000
    outer loop
      vertex  1.616119e+002  7.000000e+001  0.000000e+000
      vertex  6.161186e+001  7.000000e+001  0.000000e+000
      vertex  1.300000e+002  7.000000e+001 -1.000000e+001
    endloop
  endfacet
  facet normal  0.000000e+000 -9.999999e-001  0.000000e+000
    outer loop
      vertex  1.616119e+002  7.000000e+001  0.000000e+000
      vertex  1.300000e+002  7.000000e+001 -1.000000e+001
      vertex  1.338268e+002  7.000000e+001 -1.076120e+001
    endloop
  endfacet
  facet normal  0.000000e+000 -1.000000e+000  0.000000e+000
    outer loop
      vertex  1.616119e+002  7.000000e+001  0.000000e+000
      vertex  1.338268e+002  7.000000e+001 -1.076120e+001
      vertex  1.370711e+002  7.000000e+001 -1.292893e+001
    endloop
  endfacet
  facet normal  0.000000e+000 -1.000000e+000  0.000000e+000
    outer loop
      vertex  1.616119e+002  7.000000e+001  0.000000e+000
      vertex  1.370711e+002  7.000000e+001 -1.292893e+001
      vertex  1.392388e+002  7.000000e+001 -1.617317e+001
    endloop
  endfacet
  facet normal  0.000000e+000 -1.000000e+000  0.000000e+000
    outer loop
      vertex  1.616119e+002  7.000000e+001  0.000000e+000
      vertex  1.392388e+002  7.000000e+001 -1.617317e+001
      vertex  1.400000e+002  7.000000e+001 -2.000000e+001
    endloop
  endfacet
  facet normal  0.000000e+000 -9.999999e-001  -0.000000e+000
    outer loop
      vertex  1.616119e+002  7.000000e+001  0.000000e+000
      vertex  1.400000e+002  7.000000e+001 -2.000000e+001
      vertex  1.392388e+002  7.000000e+001 -2.382683e+001
    endloop
  endfacet
  facet normal  0.000000e+000 -1.000000e+000  0.000000e+000
    outer loop
      vertex  6.161186e+001  7.000000e+001 -3.000000e+001
      vertex  1.300000e+002  7.000000e+001 -3.000000e+001
      vertex  1.261732e+002  7.000000e+001 -2.923880e+001
    endloop
  endfacet
  facet normal  -0.000000e+000 -1.000000e+000  0.000000e+000
    outer loop
      vertex  6.161186e+001  7.000000e+001 -3.000000e+001
      vertex  1.261732e+002  7.000000e+001 -2.923880e+001
      vertex  1.229289e+002  7.000000e+001 -2.707107e+001
    endloop
  endfacet
  facet normal  -0.000000e+000 -1.000000e+000  0.000000e+000
    outer loop
      vertex  6.161186e+001  7.000000e+001 -3.000000e+001
      vertex  1.229289e+002  7.000000e+001 -2.707107e+001
      vertex  1.207612e+002  7.000000e+001 -2.382683e+001
    endloop
  endfacet
  facet normal  -0.000000e+000 -9.999999e-001  0.000000e+000
    outer loop
      vertex  6.161186e+001  7.000000e+001 -3.000000e+001
      vertex  1.207612e+002  7.000000e+001 -2.382683e+001
      vertex  1.200000e+002  7.000000e+001 -2.000000e+001
    endloop
  endfacet
  facet normal -1.000000e+000  0.000000e+000  0.000000e+000
    outer loop
      vertex  6.161186e+001  8.000000e+001 -3.000000e+001
      vertex  6.161186e+001  7.000000e+001 -3.000000e+001
      vertex  6.161186e+001  8.000000e+001  0.000000e+000
    endloop
  endfacet
  facet normal -1.000000e+000  -0.000000e+000  0.000000e+000
    outer loop
      vertex  6.161186e+001  8.000000e+001  0.000000e+000
      vertex  6.161186e+001  7.000000e+001 -3.000000e+001
      vertex  6.161186e+001  7.000000e+001  0.000000e+000
    endloop
  endfacet
  facet normal  0.000000e+000 -9.999999e-001  0.000000e+000
    outer loop
      vertex  0.000000e+000  8.000000e+001 -3.000000e+001
      vertex  6.161186e+001  8.000000e+001 -3.000000e+001
      vertex  0.000000e+000  8.000000e+001  0.000000e+000
    endloop
  endfacet
  facet normal  0.000000e+000 -9.999999e-001  0.000000e+000
    outer loop
      vertex  0.000000e+000  8.000000e+001  0.000000e+000
      vertex  6.161186e+001  8.000000e+001 -3.000000e+001
      vertex  6.161186e+001  8.000000e+001  0.000000e+000
    endloop
  endfacet
  facet normal  0.000000e+000  0.000000e+000  1.000000e+000
    outer loop
      vertex  1.616119e+002 -1.421085e-014 -3.000000e+001
      vertex  1.616119e+002  7.000000e+001 -3.000000e+001
      vertex  0.000000e+000  0.000000e+000 -3.000000e+001
    endloop
  endfacet
  facet normal  0.000000e+000  0.000000e+000  1.000000e+000
    outer loop
      vertex  0.000000e+000  0.000000e+000 -3.000000e+001
      vertex  1.616119e+002  7.000000e+001 -3.000000e+001
      vertex  1.300000e+002  7.000000e+001 -3.000000e+001
    endloop
  endfacet
  facet normal  0.000000e+000  0.000000e+000  1.000000e+000
    outer loop
      vertex  0.000000e+000  0.000000e+000 -3.000000e+001
      vertex  1.300000e+002  7.000000e+001 -3.000000e+001
      vertex  6.161186e+001  7.000000e+001 -3.000000e+001
    endloop
  endfacet
  facet normal  0.000000e+000  0.000000e+000  1.000000e+000
    outer loop
      vertex  0.000000e+000  8.000000e+001 -3.000000e+001
      vertex  0.000000e+000  0.000000e+000 -3.000000e+001
      vertex  6.161186e+001  8.000000e+001 -3.000000e+001
    endloop
  endfacet
  facet normal  0.000000e+000  0.000000e+000  1.000000e+000
    outer loop
      vertex  6.161186e+001  8.000000e+001 -3.000000e+001
      vertex  0.000000e+000  0.000000e+000 -3.000000e+001
      vertex  6.161186e+001  7.000000e+001 -3.000000e+001
    endloop
  endfacet
  facet normal  0.000000e+000  -0.000000e+000 -1.000000e+000
    outer loop
      vertex  0.000000e+000  0.000000e+000 -4.000000e+001
      vertex  6.276315e-015  1.025000e+002 -4.000000e+001
      vertex  1.151289e+001  1.018514e+002 -4.000000e+001
    endloop
  endfacet
  facet normal  0.000000e+000  -0.000000e+000 -1.000000e+000
    outer loop
      vertex  0.000000e+000  0.000000e+000 -4.000000e+001
      vertex  1.151289e+001  1.018514e+002 -4.000000e+001
      vertex  2.288008e+001  9.991372e+001 -4.000000e+001
    endloop
  endfacet
  facet normal  0.000000e+000  -0.000000e+000 -1.000000e+000
    outer loop
      vertex  0.000000e+000  0.000000e+000 -4.000000e+001
      vertex  2.288008e+001  9.991372e+001 -4.000000e+001
      vertex  3.395770e+001  9.671156e+001 -4.000000e+001
    endloop
  endfacet
  facet normal  0.000000e+000  -0.000000e+000 -1.000000e+000
    outer loop
      vertex  0.000000e+000  0.000000e+000 -4.000000e+001
      vertex  3.395770e+001  9.671156e+001 -4.000000e+001
      vertex  4.460554e+001  9.228541e+001 -4.000000e+001
    endloop
  endfacet
  facet normal  0.000000e+000  -0.000000e+000 -1.000000e+000
    outer loop
      vertex  0.000000e+000  0.000000e+000 -4.000000e+001
      vertex  4.460554e+001  9.228541e+001 -4.000000e+001
      vertex  5.468885e+001  8.669128e+001 -4.000000e+001
    endloop
  endfacet
  facet normal  0.000000e+000  -0.000000e+000 -1.000000e+000
    outer loop
      vertex  0.000000e+000  0.000000e+000 -4.000000e+001
      vertex  5.468885e+001  8.669128e+001 -4.000000e+001
      vertex  6.408002e+001  8.000000e+001 -4.000000e+001
    endloop
  endfacet
  facet normal  0.000000e+000  -0.000000e+000 -1.000000e+000
    outer loop
      vertex  0.000000e+000  0.000000e+000 -4.000000e+001
      vertex  6.408002e+001  8.000000e+001 -4.000000e+001
      vertex  1.616119e+002  8.000000e+001 -4.000000e+001
    endloop
  endfacet
  facet normal  0.000000e+000  -0.000000e+000 -1.000000e+000
    outer loop
      vertex  0.000000e+000  0.000000e+000 -4.000000e+001
      vertex  1.616119e+002  8.000000e+001 -4.000000e+001
      vertex  1.616119e+002 -2.842171e-014 -4.000000e+001
    endloop
  endfacet
  facet normal -8.793201e-017 -1.000000e+000  0.000000e+000
    outer loop
      vertex  0.000000e+000  0.000000e+000 -3.000000e+001
      vertex  0.000000e+000  0.000000e+000 -4.000000e+001
      vertex  1.616119e+002 -1.421085e-014 -3.000000e+001
    endloop
  endfacet
  facet normal -1.758640e-016 -1.000000e+000  1.421085e-015
    outer loop
      vertex  1.616119e+002 -1.421085e-014 -3.000000e+001
      vertex  0.000000e+000  0.000000e+000 -4.000000e+001
      vertex  1.616119e+002 -2.842171e-014 -4.000000e+001
    endloop
  endfacet
  facet normal -1.950907e-001  -0.000000e+000 -9.807853e-001
    outer loop
      vertex  1.300000e+002  7.000000e+001 -1.000000e+001
      vertex  1.338268e+002  8.000000e+001 -1.076120e+001
      vertex  1.338268e+002  7.000000e+001 -1.076120e+001
    endloop
  endfacet
  facet normal -5.555685e-001  0.000000e+000 -8.314707e-001
    outer loop
      vertex  1.338268e+002  7.000000e+001 -1.076120e+001
      vertex  1.338268e+002  8.000000e+001 -1.076120e+001
      vertex  1.370711e+002  8.000000e+001 -1.292893e+001
    endloop
  endfacet
  facet normal -5.555685e-001  -0.000000e+000 -8.314707e-001
    outer loop
      vertex  1.338268e+002  7.000000e+001 -1.076120e+001
      vertex  1.370711e+002  8.000000e+001 -1.292893e+001
      vertex  1.370711e+002  7.000000e+001 -1.292893e+001
    endloop
  endfacet
  facet normal -8.314700e-001  0.000000e+000 -5.555696e-001
    outer loop
      vertex  1.370711e+002  7.000000e+001 -1.292893e+001
      vertex  1.370711e+002  8.000000e+001 -1.292893e+001
      vertex  1.392388e+002  8.000000e+001 -1.617317e+001
    endloop
  endfacet
  facet normal -8.314700e-001  -0.000000e+000 -5.555696e-001
    outer loop
      vertex  1.370711e+002  7.000000e+001 -1.292893e+001
      vertex  1.392388e+002  8.000000e+001 -1.617317e+001
      vertex  1.392388e+002  7.000000e+001 -1.617317e+001
    endloop
  endfacet
  facet normal -9.807856e-001  0.000000e+000 -1.950892e-001
    outer loop
      vertex  1.392388e+002  7.000000e+001 -1.617317e+001
      vertex  1.392388e+002  8.000000e+001 -1.617317e+001
      vertex  1.400000e+002  8.000000e+001 -2.000000e+001
    endloop
  endfacet
  facet normal -9.807856e-001  -0.000000e+000 -1.950892e-001
    outer loop
      vertex  1.392388e+002  7.000000e+001 -1.617317e+001
      vertex  1.400000e+002  8.000000e+001 -2.000000e+001
      vertex  1.400000e+002  7.000000e+001 -2.000000e+001
    endloop
  endfacet
  facet normal -1.950907e-001  0.000000e+000 -9.807853e-001
    outer loop
      vertex  1.338268e+002  8.000000e+001 -1.076120e+001
      vertex  1.300000e+002  7.000000e+001 -1.000000e+001
      vertex  1.300000e+002  8.000000e+001 -1.000000e+001
    endloop
  endfacet
  facet normal  1.950903e-001  0.000000e+000 -9.807853e-001
    outer loop
      vertex  1.300000e+002  8.000000e+001 -1.000000e+001
      vertex  1.300000e+002  7.000000e+001 -1.000000e+001
      vertex  1.261732e+002  7.000000e+001 -1.076120e+001
    endloop
  endfacet
  facet normal  1.950903e-001  0.000000e+000 -9.807853e-001
    outer loop
      vertex  1.300000e+002  8.000000e+001 -1.000000e+001
      vertex  1.261732e+002  7.000000e+001 -1.076120e+001
      vertex  1.261732e+002  8.000000e+001 -1.076120e+001
    endloop
  endfacet
  facet normal  5.555704e-001  0.000000e+000 -8.314695e-001
    outer loop
      vertex  1.261732e+002  8.000000e+001 -1.076120e+001
      vertex  1.261732e+002  7.000000e+001 -1.076120e+001
      vertex  1.229289e+002  7.000000e+001 -1.292893e+001
    endloop
  endfacet
  facet normal  5.555704e-001  0.000000e+000 -8.314695e-001
    outer loop
      vertex  1.261732e+002  8.000000e+001 -1.076120e+001
      vertex  1.229289e+002  7.000000e+001 -1.292893e+001
      vertex  1.229289e+002  8.000000e+001 -1.292893e+001
    endloop
  endfacet
  facet normal  8.314700e-001  0.000000e+000 -5.555696e-001
    outer loop
      vertex  1.229289e+002  8.000000e+001 -1.292893e+001
      vertex  1.229289e+002  7.000000e+001 -1.292893e+001
      vertex  1.207612e+002  7.000000e+001 -1.617317e+001
    endloop
  endfacet
  facet normal  8.314700e-001  0.000000e+000 -5.555696e-001
    outer loop
      vertex  1.229289e+002  8.000000e+001 -1.292893e+001
      vertex  1.207612e+002  7.000000e+001 -1.617317e+001
      vertex  1.207612e+002  8.000000e+001 -1.617317e+001
    endloop
  endfacet
  facet normal  9.807851e-001  0.000000e+000 -1.950911e-001
    outer loop
      vertex  1.207612e+002  8.000000e+001 -1.617317e+001
      vertex  1.207612e+002  7.000000e+001 -1.617317e+001
      vertex  1.200000e+002  7.000000e+001 -2.000000e+001
    endloop
  endfacet
  facet normal  9.807851e-001  0.000000e+000 -1.950911e-001
    outer loop
      vertex  1.207612e+002  8.000000e+001 -1.617317e+001
      vertex  1.200000e+002  7.000000e+001 -2.000000e+001
      vertex  1.200000e+002  8.000000e+001 -2.000000e+001
    endloop
  endfacet
  facet normal  1.950900e-001  0.000000e+000  9.807854e-001
    outer loop
      vertex  1.300000e+002  7.000000e+001 -3.000000e+001
      vertex  1.261732e+002  8.000000e+001 -2.923880e+001
      vertex  1.261732e+002  7.000000e+001 -2.923880e+001
    endloop
  endfacet
  facet normal  5.555705e-001  -0.000000e+000  8.314694e-001
    outer loop
      vertex  1.261732e+002  7.000000e+001 -2.923880e+001
      vertex  1.261732e+002  8.000000e+001 -2.923880e+001
      vertex  1.229289e+002  8.000000e+001 -2.707107e+001
    endloop
  endfacet
  facet normal  5.555705e-001  0.000000e+000  8.314694e-001
    outer loop
      vertex  1.261732e+002  7.000000e+001 -2.923880e+001
      vertex  1.229289e+002  8.000000e+001 -2.707107e+001
      vertex  1.229289e+002  7.000000e+001 -2.707107e+001
    endloop
  endfacet
  facet normal  8.314700e-001  -0.000000e+000  5.555696e-001
    outer loop
      vertex  1.229289e+002  7.000000e+001 -2.707107e+001
      vertex  1.229289e+002  8.000000e+001 -2.707107e+001
      vertex  1.207612e+002  8.000000e+001 -2.382683e+001
    endloop
  endfacet
  facet normal  8.314700e-001  0.000000e+000  5.555696e-001
    outer loop
      vertex  1.229289e+002  7.000000e+001 -2.707107e+001
      vertex  1.207612e+002  8.000000e+001 -2.382683e+001
      vertex  1.207612e+002  7.000000e+001 -2.382683e+001
    endloop
  endfacet
  facet normal  9.807851e-001  -0.000000e+000  1.950911e-001
    outer loop
      vertex  1.207612e+002  7.000000e+001 -2.382683e+001
      vertex  1.207612e+002  8.000000e+001 -2.382683e+001
      vertex  1.200000e+002  8.000000e+001 -2.000000e+001
    endloop
  endfacet
  facet normal  9.807851e-001  0.000000e+000  1.950911e-001
    outer loop
      vertex  1.207612e+002  7.000000e+001 -2.382683e+001
      vertex  1.200000e+002  8.000000e+001 -2.000000e+001
      vertex  1.200000e+002  7.000000e+001 -2.000000e+001
    endloop
  endfacet
  facet normal  1.950900e-001  -0.000000e+000  9.807854e-001
    outer loop
      vertex  1.261732e+002  8.000000e+001 -2.923880e+001
      vertex  1.300000e+002  7.000000e+001 -3.000000e+001
      vertex  1.300000e+002  8.000000e+001 -3.000000e+001
    endloop
  endfacet
  facet normal -1.950904e-001  0.000000e+000  9.807853e-001
    outer loop
      vertex  1.300000e+002  8.000000e+001 -3.000000e+001
      vertex  1.300000e+002  7.000000e+001 -3.000000e+001
      vertex  1.338268e+002  7.000000e+001 -2.923880e+001
    endloop
  endfacet
  facet normal -1.950904e-001  0.000000e+000  9.807853e-001
    outer loop
      vertex  1.300000e+002  8.000000e+001 -3.000000e+001
      vertex  1.338268e+002  7.000000e+001 -2.923880e+001
      vertex  1.338268e+002  8.000000e+001 -2.923880e+001
    endloop
  endfacet
  facet normal -5.555688e-001  0.000000e+000  8.314706e-001
    outer loop
      vertex  1.338268e+002  8.000000e+001 -2.923880e+001
      vertex  1.338268e+002  7.000000e+001 -2.923880e+001
      vertex  1.370711e+002  7.000000e+001 -2.707107e+001
    endloop
  endfacet
  facet normal -5.555688e-001  0.000000e+000  8.314706e-001
    outer loop
      vertex  1.338268e+002  8.000000e+001 -2.923880e+001
      vertex  1.370711e+002  7.000000e+001 -2.707107e+001
      vertex  1.370711e+002  8.000000e+001 -2.707107e+001
    endloop
  endfacet
  facet normal -8.314700e-001  0.000000e+000  5.555696e-001
    outer loop
      vertex  1.370711e+002  8.000000e+001 -2.707107e+001
      vertex  1.370711e+002  7.000000e+001 -2.707107e+001
      vertex  1.392388e+002  7.000000e+001 -2.382683e+001
    endloop
  endfacet
  facet normal -8.314700e-001  0.000000e+000  5.555696e-001
    outer loop
      vertex  1.370711e+002  8.000000e+001 -2.707107e+001
      vertex  1.392388e+002  7.000000e+001 -2.382683e+001
      vertex  1.392388e+002  8.000000e+001 -2.382683e+001
    endloop
  endfacet
  facet normal -9.807856e-001  0.000000e+000  1.950892e-001
    outer loop
      vertex  1.392388e+002  8.000000e+001 -2.382683e+001
      vertex  1.392388e+002  7.000000e+001 -2.382683e+001
      vertex  1.400000e+002  7.000000e+001 -2.000000e+001
    endloop
  endfacet
  facet normal -9.807856e-001  0.000000e+000  1.950892e-001
    outer loop
      vertex  1.392388e+002  8.000000e+001 -2.382683e+001
      vertex  1.400000e+002  7.000000e+001 -2.000000e+001
      vertex  1.400000e+002  8.000000e+001 -2.000000e+001
    endloop
  endfacet
endsolid CATIA STL
