solid CATIA STL
  facet normal  0.000000e+000  0.000000e+000 -9.999999e-001
    outer loop
      vertex  5.292893e+001 -7.071068e+000  0.000000e+000
      vertex  4.460554e+001 -9.228541e+001  0.000000e+000
      vertex  5.076120e+001 -3.826834e+000  0.000000e+000
    endloop
  endfacet
  facet normal  0.000000e+000  0.000000e+000 -1.000000e+000
    outer loop
      vertex  6.408002e+001 -8.000000e+001  0.000000e+000
      vertex  6.382684e+001 -9.238795e+000  0.000000e+000
      vertex  6.707107e+001 -7.071068e+000  0.000000e+000
    endloop
  endfacet
  facet normal  0.000000e+000  -0.000000e+000 -1.000000e+000
    outer loop
      vertex  6.408002e+001 -8.000000e+001  0.000000e+000
      vertex  6.707107e+001 -7.071068e+000  0.000000e+000
      vertex  6.923879e+001 -3.826834e+000  0.000000e+000
    endloop
  endfacet
  facet normal  0.000000e+000  -0.000000e+000 -1.000000e+000
    outer loop
      vertex  6.408002e+001 -8.000000e+001  0.000000e+000
      vertex  6.923879e+001 -3.826834e+000  0.000000e+000
      vertex  7.000000e+001  0.000000e+000  0.000000e+000
    endloop
  endfacet
  facet normal  0.000000e+000  0.000000e+000 -1.000000e+000
    outer loop
      vertex  6.408002e+001 -8.000000e+001  0.000000e+000
      vertex  7.000000e+001  0.000000e+000  0.000000e+000
      vertex  6.965714e+001 -7.519396e+001  0.000000e+000
    endloop
  endfacet
  facet normal  -0.000000e+000  0.000000e+000 -1.000000e+000
    outer loop
      vertex  7.000000e+001  0.000000e+000  0.000000e+000
      vertex  1.025000e+002 -2.842171e-014  0.000000e+000
      vertex  1.019095e+002 -1.098679e+001  0.000000e+000
    endloop
  endfacet
  facet normal  -0.000000e+000  0.000000e+000 -1.000000e+000
    outer loop
      vertex  7.000000e+001  0.000000e+000  0.000000e+000
      vertex  1.019095e+002 -1.098679e+001  0.000000e+000
      vertex  1.001447e+002 -2.184699e+001  0.000000e+000
    endloop
  endfacet
  facet normal  -0.000000e+000  0.000000e+000 -1.000000e+000
    outer loop
      vertex  7.000000e+001  0.000000e+000  0.000000e+000
      vertex  1.001447e+002 -2.184699e+001  0.000000e+000
      vertex  9.722599e+001 -3.245546e+001  0.000000e+000
    endloop
  endfacet
  facet normal  -0.000000e+000  0.000000e+000 -1.000000e+000
    outer loop
      vertex  7.000000e+001  0.000000e+000  0.000000e+000
      vertex  9.722599e+001 -3.245546e+001  0.000000e+000
      vertex  9.318700e+001 -4.268996e+001  0.000000e+000
    endloop
  endfacet
  facet normal  -0.000000e+000  0.000000e+000 -1.000000e+000
    outer loop
      vertex  7.000000e+001  0.000000e+000  0.000000e+000
      vertex  9.318700e+001 -4.268996e+001  0.000000e+000
      vertex  8.807427e+001 -5.243256e+001  0.000000e+000
    endloop
  endfacet
  facet normal  -0.000000e+000  0.000000e+000 -1.000000e+000
    outer loop
      vertex  7.000000e+001  0.000000e+000  0.000000e+000
      vertex  8.807427e+001 -5.243256e+001  0.000000e+000
      vertex  8.194670e+001 -6.157100e+001  0.000000e+000
    endloop
  endfacet
  facet normal  -0.000000e+000  0.000000e+000 -1.000000e+000
    outer loop
      vertex  7.000000e+001  0.000000e+000  0.000000e+000
      vertex  8.194670e+001 -6.157100e+001  0.000000e+000
      vertex  7.487489e+001 -7.000000e+001  0.000000e+000
    endloop
  endfacet
  facet normal  -0.000000e+000  0.000000e+000 -1.000000e+000
    outer loop
      vertex  7.000000e+001  0.000000e+000  0.000000e+000
      vertex  7.487489e+001 -7.000000e+001  0.000000e+000
      vertex  6.965714e+001 -7.519396e+001  0.000000e+000
    endloop
  endfacet
  facet normal  0.000000e+000  0.000000e+000 -9.999999e-001
    outer loop
      vertex  5.468885e+001 -8.669128e+001  0.000000e+000
      vertex  4.460554e+001 -9.228541e+001  0.000000e+000
      vertex  5.292893e+001 -7.071068e+000  0.000000e+000
    endloop
  endfacet
  facet normal  0.000000e+000  0.000000e+000 -1.000000e+000
    outer loop
      vertex  5.468885e+001 -8.669128e+001  0.000000e+000
      vertex  5.292893e+001 -7.071068e+000  0.000000e+000
      vertex  5.617316e+001 -9.238795e+000  0.000000e+000
    endloop
  endfacet
  facet normal  0.000000e+000  -0.000000e+000 -1.000000e+000
    outer loop
      vertex  5.468885e+001 -8.669128e+001  0.000000e+000
      vertex  5.617316e+001 -9.238795e+000  0.000000e+000
      vertex  6.000000e+001 -1.000000e+001  0.000000e+000
    endloop
  endfacet
  facet normal  0.000000e+000  -0.000000e+000 -1.000000e+000
    outer loop
      vertex  5.468885e+001 -8.669128e+001  0.000000e+000
      vertex  6.000000e+001 -1.000000e+001  0.000000e+000
      vertex  6.382684e+001 -9.238795e+000  0.000000e+000
    endloop
  endfacet
  facet normal  0.000000e+000  -0.000000e+000 -1.000000e+000
    outer loop
      vertex  5.468885e+001 -8.669128e+001  0.000000e+000
      vertex  6.382684e+001 -9.238795e+000  0.000000e+000
      vertex  6.408002e+001 -8.000000e+001  0.000000e+000
    endloop
  endfacet
  facet normal  -0.000000e+000  -0.000000e+000 -1.000000e+000
    outer loop
      vertex  1.000000e+001  0.000000e+000  0.000000e+000
      vertex  5.000000e+001  0.000000e+000  0.000000e+000
      vertex  5.076120e+001 -3.826834e+000  0.000000e+000
    endloop
  endfacet
  facet normal  -0.000000e+000  0.000000e+000 -1.000000e+000
    outer loop
      vertex  1.000000e+001  0.000000e+000  0.000000e+000
      vertex  5.076120e+001 -3.826834e+000  0.000000e+000
      vertex  4.460554e+001 -9.228541e+001  0.000000e+000
    endloop
  endfacet
  facet normal  -0.000000e+000  0.000000e+000 -1.000000e+000
    outer loop
      vertex  1.000000e+001  0.000000e+000  0.000000e+000
      vertex  4.460554e+001 -9.228541e+001  0.000000e+000
      vertex  3.395770e+001 -9.671156e+001  0.000000e+000
    endloop
  endfacet
  facet normal  -0.000000e+000  0.000000e+000 -1.000000e+000
    outer loop
      vertex  1.000000e+001  0.000000e+000  0.000000e+000
      vertex  3.395770e+001 -9.671156e+001  0.000000e+000
      vertex  2.288008e+001 -9.991372e+001  0.000000e+000
    endloop
  endfacet
  facet normal  -0.000000e+000  0.000000e+000 -1.000000e+000
    outer loop
      vertex  1.000000e+001  0.000000e+000  0.000000e+000
      vertex  2.288008e+001 -9.991372e+001  0.000000e+000
      vertex  1.151289e+001 -1.018514e+002  0.000000e+000
    endloop
  endfacet
  facet normal  0.000000e+000  0.000000e+000 -9.999999e-001
    outer loop
      vertex  1.000000e+001  0.000000e+000  0.000000e+000
      vertex  1.151289e+001 -1.018514e+002  0.000000e+000
      vertex  1.000000e+001 -2.022500e+001  0.000000e+000
    endloop
  endfacet
  facet normal  -0.000000e+000  0.000000e+000 -1.000000e+000
    outer loop
      vertex  0.000000e+000 -2.022500e+001  0.000000e+000
      vertex  1.000000e+001 -2.022500e+001  0.000000e+000
      vertex  0.000000e+000 -1.025000e+002  0.000000e+000
    endloop
  endfacet
  facet normal  0.000000e+000  0.000000e+000 -1.000000e+000
    outer loop
      vertex  0.000000e+000 -1.025000e+002  0.000000e+000
      vertex  1.000000e+001 -2.022500e+001  0.000000e+000
      vertex  1.151289e+001 -1.018514e+002  0.000000e+000
    endloop
  endfacet
  facet normal -1.000000e+000 -5.006183e-014 -4.707236e-016
    outer loop
      vertex  0.000000e+000 -1.025000e+002  0.000000e+000
      vertex -1.882894e-014 -1.025000e+002  4.000000e+001
      vertex -1.940453e-013 -9.900000e+001  4.000000e+001
    endloop
  endfacet
  facet normal -1.000000e+000  6.982010e-015 -5.462059e-015
    outer loop
      vertex  0.000000e+000 -1.025000e+002  0.000000e+000
      vertex -1.940453e-013 -9.900000e+001  4.000000e+001
      vertex -9.190482e-014 -9.900000e+001  2.130000e+001
    endloop
  endfacet
  facet normal -1.000000e+000  1.076476e-015 -4.491666e-015
    outer loop
      vertex  0.000000e+000 -1.025000e+002  0.000000e+000
      vertex -9.190482e-014 -9.900000e+001  2.130000e+001
      vertex -7.105427e-015 -2.022500e+001  2.130000e+001
    endloop
  endfacet
  facet normal -9.999999e-001  0.000000e+000 -3.335881e-016
    outer loop
      vertex  0.000000e+000 -1.025000e+002  0.000000e+000
      vertex -7.105427e-015 -2.022500e+001  2.130000e+001
      vertex  0.000000e+000 -2.022500e+001  0.000000e+000
    endloop
  endfacet
  facet normal  9.836147e-001 -1.802542e-001  3.233635e-003
    outer loop
      vertex  1.017527e+002 -1.235501e+001  4.000000e+001
      vertex  9.952154e+001 -2.452986e+001  4.000000e+001
      vertex  1.001447e+002 -2.184699e+001  0.000000e+000
    endloop
  endfacet
  facet normal  9.641698e-001 -2.652715e-001 -2.771542e-003
    outer loop
      vertex  9.722599e+001 -3.245546e+001  0.000000e+000
      vertex  1.001447e+002 -2.184699e+001  0.000000e+000
      vertex  9.952154e+001 -2.452986e+001  4.000000e+001
    endloop
  endfacet
  facet normal  9.547125e-001 -2.975006e-001  4.157071e-003
    outer loop
      vertex  9.952154e+001 -2.452986e+001  4.000000e+001
      vertex  9.583916e+001 -3.634700e+001  4.000000e+001
      vertex  9.722599e+001 -3.245546e+001  0.000000e+000
    endloop
  endfacet
  facet normal  9.301791e-001 -3.670897e-001 -3.463749e-003
    outer loop
      vertex  9.318700e+001 -4.268996e+001  0.000000e+000
      vertex  9.722599e+001 -3.245546e+001  0.000000e+000
      vertex  9.583916e+001 -3.634700e+001  4.000000e+001
    endloop
  endfacet
  facet normal  9.118900e-001 -4.104086e-001  4.618134e-003
    outer loop
      vertex  9.583916e+001 -3.634700e+001  4.000000e+001
      vertex  9.075924e+001 -4.763412e+001  4.000000e+001
      vertex  9.318700e+001 -4.268996e+001  0.000000e+000
    endloop
  endfacet
  facet normal  8.854716e-001 -4.646788e-001 -3.693323e-003
    outer loop
      vertex  9.318700e+001 -4.268996e+001  0.000000e+000
      vertex  9.075924e+001 -4.763412e+001  4.000000e+001
      vertex  8.807427e+001 -5.243256e+001  0.000000e+000
    endloop
  endfacet
  facet normal  8.557721e-001 -5.173324e-001  4.616598e-003
    outer loop
      vertex  8.807427e+001 -5.243256e+001  0.000000e+000
      vertex  9.075924e+001 -4.763412e+001  4.000000e+001
      vertex  8.435584e+001 -5.822663e+001  4.000000e+001
    endloop
  endfacet
  facet normal  8.305628e-001 -5.569144e-001 -3.460418e-003
    outer loop
      vertex  8.807427e+001 -5.243256e+001  0.000000e+000
      vertex  8.435584e+001 -5.822663e+001  4.000000e+001
      vertex  8.194670e+001 -6.157100e+001  0.000000e+000
    endloop
  endfacet
  facet normal  7.871768e-001 -6.167135e-001  4.152411e-003
    outer loop
      vertex  8.194670e+001 -6.157100e+001  0.000000e+000
      vertex  8.435584e+001 -5.822663e+001  4.000000e+001
      vertex  7.672235e+001 -6.797007e+001  4.000000e+001
    endloop
  endfacet
  facet normal  5.173333e-001 -8.557736e-001  4.209944e-003
    outer loop
      vertex  5.468885e+001 -8.669128e+001  0.000000e+000
      vertex  5.822663e+001 -8.435584e+001  4.000000e+001
      vertex  4.763412e+001 -9.075924e+001  4.000000e+001
    endloop
  endfacet
  facet normal  4.851288e-001 -8.744364e-001 -3.367888e-003
    outer loop
      vertex  5.468885e+001 -8.669128e+001  0.000000e+000
      vertex  4.763412e+001 -9.075924e+001  4.000000e+001
      vertex  4.460554e+001 -9.228541e+001  0.000000e+000
    endloop
  endfacet
  facet normal  4.104102e-001 -9.118934e-001  3.718544e-003
    outer loop
      vertex  4.460554e+001 -9.228541e+001  0.000000e+000
      vertex  4.763412e+001 -9.075924e+001  4.000000e+001
      vertex  3.634700e+001 -9.583916e+001  4.000000e+001
    endloop
  endfacet
  facet normal  3.838412e-001 -9.233949e-001 -2.788814e-003
    outer loop
      vertex  4.460554e+001 -9.228541e+001  0.000000e+000
      vertex  3.634700e+001 -9.583916e+001  4.000000e+001
      vertex  3.395770e+001 -9.671156e+001  0.000000e+000
    endloop
  endfacet
  facet normal  2.975018e-001 -9.547163e-001  3.051578e-003
    outer loop
      vertex  3.395770e+001 -9.671156e+001  0.000000e+000
      vertex  3.634700e+001 -9.583916e+001  4.000000e+001
      vertex  2.452986e+001 -9.952154e+001  4.000000e+001
    endloop
  endfacet
  facet normal  2.776963e-001 -9.606668e-001 -2.034527e-003
    outer loop
      vertex  3.395770e+001 -9.671156e+001  0.000000e+000
      vertex  2.452986e+001 -9.952154e+001  4.000000e+001
      vertex  2.288008e+001 -9.991372e+001  0.000000e+000
    endloop
  endfacet
  facet normal  1.802547e-001 -9.836175e-001  2.209412e-003
    outer loop
      vertex  2.288008e+001 -9.991372e+001  0.000000e+000
      vertex  2.452986e+001 -9.952154e+001  4.000000e+001
      vertex  1.235501e+001 -1.017527e+002  4.000000e+001
    endloop
  endfacet
  facet normal  6.527970e-001 -7.575316e-001 -1.412177e-003
    outer loop
      vertex  6.408002e+001 -8.000000e+001  0.000000e+000
      vertex  6.965714e+001 -7.519396e+001  0.000000e+000
      vertex  6.797007e+001 -7.672235e+001  4.000000e+001
    endloop
  endfacet
  facet normal  6.167125e-001 -7.871755e-001  4.526143e-003
    outer loop
      vertex  6.408002e+001 -8.000000e+001  0.000000e+000
      vertex  6.797007e+001 -7.672235e+001  4.000000e+001
      vertex  5.822663e+001 -8.435584e+001  4.000000e+001
    endloop
  endfacet
  facet normal  5.802750e-001 -8.144119e-001 -3.771857e-003
    outer loop
      vertex  6.408002e+001 -8.000000e+001  0.000000e+000
      vertex  5.822663e+001 -8.435584e+001  4.000000e+001
      vertex  5.468885e+001 -8.669128e+001  0.000000e+000
    endloop
  endfacet
  facet normal  9.985586e-001 -5.367164e-002  4.449984e-018
    outer loop
      vertex  1.025000e+002 -2.842171e-014  0.000000e+000
      vertex  1.025000e+002 -2.510526e-014  4.000000e+001
      vertex  1.019095e+002 -1.098679e+001  0.000000e+000
    endloop
  endfacet
  facet normal  9.981738e-001 -6.037814e-002  1.847755e-003
    outer loop
      vertex  1.019095e+002 -1.098679e+001  0.000000e+000
      vertex  1.025000e+002 -2.510526e-014  4.000000e+001
      vertex  1.017527e+002 -1.235501e+001  4.000000e+001
    endloop
  endfacet
  facet normal  9.870515e-001 -1.603955e-001 -1.616982e-003
    outer loop
      vertex  1.019095e+002 -1.098679e+001  0.000000e+000
      vertex  1.017527e+002 -1.235501e+001  4.000000e+001
      vertex  1.001447e+002 -2.184699e+001  0.000000e+000
    endloop
  endfacet
  facet normal  7.071040e-001 -7.071040e-001  2.805149e-003
    outer loop
      vertex  6.797007e+001 -7.672235e+001  4.000000e+001
      vertex  6.965714e+001 -7.519396e+001  0.000000e+000
      vertex  7.672235e+001 -6.797007e+001  4.000000e+001
    endloop
  endfacet
  facet normal  7.054853e-001 -7.087165e-001  3.382263e-003
    outer loop
      vertex  7.672235e+001 -6.797007e+001  4.000000e+001
      vertex  6.965714e+001 -7.519396e+001  0.000000e+000
      vertex  7.487489e+001 -7.000000e+001  0.000000e+000
    endloop
  endfacet
  facet normal  7.660845e-001 -6.427339e-001 -2.765096e-003
    outer loop
      vertex  7.672235e+001 -6.797007e+001  4.000000e+001
      vertex  7.487489e+001 -7.000000e+001  0.000000e+000
      vertex  8.194670e+001 -6.157100e+001  0.000000e+000
    endloop
  endfacet
  facet normal  6.037825e-002 -9.981755e-001  2.842147e-017
    outer loop
      vertex -1.882894e-014 -1.025000e+002  4.000000e+001
      vertex  0.000000e+000 -1.025000e+002  0.000000e+000
      vertex  1.235501e+001 -1.017527e+002  4.000000e+001
    endloop
  endfacet
  facet normal  5.624938e-002 -9.984159e-001  1.279796e-003
    outer loop
      vertex  1.235501e+001 -1.017527e+002  4.000000e+001
      vertex  0.000000e+000 -1.025000e+002  0.000000e+000
      vertex  1.151289e+001 -1.018514e+002  0.000000e+000
    endloop
  endfacet
  facet normal  1.680369e-001 -9.857801e-001 -1.104841e-003
    outer loop
      vertex  1.235501e+001 -1.017527e+002  4.000000e+001
      vertex  1.151289e+001 -1.018514e+002  0.000000e+000
      vertex  2.288008e+001 -9.991372e+001  0.000000e+000
    endloop
  endfacet
  facet normal  0.000000e+000  1.000000e+000  0.000000e+000
    outer loop
      vertex  1.000000e+001 -2.022500e+001  0.000000e+000
      vertex  0.000000e+000 -2.022500e+001  0.000000e+000
      vertex  1.000000e+001 -2.022500e+001  2.130000e+001
    endloop
  endfacet
  facet normal  0.000000e+000  1.000000e+000  0.000000e+000
    outer loop
      vertex  1.000000e+001 -2.022500e+001  2.130000e+001
      vertex  0.000000e+000 -2.022500e+001  0.000000e+000
      vertex -7.105427e-015 -2.022500e+001  2.130000e+001
    endloop
  endfacet
  facet normal -1.000000e+000  0.000000e+000  0.000000e+000
    outer loop
      vertex  1.000000e+001  0.000000e+000  0.000000e+000
      vertex  1.000000e+001 -2.022500e+001  0.000000e+000
      vertex  1.000000e+001  0.000000e+000  2.130000e+001
    endloop
  endfacet
  facet normal -1.000000e+000  -0.000000e+000  0.000000e+000
    outer loop
      vertex  1.000000e+001  0.000000e+000  2.130000e+001
      vertex  1.000000e+001 -2.022500e+001  0.000000e+000
      vertex  1.000000e+001 -2.022500e+001  2.130000e+001
    endloop
  endfacet
  facet normal -1.950903e-001  9.807853e-001  0.000000e+000
    outer loop
      vertex  6.000000e+001 -1.000000e+001  0.000000e+000
      vertex  6.382684e+001 -9.238795e+000  2.130000e+001
      vertex  6.382684e+001 -9.238795e+000  0.000000e+000
    endloop
  endfacet
  facet normal -5.555704e-001  8.314695e-001  0.000000e+000
    outer loop
      vertex  6.382684e+001 -9.238795e+000  0.000000e+000
      vertex  6.382684e+001 -9.238795e+000  2.130000e+001
      vertex  6.707107e+001 -7.071068e+000  2.130000e+001
    endloop
  endfacet
  facet normal -5.555704e-001  8.314695e-001  0.000000e+000
    outer loop
      vertex  6.382684e+001 -9.238795e+000  0.000000e+000
      vertex  6.707107e+001 -7.071068e+000  2.130000e+001
      vertex  6.707107e+001 -7.071068e+000  0.000000e+000
    endloop
  endfacet
  facet normal -8.314699e-001  5.555697e-001  0.000000e+000
    outer loop
      vertex  6.707107e+001 -7.071068e+000  0.000000e+000
      vertex  6.707107e+001 -7.071068e+000  2.130000e+001
      vertex  6.923879e+001 -3.826834e+000  2.130000e+001
    endloop
  endfacet
  facet normal -8.314699e-001  5.555697e-001  0.000000e+000
    outer loop
      vertex  6.707107e+001 -7.071068e+000  0.000000e+000
      vertex  6.923879e+001 -3.826834e+000  2.130000e+001
      vertex  6.923879e+001 -3.826834e+000  0.000000e+000
    endloop
  endfacet
  facet normal -9.807852e-001  1.950910e-001  0.000000e+000
    outer loop
      vertex  6.923879e+001 -3.826834e+000  0.000000e+000
      vertex  6.923879e+001 -3.826834e+000  2.130000e+001
      vertex  7.000000e+001  0.000000e+000  2.130000e+001
    endloop
  endfacet
  facet normal -9.807852e-001  1.950910e-001  0.000000e+000
    outer loop
      vertex  6.923879e+001 -3.826834e+000  0.000000e+000
      vertex  7.000000e+001  0.000000e+000  2.130000e+001
      vertex  7.000000e+001  0.000000e+000  0.000000e+000
    endloop
  endfacet
  facet normal -1.950903e-001  9.807853e-001  0.000000e+000
    outer loop
      vertex  6.382684e+001 -9.238795e+000  2.130000e+001
      vertex  6.000000e+001 -1.000000e+001  0.000000e+000
      vertex  6.000000e+001 -1.000000e+001  2.130000e+001
    endloop
  endfacet
  facet normal  1.950903e-001  9.807853e-001  0.000000e+000
    outer loop
      vertex  6.000000e+001 -1.000000e+001  2.130000e+001
      vertex  6.000000e+001 -1.000000e+001  0.000000e+000
      vertex  5.617316e+001 -9.238795e+000  0.000000e+000
    endloop
  endfacet
  facet normal  1.950903e-001  9.807853e-001  -0.000000e+000
    outer loop
      vertex  6.000000e+001 -1.000000e+001  2.130000e+001
      vertex  5.617316e+001 -9.238795e+000  0.000000e+000
      vertex  5.617316e+001 -9.238795e+000  2.130000e+001
    endloop
  endfacet
  facet normal  5.555704e-001  8.314695e-001  0.000000e+000
    outer loop
      vertex  5.617316e+001 -9.238795e+000  2.130000e+001
      vertex  5.617316e+001 -9.238795e+000  0.000000e+000
      vertex  5.292893e+001 -7.071068e+000  0.000000e+000
    endloop
  endfacet
  facet normal  5.555704e-001  8.314695e-001  -0.000000e+000
    outer loop
      vertex  5.617316e+001 -9.238795e+000  2.130000e+001
      vertex  5.292893e+001 -7.071068e+000  0.000000e+000
      vertex  5.292893e+001 -7.071068e+000  2.130000e+001
    endloop
  endfacet
  facet normal  8.314695e-001  5.555704e-001  0.000000e+000
    outer loop
      vertex  5.292893e+001 -7.071068e+000  2.130000e+001
      vertex  5.292893e+001 -7.071068e+000  0.000000e+000
      vertex  5.076120e+001 -3.826834e+000  0.000000e+000
    endloop
  endfacet
  facet normal  8.314695e-001  5.555704e-001  -0.000000e+000
    outer loop
      vertex  5.292893e+001 -7.071068e+000  2.130000e+001
      vertex  5.076120e+001 -3.826834e+000  0.000000e+000
      vertex  5.076120e+001 -3.826834e+000  2.130000e+001
    endloop
  endfacet
  facet normal  9.807853e-001  1.950901e-001  0.000000e+000
    outer loop
      vertex  5.076120e+001 -3.826834e+000  2.130000e+001
      vertex  5.076120e+001 -3.826834e+000  0.000000e+000
      vertex  5.000000e+001  0.000000e+000  0.000000e+000
    endloop
  endfacet
  facet normal  9.807853e-001  1.950901e-001 -1.121673e-017
    outer loop
      vertex  5.076120e+001 -3.826834e+000  2.130000e+001
      vertex  5.000000e+001  0.000000e+000  0.000000e+000
      vertex  5.000000e+001  1.224647e-015  2.130000e+001
    endloop
  endfacet
  facet normal  8.745141e-016  1.000000e+000  0.000000e+000
    outer loop
      vertex  7.000000e+001  0.000000e+000  0.000000e+000
      vertex  7.000000e+001  0.000000e+000  2.130000e+001
      vertex  1.025000e+002 -2.842171e-014  0.000000e+000
    endloop
  endfacet
  facet normal  0.000000e+000  1.000000e+000 -1.334352e-015
    outer loop
      vertex  1.025000e+002 -2.842171e-014  0.000000e+000
      vertex  7.000000e+001  0.000000e+000  2.130000e+001
      vertex  9.900000e+001  0.000000e+000  2.130000e+001
    endloop
  endfacet
  facet normal  7.615915e-015  1.000000e+000 -8.291126e-017
    outer loop
      vertex  1.025000e+002 -2.842171e-014  0.000000e+000
      vertex  9.900000e+001  0.000000e+000  2.130000e+001
      vertex  1.025000e+002 -2.510526e-014  4.000000e+001
    endloop
  endfacet
  facet normal  7.172931e-015  1.000000e+000  0.000000e+000
    outer loop
      vertex  1.025000e+002 -2.510526e-014  4.000000e+001
      vertex  9.900000e+001  0.000000e+000  2.130000e+001
      vertex  9.900000e+001  0.000000e+000  4.000000e+001
    endloop
  endfacet
  facet normal -3.061617e-017  1.000000e+000  0.000000e+000
    outer loop
      vertex  1.000000e+001  0.000000e+000  2.130000e+001
      vertex  5.000000e+001  1.224647e-015  2.130000e+001
      vertex  1.000000e+001  0.000000e+000  0.000000e+000
    endloop
  endfacet
  facet normal  0.000000e+000  1.000000e+000 -5.749516e-017
    outer loop
      vertex  1.000000e+001  0.000000e+000  0.000000e+000
      vertex  5.000000e+001  1.224647e-015  2.130000e+001
      vertex  5.000000e+001  0.000000e+000  0.000000e+000
    endloop
  endfacet
  facet normal  -0.000000e+000  0.000000e+000  1.000000e+000
    outer loop
      vertex  1.000000e+001 -2.022500e+001  2.130000e+001
      vertex -7.105427e-015 -2.022500e+001  2.130000e+001
      vertex  9.612324e+001 -2.369225e+001  2.130000e+001
    endloop
  endfacet
  facet normal  0.000000e+000  -0.000000e+000  1.000000e+000
    outer loop
      vertex  1.000000e+001 -2.022500e+001  2.130000e+001
      vertex  9.612324e+001 -2.369225e+001  2.130000e+001
      vertex  9.827818e+001 -1.193313e+001  2.130000e+001
    endloop
  endfacet
  facet normal  0.000000e+000  0.000000e+000  1.000000e+000
    outer loop
      vertex  1.000000e+001 -2.022500e+001  2.130000e+001
      vertex  9.827818e+001 -1.193313e+001  2.130000e+001
      vertex  6.000000e+001 -1.000000e+001  2.130000e+001
    endloop
  endfacet
  facet normal  0.000000e+000  0.000000e+000  1.000000e+000
    outer loop
      vertex  1.000000e+001 -2.022500e+001  2.130000e+001
      vertex  6.000000e+001 -1.000000e+001  2.130000e+001
      vertex  5.617316e+001 -9.238795e+000  2.130000e+001
    endloop
  endfacet
  facet normal  0.000000e+000  0.000000e+000  1.000000e+000
    outer loop
      vertex  1.000000e+001 -2.022500e+001  2.130000e+001
      vertex  5.617316e+001 -9.238795e+000  2.130000e+001
      vertex  5.292893e+001 -7.071068e+000  2.130000e+001
    endloop
  endfacet
  facet normal  0.000000e+000  0.000000e+000  9.999999e-001
    outer loop
      vertex  1.000000e+001 -2.022500e+001  2.130000e+001
      vertex  5.292893e+001 -7.071068e+000  2.130000e+001
      vertex  5.076120e+001 -3.826834e+000  2.130000e+001
    endloop
  endfacet
  facet normal  0.000000e+000  0.000000e+000  9.999999e-001
    outer loop
      vertex  1.000000e+001 -2.022500e+001  2.130000e+001
      vertex  5.076120e+001 -3.826834e+000  2.130000e+001
      vertex  5.000000e+001  1.224647e-015  2.130000e+001
    endloop
  endfacet
  facet normal  0.000000e+000  0.000000e+000  1.000000e+000
    outer loop
      vertex  1.000000e+001 -2.022500e+001  2.130000e+001
      vertex  5.000000e+001  1.224647e-015  2.130000e+001
      vertex  1.000000e+001  0.000000e+000  2.130000e+001
    endloop
  endfacet
  facet normal  0.000000e+000  0.000000e+000  1.000000e+000
    outer loop
      vertex  9.827818e+001 -1.193313e+001  2.130000e+001
      vertex  9.900000e+001  0.000000e+000  2.130000e+001
      vertex  7.000000e+001  0.000000e+000  2.130000e+001
    endloop
  endfacet
  facet normal  0.000000e+000  0.000000e+000  9.999999e-001
    outer loop
      vertex  9.827818e+001 -1.193313e+001  2.130000e+001
      vertex  7.000000e+001  0.000000e+000  2.130000e+001
      vertex  6.923879e+001 -3.826834e+000  2.130000e+001
    endloop
  endfacet
  facet normal  0.000000e+000  0.000000e+000  1.000000e+000
    outer loop
      vertex  9.827818e+001 -1.193313e+001  2.130000e+001
      vertex  6.923879e+001 -3.826834e+000  2.130000e+001
      vertex  6.707107e+001 -7.071068e+000  2.130000e+001
    endloop
  endfacet
  facet normal  0.000000e+000  0.000000e+000  9.999999e-001
    outer loop
      vertex  9.827818e+001 -1.193313e+001  2.130000e+001
      vertex  6.707107e+001 -7.071068e+000  2.130000e+001
      vertex  6.382684e+001 -9.238795e+000  2.130000e+001
    endloop
  endfacet
  facet normal  0.000000e+000  0.000000e+000  1.000000e+000
    outer loop
      vertex  9.827818e+001 -1.193313e+001  2.130000e+001
      vertex  6.382684e+001 -9.238795e+000  2.130000e+001
      vertex  6.000000e+001 -1.000000e+001  2.130000e+001
    endloop
  endfacet
  facet normal  0.000000e+000  -0.000000e+000  1.000000e+000
    outer loop
      vertex -9.190482e-014 -9.900000e+001  2.130000e+001
      vertex  1.193313e+001 -9.827818e+001  2.130000e+001
      vertex  2.369225e+001 -9.612324e+001  2.130000e+001
    endloop
  endfacet
  facet normal  0.000000e+000  -0.000000e+000  1.000000e+000
    outer loop
      vertex -9.190482e-014 -9.900000e+001  2.130000e+001
      vertex  2.369225e+001 -9.612324e+001  2.130000e+001
      vertex  3.510588e+001 -9.256660e+001  2.130000e+001
    endloop
  endfacet
  facet normal  0.000000e+000  -0.000000e+000  9.999999e-001
    outer loop
      vertex -9.190482e-014 -9.900000e+001  2.130000e+001
      vertex  3.510588e+001 -9.256660e+001  2.130000e+001
      vertex  4.600760e+001 -8.766015e+001  2.130000e+001
    endloop
  endfacet
  facet normal  0.000000e+000  -0.000000e+000  1.000000e+000
    outer loop
      vertex -9.190482e-014 -9.900000e+001  2.130000e+001
      vertex  4.600760e+001 -8.766015e+001  2.130000e+001
      vertex  5.623841e+001 -8.147540e+001  2.130000e+001
    endloop
  endfacet
  facet normal  0.000000e+000  -0.000000e+000  1.000000e+000
    outer loop
      vertex -9.190482e-014 -9.900000e+001  2.130000e+001
      vertex  5.623841e+001 -8.147540e+001  2.130000e+001
      vertex  6.564914e+001 -7.410256e+001  2.130000e+001
    endloop
  endfacet
  facet normal  0.000000e+000  -0.000000e+000  1.000000e+000
    outer loop
      vertex -9.190482e-014 -9.900000e+001  2.130000e+001
      vertex  6.564914e+001 -7.410256e+001  2.130000e+001
      vertex  7.410256e+001 -6.564914e+001  2.130000e+001
    endloop
  endfacet
  facet normal  0.000000e+000  -0.000000e+000  1.000000e+000
    outer loop
      vertex -9.190482e-014 -9.900000e+001  2.130000e+001
      vertex  7.410256e+001 -6.564914e+001  2.130000e+001
      vertex  8.147540e+001 -5.623841e+001  2.130000e+001
    endloop
  endfacet
  facet normal  0.000000e+000  -0.000000e+000  1.000000e+000
    outer loop
      vertex -9.190482e-014 -9.900000e+001  2.130000e+001
      vertex  8.147540e+001 -5.623841e+001  2.130000e+001
      vertex  8.766015e+001 -4.600760e+001  2.130000e+001
    endloop
  endfacet
  facet normal  0.000000e+000  -0.000000e+000  1.000000e+000
    outer loop
      vertex -9.190482e-014 -9.900000e+001  2.130000e+001
      vertex  8.766015e+001 -4.600760e+001  2.130000e+001
      vertex  9.256660e+001 -3.510588e+001  2.130000e+001
    endloop
  endfacet
  facet normal  0.000000e+000  -0.000000e+000  1.000000e+000
    outer loop
      vertex -9.190482e-014 -9.900000e+001  2.130000e+001
      vertex  9.256660e+001 -3.510588e+001  2.130000e+001
      vertex  9.612324e+001 -2.369225e+001  2.130000e+001
    endloop
  endfacet
  facet normal  0.000000e+000  0.000000e+000  1.000000e+000
    outer loop
      vertex -9.190482e-014 -9.900000e+001  2.130000e+001
      vertex  9.612324e+001 -2.369225e+001  2.130000e+001
      vertex -7.105427e-015 -2.022500e+001  2.130000e+001
    endloop
  endfacet
  facet normal  0.000000e+000  0.000000e+000  1.000000e+000
    outer loop
      vertex  1.025000e+002 -2.510526e-014  4.000000e+001
      vertex  9.900000e+001  0.000000e+000  4.000000e+001
      vertex  1.017527e+002 -1.235501e+001  4.000000e+001
    endloop
  endfacet
  facet normal  0.000000e+000  0.000000e+000  1.000000e+000
    outer loop
      vertex  1.017527e+002 -1.235501e+001  4.000000e+001
      vertex  9.900000e+001  0.000000e+000  4.000000e+001
      vertex  9.827818e+001 -1.193313e+001  4.000000e+001
    endloop
  endfacet
  facet normal  0.000000e+000  0.000000e+000  9.999999e-001
    outer loop
      vertex  1.017527e+002 -1.235501e+001  4.000000e+001
      vertex  9.827818e+001 -1.193313e+001  4.000000e+001
      vertex  9.952154e+001 -2.452986e+001  4.000000e+001
    endloop
  endfacet
  facet normal  0.000000e+000  0.000000e+000  1.000000e+000
    outer loop
      vertex  9.952154e+001 -2.452986e+001  4.000000e+001
      vertex  9.827818e+001 -1.193313e+001  4.000000e+001
      vertex  9.612324e+001 -2.369225e+001  4.000000e+001
    endloop
  endfacet
  facet normal  0.000000e+000  0.000000e+000  1.000000e+000
    outer loop
      vertex  9.952154e+001 -2.452986e+001  4.000000e+001
      vertex  9.612324e+001 -2.369225e+001  4.000000e+001
      vertex  9.583916e+001 -3.634700e+001  4.000000e+001
    endloop
  endfacet
  facet normal  0.000000e+000  -0.000000e+000  1.000000e+000
    outer loop
      vertex  9.583916e+001 -3.634700e+001  4.000000e+001
      vertex  9.612324e+001 -2.369225e+001  4.000000e+001
      vertex  9.256660e+001 -3.510588e+001  4.000000e+001
    endloop
  endfacet
  facet normal  0.000000e+000  0.000000e+000  9.999999e-001
    outer loop
      vertex  9.583916e+001 -3.634700e+001  4.000000e+001
      vertex  9.256660e+001 -3.510588e+001  4.000000e+001
      vertex  9.075924e+001 -4.763412e+001  4.000000e+001
    endloop
  endfacet
  facet normal  0.000000e+000  -0.000000e+000  1.000000e+000
    outer loop
      vertex  9.075924e+001 -4.763412e+001  4.000000e+001
      vertex  9.256660e+001 -3.510588e+001  4.000000e+001
      vertex  8.766015e+001 -4.600760e+001  4.000000e+001
    endloop
  endfacet
  facet normal  0.000000e+000  0.000000e+000  1.000000e+000
    outer loop
      vertex  9.075924e+001 -4.763412e+001  4.000000e+001
      vertex  8.766015e+001 -4.600760e+001  4.000000e+001
      vertex  8.435584e+001 -5.822663e+001  4.000000e+001
    endloop
  endfacet
  facet normal  0.000000e+000  -0.000000e+000  1.000000e+000
    outer loop
      vertex  8.435584e+001 -5.822663e+001  4.000000e+001
      vertex  8.766015e+001 -4.600760e+001  4.000000e+001
      vertex  8.147540e+001 -5.623841e+001  4.000000e+001
    endloop
  endfacet
  facet normal  0.000000e+000  0.000000e+000  1.000000e+000
    outer loop
      vertex  8.435584e+001 -5.822663e+001  4.000000e+001
      vertex  8.147540e+001 -5.623841e+001  4.000000e+001
      vertex  7.672235e+001 -6.797007e+001  4.000000e+001
    endloop
  endfacet
  facet normal  0.000000e+000  -0.000000e+000  1.000000e+000
    outer loop
      vertex  7.672235e+001 -6.797007e+001  4.000000e+001
      vertex  8.147540e+001 -5.623841e+001  4.000000e+001
      vertex  7.410256e+001 -6.564914e+001  4.000000e+001
    endloop
  endfacet
  facet normal  0.000000e+000  0.000000e+000  9.999999e-001
    outer loop
      vertex  7.672235e+001 -6.797007e+001  4.000000e+001
      vertex  7.410256e+001 -6.564914e+001  4.000000e+001
      vertex  6.797007e+001 -7.672235e+001  4.000000e+001
    endloop
  endfacet
  facet normal  0.000000e+000  -0.000000e+000  1.000000e+000
    outer loop
      vertex  6.797007e+001 -7.672235e+001  4.000000e+001
      vertex  7.410256e+001 -6.564914e+001  4.000000e+001
      vertex  6.564914e+001 -7.410256e+001  4.000000e+001
    endloop
  endfacet
  facet normal  0.000000e+000  0.000000e+000  1.000000e+000
    outer loop
      vertex  6.797007e+001 -7.672235e+001  4.000000e+001
      vertex  6.564914e+001 -7.410256e+001  4.000000e+001
      vertex  5.822663e+001 -8.435584e+001  4.000000e+001
    endloop
  endfacet
  facet normal  0.000000e+000  -0.000000e+000  9.999999e-001
    outer loop
      vertex  5.822663e+001 -8.435584e+001  4.000000e+001
      vertex  6.564914e+001 -7.410256e+001  4.000000e+001
      vertex  5.623841e+001 -8.147540e+001  4.000000e+001
    endloop
  endfacet
  facet normal  0.000000e+000  0.000000e+000  1.000000e+000
    outer loop
      vertex  5.822663e+001 -8.435584e+001  4.000000e+001
      vertex  5.623841e+001 -8.147540e+001  4.000000e+001
      vertex  4.763412e+001 -9.075924e+001  4.000000e+001
    endloop
  endfacet
  facet normal  0.000000e+000  -0.000000e+000  1.000000e+000
    outer loop
      vertex  4.763412e+001 -9.075924e+001  4.000000e+001
      vertex  5.623841e+001 -8.147540e+001  4.000000e+001
      vertex  4.600760e+001 -8.766015e+001  4.000000e+001
    endloop
  endfacet
  facet normal  0.000000e+000  0.000000e+000  1.000000e+000
    outer loop
      vertex  4.763412e+001 -9.075924e+001  4.000000e+001
      vertex  4.600760e+001 -8.766015e+001  4.000000e+001
      vertex  3.510588e+001 -9.256660e+001  4.000000e+001
    endloop
  endfacet
  facet normal  -0.000000e+000  0.000000e+000  9.999999e-001
    outer loop
      vertex  4.763412e+001 -9.075924e+001  4.000000e+001
      vertex  3.510588e+001 -9.256660e+001  4.000000e+001
      vertex  3.634700e+001 -9.583916e+001  4.000000e+001
    endloop
  endfacet
  facet normal  0.000000e+000  0.000000e+000  1.000000e+000
    outer loop
      vertex  3.634700e+001 -9.583916e+001  4.000000e+001
      vertex  3.510588e+001 -9.256660e+001  4.000000e+001
      vertex  2.369225e+001 -9.612324e+001  4.000000e+001
    endloop
  endfacet
  facet normal  -0.000000e+000  0.000000e+000  1.000000e+000
    outer loop
      vertex  3.634700e+001 -9.583916e+001  4.000000e+001
      vertex  2.369225e+001 -9.612324e+001  4.000000e+001
      vertex  2.452986e+001 -9.952154e+001  4.000000e+001
    endloop
  endfacet
  facet normal  0.000000e+000  0.000000e+000  1.000000e+000
    outer loop
      vertex  2.452986e+001 -9.952154e+001  4.000000e+001
      vertex  2.369225e+001 -9.612324e+001  4.000000e+001
      vertex  1.193313e+001 -9.827818e+001  4.000000e+001
    endloop
  endfacet
  facet normal  0.000000e+000  0.000000e+000  1.000000e+000
    outer loop
      vertex  2.452986e+001 -9.952154e+001  4.000000e+001
      vertex  1.193313e+001 -9.827818e+001  4.000000e+001
      vertex -1.940453e-013 -9.900000e+001  4.000000e+001
    endloop
  endfacet
  facet normal  0.000000e+000  0.000000e+000  1.000000e+000
    outer loop
      vertex -1.882894e-014 -1.025000e+002  4.000000e+001
      vertex  1.235501e+001 -1.017527e+002  4.000000e+001
      vertex -1.940453e-013 -9.900000e+001  4.000000e+001
    endloop
  endfacet
  facet normal  0.000000e+000  0.000000e+000  1.000000e+000
    outer loop
      vertex -1.940453e-013 -9.900000e+001  4.000000e+001
      vertex  1.235501e+001 -1.017527e+002  4.000000e+001
      vertex  2.452986e+001 -9.952154e+001  4.000000e+001
    endloop
  endfacet
  facet normal -7.871832e-001  6.167192e-001  0.000000e+000
    outer loop
      vertex  7.410256e+001 -6.564914e+001  2.130000e+001
      vertex  8.147540e+001 -5.623841e+001  4.000000e+001
      vertex  8.147540e+001 -5.623841e+001  2.130000e+001
    endloop
  endfacet
  facet normal -8.557811e-001  5.173379e-001  0.000000e+000
    outer loop
      vertex  8.147540e+001 -5.623841e+001  2.130000e+001
      vertex  8.147540e+001 -5.623841e+001  4.000000e+001
      vertex  8.766015e+001 -4.600760e+001  4.000000e+001
    endloop
  endfacet
  facet normal -8.557811e-001  5.173379e-001  0.000000e+000
    outer loop
      vertex  8.147540e+001 -5.623841e+001  2.130000e+001
      vertex  8.766015e+001 -4.600760e+001  4.000000e+001
      vertex  8.766015e+001 -4.600760e+001  2.130000e+001
    endloop
  endfacet
  facet normal -9.119000e-001  4.104124e-001  0.000000e+000
    outer loop
      vertex  8.766015e+001 -4.600760e+001  2.130000e+001
      vertex  8.766015e+001 -4.600760e+001  4.000000e+001
      vertex  9.256660e+001 -3.510588e+001  4.000000e+001
    endloop
  endfacet
  facet normal -9.119000e-001  4.104124e-001  0.000000e+000
    outer loop
      vertex  8.766015e+001 -4.600760e+001  2.130000e+001
      vertex  9.256660e+001 -3.510588e+001  4.000000e+001
      vertex  9.256660e+001 -3.510588e+001  2.130000e+001
    endloop
  endfacet
  facet normal -9.547209e-001  2.975031e-001  0.000000e+000
    outer loop
      vertex  9.256660e+001 -3.510588e+001  2.130000e+001
      vertex  9.256660e+001 -3.510588e+001  4.000000e+001
      vertex  9.612324e+001 -2.369225e+001  4.000000e+001
    endloop
  endfacet
  facet normal -9.547209e-001  2.975031e-001  0.000000e+000
    outer loop
      vertex  9.256660e+001 -3.510588e+001  2.130000e+001
      vertex  9.612324e+001 -2.369225e+001  4.000000e+001
      vertex  9.612324e+001 -2.369225e+001  2.130000e+001
    endloop
  endfacet
  facet normal -9.836199e-001  1.802550e-001  0.000000e+000
    outer loop
      vertex  9.612324e+001 -2.369225e+001  2.130000e+001
      vertex  9.612324e+001 -2.369225e+001  4.000000e+001
      vertex  9.827818e+001 -1.193313e+001  4.000000e+001
    endloop
  endfacet
  facet normal -9.836199e-001  1.802550e-001  0.000000e+000
    outer loop
      vertex  9.612324e+001 -2.369225e+001  2.130000e+001
      vertex  9.827818e+001 -1.193313e+001  4.000000e+001
      vertex  9.827818e+001 -1.193313e+001  2.130000e+001
    endloop
  endfacet
  facet normal -9.981755e-001  6.037876e-002  0.000000e+000
    outer loop
      vertex  9.827818e+001 -1.193313e+001  2.130000e+001
      vertex  9.827818e+001 -1.193313e+001  4.000000e+001
      vertex  9.900000e+001  0.000000e+000  4.000000e+001
    endloop
  endfacet
  facet normal -9.981755e-001  6.037876e-002  0.000000e+000
    outer loop
      vertex  9.827818e+001 -1.193313e+001  2.130000e+001
      vertex  9.900000e+001  0.000000e+000  4.000000e+001
      vertex  9.900000e+001  0.000000e+000  2.130000e+001
    endloop
  endfacet
  facet normal -7.871832e-001  6.167192e-001  0.000000e+000
    outer loop
      vertex  8.147540e+001 -5.623841e+001  4.000000e+001
      vertex  7.410256e+001 -6.564914e+001  2.130000e+001
      vertex  7.410256e+001 -6.564914e+001  4.000000e+001
    endloop
  endfacet
  facet normal -7.071068e-001  7.071068e-001  0.000000e+000
    outer loop
      vertex  7.410256e+001 -6.564914e+001  4.000000e+001
      vertex  7.410256e+001 -6.564914e+001  2.130000e+001
      vertex  6.564914e+001 -7.410256e+001  2.130000e+001
    endloop
  endfacet
  facet normal -7.071068e-001  7.071068e-001  0.000000e+000
    outer loop
      vertex  7.410256e+001 -6.564914e+001  4.000000e+001
      vertex  6.564914e+001 -7.410256e+001  2.130000e+001
      vertex  6.564914e+001 -7.410256e+001  4.000000e+001
    endloop
  endfacet
  facet normal -6.167192e-001  7.871832e-001  0.000000e+000
    outer loop
      vertex  6.564914e+001 -7.410256e+001  4.000000e+001
      vertex  6.564914e+001 -7.410256e+001  2.130000e+001
      vertex  5.623841e+001 -8.147540e+001  2.130000e+001
    endloop
  endfacet
  facet normal -6.167192e-001  7.871832e-001  0.000000e+000
    outer loop
      vertex  6.564914e+001 -7.410256e+001  4.000000e+001
      vertex  5.623841e+001 -8.147540e+001  2.130000e+001
      vertex  5.623841e+001 -8.147540e+001  4.000000e+001
    endloop
  endfacet
  facet normal -5.173379e-001  8.557811e-001  0.000000e+000
    outer loop
      vertex  5.623841e+001 -8.147540e+001  4.000000e+001
      vertex  5.623841e+001 -8.147540e+001  2.130000e+001
      vertex  4.600760e+001 -8.766015e+001  2.130000e+001
    endloop
  endfacet
  facet normal -5.173379e-001  8.557811e-001  0.000000e+000
    outer loop
      vertex  5.623841e+001 -8.147540e+001  4.000000e+001
      vertex  4.600760e+001 -8.766015e+001  2.130000e+001
      vertex  4.600760e+001 -8.766015e+001  4.000000e+001
    endloop
  endfacet
  facet normal -4.104124e-001  9.119000e-001  0.000000e+000
    outer loop
      vertex  4.600760e+001 -8.766015e+001  4.000000e+001
      vertex  4.600760e+001 -8.766015e+001  2.130000e+001
      vertex  3.510588e+001 -9.256660e+001  2.130000e+001
    endloop
  endfacet
  facet normal -4.104124e-001  9.119000e-001  0.000000e+000
    outer loop
      vertex  4.600760e+001 -8.766015e+001  4.000000e+001
      vertex  3.510588e+001 -9.256660e+001  2.130000e+001
      vertex  3.510588e+001 -9.256660e+001  4.000000e+001
    endloop
  endfacet
  facet normal -2.975031e-001  9.547209e-001  0.000000e+000
    outer loop
      vertex  3.510588e+001 -9.256660e+001  4.000000e+001
      vertex  3.510588e+001 -9.256660e+001  2.130000e+001
      vertex  2.369225e+001 -9.612324e+001  2.130000e+001
    endloop
  endfacet
  facet normal -2.975031e-001  9.547209e-001  0.000000e+000
    outer loop
      vertex  3.510588e+001 -9.256660e+001  4.000000e+001
      vertex  2.369225e+001 -9.612324e+001  2.130000e+001
      vertex  2.369225e+001 -9.612324e+001  4.000000e+001
    endloop
  endfacet
  facet normal -1.802550e-001  9.836199e-001  0.000000e+000
    outer loop
      vertex  2.369225e+001 -9.612324e+001  4.000000e+001
      vertex  2.369225e+001 -9.612324e+001  2.130000e+001
      vertex  1.193313e+001 -9.827818e+001  2.130000e+001
    endloop
  endfacet
  facet normal -1.802550e-001  9.836199e-001  0.000000e+000
    outer loop
      vertex  2.369225e+001 -9.612324e+001  4.000000e+001
      vertex  1.193313e+001 -9.827818e+001  2.130000e+001
      vertex  1.193313e+001 -9.827818e+001  4.000000e+001
    endloop
  endfacet
  facet normal -6.037876e-002  9.981755e-001  0.000000e+000
    outer loop
      vertex  1.193313e+001 -9.827818e+001  4.000000e+001
      vertex  1.193313e+001 -9.827818e+001  2.130000e+001
      vertex -9.190482e-014 -9.900000e+001  2.130000e+001
    endloop
  endfacet
  facet normal -6.037876e-002  9.981755e-001 -3.297924e-016
    outer loop
      vertex  1.193313e+001 -9.827818e+001  4.000000e+001
      vertex -9.190482e-014 -9.900000e+001  2.130000e+001
      vertex -1.940453e-013 -9.900000e+001  4.000000e+001
    endloop
  endfacet
endsolid CATIA STL
