solid CATIA STL
  facet normal  0.000000e+000  0.000000e+000  1.000000e+000
    outer loop
      vertex  0.000000e+000 -7.000000e+001  0.000000e+000
      vertex  0.000000e+000 -1.025000e+002  0.000000e+000
      vertex  1.151289e+001 -1.018514e+002  0.000000e+000
    endloop
  endfacet
  facet normal  0.000000e+000  -0.000000e+000  1.000000e+000
    outer loop
      vertex  0.000000e+000 -7.000000e+001  0.000000e+000
      vertex  1.151289e+001 -1.018514e+002  0.000000e+000
      vertex  2.288008e+001 -9.991372e+001  0.000000e+000
    endloop
  endfacet
  facet normal  0.000000e+000  -0.000000e+000  1.000000e+000
    outer loop
      vertex  0.000000e+000 -7.000000e+001  0.000000e+000
      vertex  2.288008e+001 -9.991372e+001  0.000000e+000
      vertex  3.395770e+001 -9.671156e+001  0.000000e+000
    endloop
  endfacet
  facet normal  0.000000e+000  -0.000000e+000  9.999999e-001
    outer loop
      vertex  0.000000e+000 -7.000000e+001  0.000000e+000
      vertex  3.395770e+001 -9.671156e+001  0.000000e+000
      vertex  4.460554e+001 -9.228541e+001  0.000000e+000
    endloop
  endfacet
  facet normal  0.000000e+000  0.000000e+000  1.000000e+000
    outer loop
      vertex  0.000000e+000 -7.000000e+001  0.000000e+000
      vertex  4.460554e+001 -9.228541e+001  0.000000e+000
      vertex  4.000000e+001 -7.000000e+001  0.000000e+000
    endloop
  endfacet
  facet normal  -0.000000e+000  0.000000e+000  9.999999e-001
    outer loop
      vertex  1.616119e+002 -7.000000e+001  0.000000e+000
      vertex  4.000000e+001 -7.000000e+001  0.000000e+000
      vertex  1.616119e+002 -8.000000e+001  0.000000e+000
    endloop
  endfacet
  facet normal  0.000000e+000  0.000000e+000  1.000000e+000
    outer loop
      vertex  1.616119e+002 -8.000000e+001  0.000000e+000
      vertex  4.000000e+001 -7.000000e+001  0.000000e+000
      vertex  6.408002e+001 -8.000000e+001  0.000000e+000
    endloop
  endfacet
  facet normal  0.000000e+000  -0.000000e+000  9.999999e-001
    outer loop
      vertex  4.000000e+001 -7.000000e+001  0.000000e+000
      vertex  4.460554e+001 -9.228541e+001  0.000000e+000
      vertex  6.408002e+001 -8.000000e+001  0.000000e+000
    endloop
  endfacet
  facet normal  0.000000e+000  0.000000e+000  9.999999e-001
    outer loop
      vertex  6.408002e+001 -8.000000e+001  0.000000e+000
      vertex  4.460554e+001 -9.228541e+001  0.000000e+000
      vertex  5.468885e+001 -8.669128e+001  0.000000e+000
    endloop
  endfacet
  facet normal -9.999999e-001  0.000000e+000  0.000000e+000
    outer loop
      vertex  0.000000e+000 -7.000000e+001  0.000000e+000
      vertex  0.000000e+000 -7.000000e+001 -3.000000e+001
      vertex  0.000000e+000 -1.025000e+002  0.000000e+000
    endloop
  endfacet
  facet normal -1.000000e+000  4.345141e-016  4.707236e-016
    outer loop
      vertex  0.000000e+000 -1.025000e+002  0.000000e+000
      vertex  0.000000e+000 -7.000000e+001 -3.000000e+001
      vertex -1.882894e-014 -1.025000e+002 -4.000000e+001
    endloop
  endfacet
  facet normal -1.000000e+000  0.000000e+000  1.882894e-015
    outer loop
      vertex  0.000000e+000 -7.000000e+001 -3.000000e+001
      vertex  0.000000e+000  0.000000e+000 -3.000000e+001
      vertex -1.882894e-014 -1.025000e+002 -4.000000e+001
    endloop
  endfacet
  facet normal -1.000000e+000  1.836970e-016  0.000000e+000
    outer loop
      vertex -1.882894e-014 -1.025000e+002 -4.000000e+001
      vertex  0.000000e+000  0.000000e+000 -3.000000e+001
      vertex  0.000000e+000  0.000000e+000 -4.000000e+001
    endloop
  endfacet
  facet normal  5.802791e-001 -8.144177e-001  0.000000e+000
    outer loop
      vertex  6.408002e+001 -8.000000e+001 -4.000000e+001
      vertex  6.408002e+001 -8.000000e+001  0.000000e+000
      vertex  5.468885e+001 -8.669128e+001 -4.000000e+001
    endloop
  endfacet
  facet normal  5.802791e-001 -8.144177e-001  0.000000e+000
    outer loop
      vertex  5.468885e+001 -8.669128e+001 -4.000000e+001
      vertex  6.408002e+001 -8.000000e+001  0.000000e+000
      vertex  5.468885e+001 -8.669128e+001  0.000000e+000
    endloop
  endfacet
  facet normal  4.851315e-001 -8.744412e-001  0.000000e+000
    outer loop
      vertex  5.468885e+001 -8.669128e+001 -4.000000e+001
      vertex  5.468885e+001 -8.669128e+001  0.000000e+000
      vertex  4.460554e+001 -9.228541e+001 -4.000000e+001
    endloop
  endfacet
  facet normal  4.851315e-001 -8.744412e-001  0.000000e+000
    outer loop
      vertex  4.460554e+001 -9.228541e+001 -4.000000e+001
      vertex  5.468885e+001 -8.669128e+001  0.000000e+000
      vertex  4.460554e+001 -9.228541e+001  0.000000e+000
    endloop
  endfacet
  facet normal  3.838427e-001 -9.233986e-001  0.000000e+000
    outer loop
      vertex  4.460554e+001 -9.228541e+001 -4.000000e+001
      vertex  4.460554e+001 -9.228541e+001  0.000000e+000
      vertex  3.395770e+001 -9.671156e+001 -4.000000e+001
    endloop
  endfacet
  facet normal  3.838427e-001 -9.233986e-001  0.000000e+000
    outer loop
      vertex  3.395770e+001 -9.671156e+001 -4.000000e+001
      vertex  4.460554e+001 -9.228541e+001  0.000000e+000
      vertex  3.395770e+001 -9.671156e+001  0.000000e+000
    endloop
  endfacet
  facet normal  2.776968e-001 -9.606687e-001  0.000000e+000
    outer loop
      vertex  3.395770e+001 -9.671156e+001 -4.000000e+001
      vertex  3.395770e+001 -9.671156e+001  0.000000e+000
      vertex  2.288008e+001 -9.991372e+001 -4.000000e+001
    endloop
  endfacet
  facet normal  2.776968e-001 -9.606687e-001  0.000000e+000
    outer loop
      vertex  2.288008e+001 -9.991372e+001 -4.000000e+001
      vertex  3.395770e+001 -9.671156e+001  0.000000e+000
      vertex  2.288008e+001 -9.991372e+001  0.000000e+000
    endloop
  endfacet
  facet normal  1.680370e-001 -9.857807e-001  0.000000e+000
    outer loop
      vertex  2.288008e+001 -9.991372e+001 -4.000000e+001
      vertex  2.288008e+001 -9.991372e+001  0.000000e+000
      vertex  1.151289e+001 -1.018514e+002 -4.000000e+001
    endloop
  endfacet
  facet normal  1.680370e-001 -9.857807e-001  0.000000e+000
    outer loop
      vertex  1.151289e+001 -1.018514e+002 -4.000000e+001
      vertex  2.288008e+001 -9.991372e+001  0.000000e+000
      vertex  1.151289e+001 -1.018514e+002  0.000000e+000
    endloop
  endfacet
  facet normal  5.624942e-002 -9.984167e-001  0.000000e+000
    outer loop
      vertex  1.151289e+001 -1.018514e+002 -4.000000e+001
      vertex  1.151289e+001 -1.018514e+002  0.000000e+000
      vertex -1.882894e-014 -1.025000e+002 -4.000000e+001
    endloop
  endfacet
  facet normal  5.624942e-002 -9.984167e-001 -2.647793e-017
    outer loop
      vertex -1.882894e-014 -1.025000e+002 -4.000000e+001
      vertex  1.151289e+001 -1.018514e+002  0.000000e+000
      vertex  0.000000e+000 -1.025000e+002  0.000000e+000
    endloop
  endfacet
  facet normal  1.000000e+000  -0.000000e+000  0.000000e+000
    outer loop
      vertex  1.616119e+002 -1.421085e-014 -3.000000e+001
      vertex  1.616119e+002 -7.000000e+001 -3.000000e+001
      vertex  1.616119e+002 -2.842171e-014 -4.000000e+001
    endloop
  endfacet
  facet normal  1.000000e+000  0.000000e+000  0.000000e+000
    outer loop
      vertex  1.616119e+002 -2.842171e-014 -4.000000e+001
      vertex  1.616119e+002 -7.000000e+001 -3.000000e+001
      vertex  1.616119e+002 -8.000000e+001 -4.000000e+001
    endloop
  endfacet
  facet normal  1.000000e+000  0.000000e+000  0.000000e+000
    outer loop
      vertex  1.616119e+002 -7.000000e+001 -3.000000e+001
      vertex  1.616119e+002 -7.000000e+001  0.000000e+000
      vertex  1.616119e+002 -8.000000e+001 -4.000000e+001
    endloop
  endfacet
  facet normal  1.000000e+000  0.000000e+000  0.000000e+000
    outer loop
      vertex  1.616119e+002 -8.000000e+001 -4.000000e+001
      vertex  1.616119e+002 -7.000000e+001  0.000000e+000
      vertex  1.616119e+002 -8.000000e+001  0.000000e+000
    endloop
  endfacet
  facet normal  0.000000e+000 -1.000000e+000  0.000000e+000
    outer loop
      vertex  1.616119e+002 -8.000000e+001  0.000000e+000
      vertex  6.408002e+001 -8.000000e+001  0.000000e+000
      vertex  1.017678e+002 -8.000000e+001 -1.823223e+001
    endloop
  endfacet
  facet normal  0.000000e+000 -9.999999e-001  0.000000e+000
    outer loop
      vertex  1.616119e+002 -8.000000e+001  0.000000e+000
      vertex  1.017678e+002 -8.000000e+001 -1.823223e+001
      vertex  1.025000e+002 -8.000000e+001 -2.000000e+001
    endloop
  endfacet
  facet normal  0.000000e+000 -1.000000e+000  -0.000000e+000
    outer loop
      vertex  1.616119e+002 -8.000000e+001  0.000000e+000
      vertex  1.025000e+002 -8.000000e+001 -2.000000e+001
      vertex  1.017678e+002 -8.000000e+001 -2.176777e+001
    endloop
  endfacet
  facet normal  0.000000e+000 -1.000000e+000  -0.000000e+000
    outer loop
      vertex  1.616119e+002 -8.000000e+001  0.000000e+000
      vertex  1.017678e+002 -8.000000e+001 -2.176777e+001
      vertex  6.408002e+001 -8.000000e+001 -4.000000e+001
    endloop
  endfacet
  facet normal  0.000000e+000 -1.000000e+000  0.000000e+000
    outer loop
      vertex  1.616119e+002 -8.000000e+001  0.000000e+000
      vertex  6.408002e+001 -8.000000e+001 -4.000000e+001
      vertex  1.616119e+002 -8.000000e+001 -4.000000e+001
    endloop
  endfacet
  facet normal  0.000000e+000 -1.000000e+000  0.000000e+000
    outer loop
      vertex  6.408002e+001 -8.000000e+001  0.000000e+000
      vertex  6.408002e+001 -8.000000e+001 -4.000000e+001
      vertex  9.750000e+001 -8.000000e+001 -2.000000e+001
    endloop
  endfacet
  facet normal  0.000000e+000 -1.000000e+000  0.000000e+000
    outer loop
      vertex  6.408002e+001 -8.000000e+001  0.000000e+000
      vertex  9.750000e+001 -8.000000e+001 -2.000000e+001
      vertex  9.823223e+001 -8.000000e+001 -1.823223e+001
    endloop
  endfacet
  facet normal  0.000000e+000 -9.999999e-001  0.000000e+000
    outer loop
      vertex  6.408002e+001 -8.000000e+001  0.000000e+000
      vertex  9.823223e+001 -8.000000e+001 -1.823223e+001
      vertex  1.000000e+002 -8.000000e+001 -1.750000e+001
    endloop
  endfacet
  facet normal  0.000000e+000 -1.000000e+000  0.000000e+000
    outer loop
      vertex  6.408002e+001 -8.000000e+001  0.000000e+000
      vertex  1.000000e+002 -8.000000e+001 -1.750000e+001
      vertex  1.017678e+002 -8.000000e+001 -1.823223e+001
    endloop
  endfacet
  facet normal  0.000000e+000 -1.000000e+000  0.000000e+000
    outer loop
      vertex  6.408002e+001 -8.000000e+001 -4.000000e+001
      vertex  1.017678e+002 -8.000000e+001 -2.176777e+001
      vertex  1.000000e+002 -8.000000e+001 -2.250000e+001
    endloop
  endfacet
  facet normal  -0.000000e+000 -9.999999e-001  0.000000e+000
    outer loop
      vertex  6.408002e+001 -8.000000e+001 -4.000000e+001
      vertex  1.000000e+002 -8.000000e+001 -2.250000e+001
      vertex  9.823223e+001 -8.000000e+001 -2.176777e+001
    endloop
  endfacet
  facet normal  -0.000000e+000 -1.000000e+000  0.000000e+000
    outer loop
      vertex  6.408002e+001 -8.000000e+001 -4.000000e+001
      vertex  9.823223e+001 -8.000000e+001 -2.176777e+001
      vertex  9.750000e+001 -8.000000e+001 -2.000000e+001
    endloop
  endfacet
  facet normal  -0.000000e+000  1.000000e+000  0.000000e+000
    outer loop
      vertex  0.000000e+000 -7.000000e+001 -3.000000e+001
      vertex  0.000000e+000 -7.000000e+001  0.000000e+000
      vertex  4.000000e+001 -7.000000e+001  0.000000e+000
    endloop
  endfacet
  facet normal  0.000000e+000  1.000000e+000  0.000000e+000
    outer loop
      vertex  0.000000e+000 -7.000000e+001 -3.000000e+001
      vertex  4.000000e+001 -7.000000e+001  0.000000e+000
      vertex  9.750000e+001 -7.000000e+001 -2.000000e+001
    endloop
  endfacet
  facet normal  0.000000e+000  1.000000e+000  0.000000e+000
    outer loop
      vertex  0.000000e+000 -7.000000e+001 -3.000000e+001
      vertex  9.750000e+001 -7.000000e+001 -2.000000e+001
      vertex  9.823223e+001 -7.000000e+001 -2.176777e+001
    endloop
  endfacet
  facet normal  0.000000e+000  1.000000e+000  0.000000e+000
    outer loop
      vertex  0.000000e+000 -7.000000e+001 -3.000000e+001
      vertex  9.823223e+001 -7.000000e+001 -2.176777e+001
      vertex  1.000000e+002 -7.000000e+001 -2.250000e+001
    endloop
  endfacet
  facet normal  0.000000e+000  1.000000e+000  0.000000e+000
    outer loop
      vertex  4.000000e+001 -7.000000e+001  0.000000e+000
      vertex  1.616119e+002 -7.000000e+001  0.000000e+000
      vertex  1.000000e+002 -7.000000e+001 -1.750000e+001
    endloop
  endfacet
  facet normal  0.000000e+000  1.000000e+000  0.000000e+000
    outer loop
      vertex  4.000000e+001 -7.000000e+001  0.000000e+000
      vertex  1.000000e+002 -7.000000e+001 -1.750000e+001
      vertex  9.823223e+001 -7.000000e+001 -1.823223e+001
    endloop
  endfacet
  facet normal  0.000000e+000  1.000000e+000  0.000000e+000
    outer loop
      vertex  4.000000e+001 -7.000000e+001  0.000000e+000
      vertex  9.823223e+001 -7.000000e+001 -1.823223e+001
      vertex  9.750000e+001 -7.000000e+001 -2.000000e+001
    endloop
  endfacet
  facet normal  0.000000e+000  1.000000e+000  -0.000000e+000
    outer loop
      vertex  1.616119e+002 -7.000000e+001  0.000000e+000
      vertex  1.616119e+002 -7.000000e+001 -3.000000e+001
      vertex  1.025000e+002 -7.000000e+001 -2.000000e+001
    endloop
  endfacet
  facet normal  0.000000e+000  1.000000e+000  -0.000000e+000
    outer loop
      vertex  1.616119e+002 -7.000000e+001  0.000000e+000
      vertex  1.025000e+002 -7.000000e+001 -2.000000e+001
      vertex  1.017678e+002 -7.000000e+001 -1.823223e+001
    endloop
  endfacet
  facet normal  0.000000e+000  1.000000e+000  -0.000000e+000
    outer loop
      vertex  1.616119e+002 -7.000000e+001  0.000000e+000
      vertex  1.017678e+002 -7.000000e+001 -1.823223e+001
      vertex  1.000000e+002 -7.000000e+001 -1.750000e+001
    endloop
  endfacet
  facet normal  0.000000e+000  1.000000e+000  0.000000e+000
    outer loop
      vertex  1.616119e+002 -7.000000e+001 -3.000000e+001
      vertex  0.000000e+000 -7.000000e+001 -3.000000e+001
      vertex  1.000000e+002 -7.000000e+001 -2.250000e+001
    endloop
  endfacet
  facet normal  -0.000000e+000  1.000000e+000  0.000000e+000
    outer loop
      vertex  1.616119e+002 -7.000000e+001 -3.000000e+001
      vertex  1.000000e+002 -7.000000e+001 -2.250000e+001
      vertex  1.017678e+002 -7.000000e+001 -2.176777e+001
    endloop
  endfacet
  facet normal  -0.000000e+000  1.000000e+000  0.000000e+000
    outer loop
      vertex  1.616119e+002 -7.000000e+001 -3.000000e+001
      vertex  1.017678e+002 -7.000000e+001 -2.176777e+001
      vertex  1.025000e+002 -7.000000e+001 -2.000000e+001
    endloop
  endfacet
  facet normal  0.000000e+000  0.000000e+000  1.000000e+000
    outer loop
      vertex  0.000000e+000  0.000000e+000 -3.000000e+001
      vertex  0.000000e+000 -7.000000e+001 -3.000000e+001
      vertex  1.616119e+002 -1.421085e-014 -3.000000e+001
    endloop
  endfacet
  facet normal  0.000000e+000  0.000000e+000  1.000000e+000
    outer loop
      vertex  1.616119e+002 -1.421085e-014 -3.000000e+001
      vertex  0.000000e+000 -7.000000e+001 -3.000000e+001
      vertex  1.616119e+002 -7.000000e+001 -3.000000e+001
    endloop
  endfacet
  facet normal  0.000000e+000  0.000000e+000 -1.000000e+000
    outer loop
      vertex  1.616119e+002 -8.000000e+001 -4.000000e+001
      vertex  6.408002e+001 -8.000000e+001 -4.000000e+001
      vertex  1.616119e+002 -2.842171e-014 -4.000000e+001
    endloop
  endfacet
  facet normal  0.000000e+000  -0.000000e+000 -1.000000e+000
    outer loop
      vertex -1.882894e-014 -1.025000e+002 -4.000000e+001
      vertex  0.000000e+000  0.000000e+000 -4.000000e+001
      vertex  1.616119e+002 -2.842171e-014 -4.000000e+001
    endloop
  endfacet
  facet normal  0.000000e+000  0.000000e+000 -1.000000e+000
    outer loop
      vertex -1.882894e-014 -1.025000e+002 -4.000000e+001
      vertex  1.616119e+002 -2.842171e-014 -4.000000e+001
      vertex  6.408002e+001 -8.000000e+001 -4.000000e+001
    endloop
  endfacet
  facet normal  0.000000e+000  0.000000e+000 -1.000000e+000
    outer loop
      vertex -1.882894e-014 -1.025000e+002 -4.000000e+001
      vertex  6.408002e+001 -8.000000e+001 -4.000000e+001
      vertex  5.468885e+001 -8.669128e+001 -4.000000e+001
    endloop
  endfacet
  facet normal  0.000000e+000  0.000000e+000 -1.000000e+000
    outer loop
      vertex -1.882894e-014 -1.025000e+002 -4.000000e+001
      vertex  5.468885e+001 -8.669128e+001 -4.000000e+001
      vertex  4.460554e+001 -9.228541e+001 -4.000000e+001
    endloop
  endfacet
  facet normal  0.000000e+000  0.000000e+000 -1.000000e+000
    outer loop
      vertex -1.882894e-014 -1.025000e+002 -4.000000e+001
      vertex  4.460554e+001 -9.228541e+001 -4.000000e+001
      vertex  3.395770e+001 -9.671156e+001 -4.000000e+001
    endloop
  endfacet
  facet normal  0.000000e+000  0.000000e+000 -1.000000e+000
    outer loop
      vertex -1.882894e-014 -1.025000e+002 -4.000000e+001
      vertex  3.395770e+001 -9.671156e+001 -4.000000e+001
      vertex  2.288008e+001 -9.991372e+001 -4.000000e+001
    endloop
  endfacet
  facet normal  0.000000e+000  0.000000e+000 -1.000000e+000
    outer loop
      vertex -1.882894e-014 -1.025000e+002 -4.000000e+001
      vertex  2.288008e+001 -9.991372e+001 -4.000000e+001
      vertex  1.151289e+001 -1.018514e+002 -4.000000e+001
    endloop
  endfacet
  facet normal  8.793201e-017  1.000000e+000  0.000000e+000
    outer loop
      vertex  0.000000e+000  0.000000e+000 -3.000000e+001
      vertex  1.616119e+002 -1.421085e-014 -3.000000e+001
      vertex  0.000000e+000  0.000000e+000 -4.000000e+001
    endloop
  endfacet
  facet normal  1.758640e-016  1.000000e+000 -1.421085e-015
    outer loop
      vertex  0.000000e+000  0.000000e+000 -4.000000e+001
      vertex  1.616119e+002 -1.421085e-014 -3.000000e+001
      vertex  1.616119e+002 -2.842171e-014 -4.000000e+001
    endloop
  endfacet
  facet normal -3.826831e-001  -0.000000e+000 -9.238797e-001
    outer loop
      vertex  1.000000e+002 -8.000000e+001 -1.750000e+001
      vertex  1.017678e+002 -7.000000e+001 -1.823223e+001
      vertex  1.017678e+002 -8.000000e+001 -1.823223e+001
    endloop
  endfacet
  facet normal -9.238799e-001  0.000000e+000 -3.826826e-001
    outer loop
      vertex  1.017678e+002 -8.000000e+001 -1.823223e+001
      vertex  1.017678e+002 -7.000000e+001 -1.823223e+001
      vertex  1.025000e+002 -7.000000e+001 -2.000000e+001
    endloop
  endfacet
  facet normal -9.238799e-001  -0.000000e+000 -3.826826e-001
    outer loop
      vertex  1.017678e+002 -8.000000e+001 -1.823223e+001
      vertex  1.025000e+002 -7.000000e+001 -2.000000e+001
      vertex  1.025000e+002 -8.000000e+001 -2.000000e+001
    endloop
  endfacet
  facet normal -3.826831e-001  0.000000e+000 -9.238797e-001
    outer loop
      vertex  1.017678e+002 -7.000000e+001 -1.823223e+001
      vertex  1.000000e+002 -8.000000e+001 -1.750000e+001
      vertex  1.000000e+002 -7.000000e+001 -1.750000e+001
    endloop
  endfacet
  facet normal  3.826831e-001  0.000000e+000 -9.238797e-001
    outer loop
      vertex  1.000000e+002 -7.000000e+001 -1.750000e+001
      vertex  1.000000e+002 -8.000000e+001 -1.750000e+001
      vertex  9.823223e+001 -8.000000e+001 -1.823223e+001
    endloop
  endfacet
  facet normal  3.826831e-001  0.000000e+000 -9.238797e-001
    outer loop
      vertex  1.000000e+002 -7.000000e+001 -1.750000e+001
      vertex  9.823223e+001 -8.000000e+001 -1.823223e+001
      vertex  9.823223e+001 -7.000000e+001 -1.823223e+001
    endloop
  endfacet
  facet normal  9.238799e-001  0.000000e+000 -3.826826e-001
    outer loop
      vertex  9.823223e+001 -7.000000e+001 -1.823223e+001
      vertex  9.823223e+001 -8.000000e+001 -1.823223e+001
      vertex  9.750000e+001 -8.000000e+001 -2.000000e+001
    endloop
  endfacet
  facet normal  9.238799e-001  0.000000e+000 -3.826826e-001
    outer loop
      vertex  9.823223e+001 -7.000000e+001 -1.823223e+001
      vertex  9.750000e+001 -8.000000e+001 -2.000000e+001
      vertex  9.750000e+001 -7.000000e+001 -2.000000e+001
    endloop
  endfacet
  facet normal  3.826831e-001  0.000000e+000  9.238797e-001
    outer loop
      vertex  1.000000e+002 -8.000000e+001 -2.250000e+001
      vertex  9.823223e+001 -7.000000e+001 -2.176777e+001
      vertex  9.823223e+001 -8.000000e+001 -2.176777e+001
    endloop
  endfacet
  facet normal  9.238799e-001  -0.000000e+000  3.826826e-001
    outer loop
      vertex  9.823223e+001 -8.000000e+001 -2.176777e+001
      vertex  9.823223e+001 -7.000000e+001 -2.176777e+001
      vertex  9.750000e+001 -7.000000e+001 -2.000000e+001
    endloop
  endfacet
  facet normal  9.238799e-001  0.000000e+000  3.826826e-001
    outer loop
      vertex  9.823223e+001 -8.000000e+001 -2.176777e+001
      vertex  9.750000e+001 -7.000000e+001 -2.000000e+001
      vertex  9.750000e+001 -8.000000e+001 -2.000000e+001
    endloop
  endfacet
  facet normal  3.826831e-001  -0.000000e+000  9.238797e-001
    outer loop
      vertex  9.823223e+001 -7.000000e+001 -2.176777e+001
      vertex  1.000000e+002 -8.000000e+001 -2.250000e+001
      vertex  1.000000e+002 -7.000000e+001 -2.250000e+001
    endloop
  endfacet
  facet normal -3.826831e-001  0.000000e+000  9.238797e-001
    outer loop
      vertex  1.000000e+002 -7.000000e+001 -2.250000e+001
      vertex  1.000000e+002 -8.000000e+001 -2.250000e+001
      vertex  1.017678e+002 -8.000000e+001 -2.176777e+001
    endloop
  endfacet
  facet normal -3.826831e-001  0.000000e+000  9.238797e-001
    outer loop
      vertex  1.000000e+002 -7.000000e+001 -2.250000e+001
      vertex  1.017678e+002 -8.000000e+001 -2.176777e+001
      vertex  1.017678e+002 -7.000000e+001 -2.176777e+001
    endloop
  endfacet
  facet normal -9.238799e-001  0.000000e+000  3.826826e-001
    outer loop
      vertex  1.017678e+002 -7.000000e+001 -2.176777e+001
      vertex  1.017678e+002 -8.000000e+001 -2.176777e+001
      vertex  1.025000e+002 -8.000000e+001 -2.000000e+001
    endloop
  endfacet
  facet normal -9.238799e-001  0.000000e+000  3.826826e-001
    outer loop
      vertex  1.017678e+002 -7.000000e+001 -2.176777e+001
      vertex  1.025000e+002 -8.000000e+001 -2.000000e+001
      vertex  1.025000e+002 -7.000000e+001 -2.000000e+001
    endloop
  endfacet
endsolid CATIA STL
