solid CATIA STL
  facet normal  0.000000e+000  0.000000e+000 -1.000000e+000
    outer loop
      vertex  6.382684e+001  9.238795e+000  0.000000e+000
      vertex  6.000000e+001  1.000000e+001  0.000000e+000
      vertex  1.018586e+002  1.144896e+001  0.000000e+000
    endloop
  endfacet
  facet normal  0.000000e+000  0.000000e+000 -1.000000e+000
    outer loop
      vertex  5.617316e+001  9.238795e+000  0.000000e+000
      vertex  9.994237e+001  2.275463e+001  0.000000e+000
      vertex  6.000000e+001  1.000000e+001  0.000000e+000
    endloop
  endfacet
  facet normal  0.000000e+000  -0.000000e+000 -1.000000e+000
    outer loop
      vertex  6.000000e+001  1.000000e+001  0.000000e+000
      vertex  9.994237e+001  2.275463e+001  0.000000e+000
      vertex  1.018586e+002  1.144896e+001  0.000000e+000
    endloop
  endfacet
  facet normal  0.000000e+000  0.000000e+000 -9.999999e-001
    outer loop
      vertex  1.025000e+002  0.000000e+000  0.000000e+000
      vertex  7.000000e+001  0.000000e+000  0.000000e+000
      vertex  6.923879e+001  3.826834e+000  0.000000e+000
    endloop
  endfacet
  facet normal  0.000000e+000  0.000000e+000 -1.000000e+000
    outer loop
      vertex  1.025000e+002  0.000000e+000  0.000000e+000
      vertex  6.923879e+001  3.826834e+000  0.000000e+000
      vertex  6.707107e+001  7.071068e+000  0.000000e+000
    endloop
  endfacet
  facet normal  0.000000e+000  0.000000e+000 -1.000000e+000
    outer loop
      vertex  1.025000e+002  0.000000e+000  0.000000e+000
      vertex  6.707107e+001  7.071068e+000  0.000000e+000
      vertex  6.382684e+001  9.238795e+000  0.000000e+000
    endloop
  endfacet
  facet normal  0.000000e+000  0.000000e+000 -9.999999e-001
    outer loop
      vertex  1.025000e+002  0.000000e+000  0.000000e+000
      vertex  6.382684e+001  9.238795e+000  0.000000e+000
      vertex  1.018586e+002  1.144896e+001  0.000000e+000
    endloop
  endfacet
  facet normal -3.058249e-016  4.900294e-017 -9.999999e-001
    outer loop
      vertex  0.000000e+000  3.000000e+001  0.000000e+000
      vertex  0.000000e+000  1.025000e+002  3.552714e-015
      vertex  1.151289e+001  1.018514e+002  0.000000e+000
    endloop
  endfacet
  facet normal  0.000000e+000  -0.000000e+000 -1.000000e+000
    outer loop
      vertex  0.000000e+000  3.000000e+001  0.000000e+000
      vertex  1.151289e+001  1.018514e+002  0.000000e+000
      vertex  2.288008e+001  9.991372e+001  0.000000e+000
    endloop
  endfacet
  facet normal  0.000000e+000  -0.000000e+000 -1.000000e+000
    outer loop
      vertex  0.000000e+000  3.000000e+001  0.000000e+000
      vertex  2.288008e+001  9.991372e+001  0.000000e+000
      vertex  3.395770e+001  9.671156e+001  0.000000e+000
    endloop
  endfacet
  facet normal  0.000000e+000  -0.000000e+000 -1.000000e+000
    outer loop
      vertex  0.000000e+000  3.000000e+001  0.000000e+000
      vertex  3.395770e+001  9.671156e+001  0.000000e+000
      vertex  4.460554e+001  9.228541e+001  0.000000e+000
    endloop
  endfacet
  facet normal  0.000000e+000  -0.000000e+000 -1.000000e+000
    outer loop
      vertex  0.000000e+000  3.000000e+001  0.000000e+000
      vertex  4.460554e+001  9.228541e+001  0.000000e+000
      vertex  5.468885e+001  8.669128e+001  0.000000e+000
    endloop
  endfacet
  facet normal  0.000000e+000  -0.000000e+000 -1.000000e+000
    outer loop
      vertex  0.000000e+000  3.000000e+001  0.000000e+000
      vertex  5.468885e+001  8.669128e+001  0.000000e+000
      vertex  6.408002e+001  8.000000e+001  0.000000e+000
    endloop
  endfacet
  facet normal  0.000000e+000  -0.000000e+000 -1.000000e+000
    outer loop
      vertex  0.000000e+000  3.000000e+001  0.000000e+000
      vertex  6.408002e+001  8.000000e+001  0.000000e+000
      vertex  7.261481e+001  7.234183e+001  0.000000e+000
    endloop
  endfacet
  facet normal  0.000000e+000  -0.000000e+000 -9.999999e-001
    outer loop
      vertex  0.000000e+000  3.000000e+001  0.000000e+000
      vertex  7.261481e+001  7.234183e+001  0.000000e+000
      vertex  8.024078e+001  6.377827e+001  0.000000e+000
    endloop
  endfacet
  facet normal  0.000000e+000  -0.000000e+000 -9.999999e-001
    outer loop
      vertex  0.000000e+000  3.000000e+001  0.000000e+000
      vertex  8.024078e+001  6.377827e+001  0.000000e+000
      vertex  8.686250e+001  5.441650e+001  0.000000e+000
    endloop
  endfacet
  facet normal  0.000000e+000  -0.000000e+000 -1.000000e+000
    outer loop
      vertex  0.000000e+000  3.000000e+001  0.000000e+000
      vertex  8.686250e+001  5.441650e+001  0.000000e+000
      vertex  9.239711e+001  4.437368e+001  0.000000e+000
    endloop
  endfacet
  facet normal  0.000000e+000  -0.000000e+000 -1.000000e+000
    outer loop
      vertex  0.000000e+000  3.000000e+001  0.000000e+000
      vertex  9.239711e+001  4.437368e+001  0.000000e+000
      vertex  9.677533e+001  3.377551e+001  0.000000e+000
    endloop
  endfacet
  facet normal  0.000000e+000  0.000000e+000 -1.000000e+000
    outer loop
      vertex  0.000000e+000  3.000000e+001  0.000000e+000
      vertex  9.677533e+001  3.377551e+001  0.000000e+000
      vertex  1.000000e+001  3.000000e+001  0.000000e+000
    endloop
  endfacet
  facet normal  0.000000e+000  0.000000e+000 -1.000000e+000
    outer loop
      vertex  1.000000e+001  0.000000e+000  0.000000e+000
      vertex  1.000000e+001  3.000000e+001  0.000000e+000
      vertex  9.677533e+001  3.377551e+001  0.000000e+000
    endloop
  endfacet
  facet normal  0.000000e+000  -0.000000e+000 -1.000000e+000
    outer loop
      vertex  1.000000e+001  0.000000e+000  0.000000e+000
      vertex  9.677533e+001  3.377551e+001  0.000000e+000
      vertex  9.994237e+001  2.275463e+001  0.000000e+000
    endloop
  endfacet
  facet normal  0.000000e+000  0.000000e+000 -9.999999e-001
    outer loop
      vertex  1.000000e+001  0.000000e+000  0.000000e+000
      vertex  9.994237e+001  2.275463e+001  0.000000e+000
      vertex  5.617316e+001  9.238795e+000  0.000000e+000
    endloop
  endfacet
  facet normal  0.000000e+000  0.000000e+000 -1.000000e+000
    outer loop
      vertex  1.000000e+001  0.000000e+000  0.000000e+000
      vertex  5.617316e+001  9.238795e+000  0.000000e+000
      vertex  5.292893e+001  7.071068e+000  0.000000e+000
    endloop
  endfacet
  facet normal  0.000000e+000  0.000000e+000 -1.000000e+000
    outer loop
      vertex  1.000000e+001  0.000000e+000  0.000000e+000
      vertex  5.292893e+001  7.071068e+000  0.000000e+000
      vertex  5.076120e+001  3.826834e+000  0.000000e+000
    endloop
  endfacet
  facet normal  0.000000e+000  0.000000e+000 -1.000000e+000
    outer loop
      vertex  1.000000e+001  0.000000e+000  0.000000e+000
      vertex  5.076120e+001  3.826834e+000  0.000000e+000
      vertex  5.000000e+001  0.000000e+000  0.000000e+000
    endloop
  endfacet
  facet normal  1.802547e-001  9.836175e-001  2.209412e-003
    outer loop
      vertex  1.235501e+001  1.017527e+002  4.000000e+001
      vertex  2.452986e+001  9.952154e+001  4.000000e+001
      vertex  2.288008e+001  9.991372e+001  0.000000e+000
    endloop
  endfacet
  facet normal  2.776963e-001  9.606668e-001 -2.034527e-003
    outer loop
      vertex  3.395770e+001  9.671156e+001  0.000000e+000
      vertex  2.288008e+001  9.991372e+001  0.000000e+000
      vertex  2.452986e+001  9.952154e+001  4.000000e+001
    endloop
  endfacet
  facet normal  2.975018e-001  9.547163e-001  3.051578e-003
    outer loop
      vertex  2.452986e+001  9.952154e+001  4.000000e+001
      vertex  3.634700e+001  9.583916e+001  4.000000e+001
      vertex  3.395770e+001  9.671156e+001  0.000000e+000
    endloop
  endfacet
  facet normal  3.838412e-001  9.233949e-001 -2.788814e-003
    outer loop
      vertex  4.460554e+001  9.228541e+001  0.000000e+000
      vertex  3.395770e+001  9.671156e+001  0.000000e+000
      vertex  3.634700e+001  9.583916e+001  4.000000e+001
    endloop
  endfacet
  facet normal  4.104102e-001  9.118934e-001  3.718544e-003
    outer loop
      vertex  3.634700e+001  9.583916e+001  4.000000e+001
      vertex  4.763412e+001  9.075924e+001  4.000000e+001
      vertex  4.460554e+001  9.228541e+001  0.000000e+000
    endloop
  endfacet
  facet normal  4.851288e-001  8.744364e-001 -3.367890e-003
    outer loop
      vertex  5.468885e+001  8.669128e+001  0.000000e+000
      vertex  4.460554e+001  9.228541e+001  0.000000e+000
      vertex  4.763412e+001  9.075924e+001  4.000000e+001
    endloop
  endfacet
  facet normal  5.173333e-001  8.557736e-001  4.209944e-003
    outer loop
      vertex  4.763412e+001  9.075924e+001  4.000000e+001
      vertex  5.822663e+001  8.435584e+001  4.000000e+001
      vertex  5.468885e+001  8.669128e+001  0.000000e+000
    endloop
  endfacet
  facet normal  7.070991e-001  7.070991e-001  4.670633e-003
    outer loop
      vertex  6.797007e+001  7.672235e+001  4.000000e+001
      vertex  7.672235e+001  6.797007e+001  4.000000e+001
      vertex  7.261481e+001  7.234183e+001  0.000000e+000
    endloop
  endfacet
  facet normal  7.468004e-001  6.650361e-001 -4.003478e-003
    outer loop
      vertex  7.261481e+001  7.234183e+001  0.000000e+000
      vertex  7.672235e+001  6.797007e+001  4.000000e+001
      vertex  8.024078e+001  6.377827e+001  0.000000e+000
    endloop
  endfacet
  facet normal  7.871752e-001  6.167122e-001  4.612018e-003
    outer loop
      vertex  8.024078e+001  6.377827e+001  0.000000e+000
      vertex  7.672235e+001  6.797007e+001  4.000000e+001
      vertex  8.435584e+001  5.822663e+001  4.000000e+001
    endloop
  endfacet
  facet normal  8.164102e-001  5.774597e-001 -3.843460e-003
    outer loop
      vertex  8.024078e+001  6.377827e+001  0.000000e+000
      vertex  8.435584e+001  5.822663e+001  4.000000e+001
      vertex  8.686250e+001  5.441650e+001  0.000000e+000
    endloop
  endfacet
  facet normal  8.557732e-001  5.173330e-001  4.350558e-003
    outer loop
      vertex  8.686250e+001  5.441650e+001  0.000000e+000
      vertex  8.435584e+001  5.822663e+001  4.000000e+001
      vertex  9.075924e+001  4.763412e+001  4.000000e+001
    endloop
  endfacet
  facet normal  8.758031e-001  4.826560e-001 -3.480525e-003
    outer loop
      vertex  8.686250e+001  5.441650e+001  0.000000e+000
      vertex  9.075924e+001  4.763412e+001  4.000000e+001
      vertex  9.239711e+001  4.437368e+001  0.000000e+000
    endloop
  endfacet
  facet normal  9.118929e-001  4.104099e-001  3.886098e-003
    outer loop
      vertex  9.239711e+001  4.437368e+001  0.000000e+000
      vertex  9.075924e+001  4.763412e+001  4.000000e+001
      vertex  9.583916e+001  3.634700e+001  4.000000e+001
    endloop
  endfacet
  facet normal  9.242356e-001  3.818117e-001 -2.914718e-003
    outer loop
      vertex  9.239711e+001  4.437368e+001  0.000000e+000
      vertex  9.583916e+001  3.634700e+001  4.000000e+001
      vertex  9.677533e+001  3.377551e+001  0.000000e+000
    endloop
  endfacet
  facet normal  9.547158e-001  2.975016e-001  3.218715e-003
    outer loop
      vertex  9.677533e+001  3.377551e+001  0.000000e+000
      vertex  9.583916e+001  3.634700e+001  4.000000e+001
      vertex  9.952154e+001  2.452986e+001  4.000000e+001
    endloop
  endfacet
  facet normal  9.611010e-001  2.761887e-001 -2.145966e-003
    outer loop
      vertex  9.677533e+001  3.377551e+001  0.000000e+000
      vertex  9.952154e+001  2.452986e+001  4.000000e+001
      vertex  9.994237e+001  2.275463e+001  0.000000e+000
    endloop
  endfacet
  facet normal  9.836171e-001  1.802547e-001  2.348545e-003
    outer loop
      vertex  9.994237e+001  2.275463e+001  0.000000e+000
      vertex  9.952154e+001  2.452986e+001  4.000000e+001
      vertex  1.017527e+002  1.235501e+001  4.000000e+001
    endloop
  endfacet
  facet normal  5.802750e-001  8.144119e-001 -3.771859e-003
    outer loop
      vertex  6.408002e+001  8.000000e+001  0.000000e+000
      vertex  5.468885e+001  8.669128e+001  0.000000e+000
      vertex  5.822663e+001  8.435584e+001  4.000000e+001
    endloop
  endfacet
  facet normal  6.167125e-001  7.871755e-001  4.526143e-003
    outer loop
      vertex  6.408002e+001  8.000000e+001  0.000000e+000
      vertex  5.822663e+001  8.435584e+001  4.000000e+001
      vertex  6.797007e+001  7.672235e+001  4.000000e+001
    endloop
  endfacet
  facet normal  6.678442e-001  7.442905e-001 -3.960533e-003
    outer loop
      vertex  6.408002e+001  8.000000e+001  0.000000e+000
      vertex  6.797007e+001  7.672235e+001  4.000000e+001
      vertex  7.261481e+001  7.234183e+001  0.000000e+000
    endloop
  endfacet
  facet normal  5.624942e-002  9.984167e-001 -8.825977e-018
    outer loop
      vertex  0.000000e+000  1.025000e+002  3.552714e-015
      vertex  6.276315e-015  1.025000e+002  4.000000e+001
      vertex  1.151289e+001  1.018514e+002  0.000000e+000
    endloop
  endfacet
  facet normal  6.037821e-002  9.981748e-001  1.192277e-003
    outer loop
      vertex  1.151289e+001  1.018514e+002  0.000000e+000
      vertex  6.276315e-015  1.025000e+002  4.000000e+001
      vertex  1.235501e+001  1.017527e+002  4.000000e+001
    endloop
  endfacet
  facet normal  1.680369e-001  9.857801e-001 -1.104841e-003
    outer loop
      vertex  1.151289e+001  1.018514e+002  0.000000e+000
      vertex  1.235501e+001  1.017527e+002  4.000000e+001
      vertex  2.288008e+001  9.991372e+001  0.000000e+000
    endloop
  endfacet
  facet normal  9.981755e-001  6.037825e-002  3.789528e-017
    outer loop
      vertex  1.025000e+002 -2.510526e-014  4.000000e+001
      vertex  1.025000e+002  0.000000e+000  0.000000e+000
      vertex  1.017527e+002  1.235501e+001  4.000000e+001
    endloop
  endfacet
  facet normal  9.984334e-001  5.593641e-002  1.376789e-003
    outer loop
      vertex  1.017527e+002  1.235501e+001  4.000000e+001
      vertex  1.025000e+002  0.000000e+000  0.000000e+000
      vertex  1.018586e+002  1.144896e+001  0.000000e+000
    endloop
  endfacet
  facet normal  9.859378e-001  1.671080e-001 -1.174484e-003
    outer loop
      vertex  1.017527e+002  1.235501e+001  4.000000e+001
      vertex  1.018586e+002  1.144896e+001  0.000000e+000
      vertex  9.994237e+001  2.275463e+001  0.000000e+000
    endloop
  endfacet
  facet normal -1.000000e+000  0.000000e+000 -1.930823e-015
    outer loop
      vertex  0.000000e+000  3.000000e+001  1.900000e+001
      vertex  0.000000e+000  2.022500e+001  1.900000e+001
      vertex -4.440892e-015  2.022500e+001  2.130000e+001
    endloop
  endfacet
  facet normal -1.000000e+000  6.215392e-016  7.107191e-016
    outer loop
      vertex  0.000000e+000  3.000000e+001  1.900000e+001
      vertex -4.440892e-015  2.022500e+001  2.130000e+001
      vertex  4.452086e-014  9.900000e+001  2.130000e+001
    endloop
  endfacet
  facet normal -1.000000e+000  5.724218e-016  2.184241e-015
    outer loop
      vertex  0.000000e+000  3.000000e+001  1.900000e+001
      vertex  4.452086e-014  9.900000e+001  2.130000e+001
      vertex  0.000000e+000  1.025000e+002  3.552714e-015
    endloop
  endfacet
  facet normal -1.000000e+000  -0.000000e+000  0.000000e+000
    outer loop
      vertex  0.000000e+000  3.000000e+001  1.900000e+001
      vertex  0.000000e+000  1.025000e+002  3.552714e-015
      vertex  0.000000e+000  3.000000e+001  0.000000e+000
    endloop
  endfacet
  facet normal -1.000000e+000 -1.092839e-014  2.944370e-016
    outer loop
      vertex  4.452086e-014  9.900000e+001  2.130000e+001
      vertex  5.002683e-014  9.900000e+001  4.000000e+001
      vertex  0.000000e+000  1.025000e+002  3.552714e-015
    endloop
  endfacet
  facet normal -1.000000e+000 -1.250015e-014  1.569079e-016
    outer loop
      vertex  0.000000e+000  1.025000e+002  3.552714e-015
      vertex  5.002683e-014  9.900000e+001  4.000000e+001
      vertex  6.276315e-015  1.025000e+002  4.000000e+001
    endloop
  endfacet
  facet normal  0.000000e+000 -1.000000e+000  0.000000e+000
    outer loop
      vertex  7.000000e+001  0.000000e+000  0.000000e+000
      vertex  1.025000e+002  0.000000e+000  0.000000e+000
      vertex  7.000000e+001  0.000000e+000  2.130000e+001
    endloop
  endfacet
  facet normal  0.000000e+000 -1.000000e+000  0.000000e+000
    outer loop
      vertex  7.000000e+001  0.000000e+000  2.130000e+001
      vertex  1.025000e+002  0.000000e+000  0.000000e+000
      vertex  9.900000e+001  0.000000e+000  2.130000e+001
    endloop
  endfacet
  facet normal -3.819586e-015 -1.000000e+000 -6.276315e-016
    outer loop
      vertex  1.025000e+002  0.000000e+000  0.000000e+000
      vertex  1.025000e+002 -2.510526e-014  4.000000e+001
      vertex  9.900000e+001  0.000000e+000  2.130000e+001
    endloop
  endfacet
  facet normal -7.172931e-015 -1.000000e+000  0.000000e+000
    outer loop
      vertex  9.900000e+001  0.000000e+000  2.130000e+001
      vertex  1.025000e+002 -2.510526e-014  4.000000e+001
      vertex  9.900000e+001  0.000000e+000  4.000000e+001
    endloop
  endfacet
  facet normal  3.061617e-017 -1.000000e+000  0.000000e+000
    outer loop
      vertex  1.000000e+001  0.000000e+000  2.130000e+001
      vertex  1.000000e+001  0.000000e+000  0.000000e+000
      vertex  5.000000e+001  1.224647e-015  2.130000e+001
    endloop
  endfacet
  facet normal  0.000000e+000 -1.000000e+000  5.749516e-017
    outer loop
      vertex  5.000000e+001  1.224647e-015  2.130000e+001
      vertex  1.000000e+001  0.000000e+000  0.000000e+000
      vertex  5.000000e+001  0.000000e+000  0.000000e+000
    endloop
  endfacet
  facet normal -1.000000e+000  -0.000000e+000  0.000000e+000
    outer loop
      vertex  1.000000e+001  0.000000e+000  2.130000e+001
      vertex  1.000000e+001  2.022500e+001  2.130000e+001
      vertex  1.000000e+001  0.000000e+000  0.000000e+000
    endloop
  endfacet
  facet normal -1.000000e+000  0.000000e+000  0.000000e+000
    outer loop
      vertex  1.000000e+001  0.000000e+000  0.000000e+000
      vertex  1.000000e+001  2.022500e+001  2.130000e+001
      vertex  1.000000e+001  2.022500e+001  1.900000e+001
    endloop
  endfacet
  facet normal -1.000000e+000  0.000000e+000  -0.000000e+000
    outer loop
      vertex  1.000000e+001  0.000000e+000  0.000000e+000
      vertex  1.000000e+001  2.022500e+001  1.900000e+001
      vertex  1.000000e+001  3.000000e+001  0.000000e+000
    endloop
  endfacet
  facet normal -1.000000e+000  0.000000e+000  0.000000e+000
    outer loop
      vertex  1.000000e+001  3.000000e+001  0.000000e+000
      vertex  1.000000e+001  2.022500e+001  1.900000e+001
      vertex  1.000000e+001  3.000000e+001  1.900000e+001
    endloop
  endfacet
  facet normal  0.000000e+000 -1.000000e+000  0.000000e+000
    outer loop
      vertex  1.000000e+001  3.000000e+001  1.900000e+001
      vertex  0.000000e+000  3.000000e+001  1.900000e+001
      vertex  1.000000e+001  3.000000e+001  0.000000e+000
    endloop
  endfacet
  facet normal  0.000000e+000 -1.000000e+000  0.000000e+000
    outer loop
      vertex  1.000000e+001  3.000000e+001  0.000000e+000
      vertex  0.000000e+000  3.000000e+001  1.900000e+001
      vertex  0.000000e+000  3.000000e+001  0.000000e+000
    endloop
  endfacet
  facet normal  1.950903e-001 -9.807853e-001  0.000000e+000
    outer loop
      vertex  6.000000e+001  1.000000e+001  0.000000e+000
      vertex  5.617316e+001  9.238795e+000  2.130000e+001
      vertex  5.617316e+001  9.238795e+000  0.000000e+000
    endloop
  endfacet
  facet normal  5.555704e-001 -8.314695e-001  0.000000e+000
    outer loop
      vertex  5.617316e+001  9.238795e+000  0.000000e+000
      vertex  5.617316e+001  9.238795e+000  2.130000e+001
      vertex  5.292893e+001  7.071068e+000  2.130000e+001
    endloop
  endfacet
  facet normal  5.555704e-001 -8.314695e-001  0.000000e+000
    outer loop
      vertex  5.617316e+001  9.238795e+000  0.000000e+000
      vertex  5.292893e+001  7.071068e+000  2.130000e+001
      vertex  5.292893e+001  7.071068e+000  0.000000e+000
    endloop
  endfacet
  facet normal  8.314695e-001 -5.555704e-001  0.000000e+000
    outer loop
      vertex  5.292893e+001  7.071068e+000  0.000000e+000
      vertex  5.292893e+001  7.071068e+000  2.130000e+001
      vertex  5.076120e+001  3.826834e+000  2.130000e+001
    endloop
  endfacet
  facet normal  8.314695e-001 -5.555704e-001  0.000000e+000
    outer loop
      vertex  5.292893e+001  7.071068e+000  0.000000e+000
      vertex  5.076120e+001  3.826834e+000  2.130000e+001
      vertex  5.076120e+001  3.826834e+000  0.000000e+000
    endloop
  endfacet
  facet normal  9.807853e-001 -1.950901e-001  0.000000e+000
    outer loop
      vertex  5.076120e+001  3.826834e+000  0.000000e+000
      vertex  5.076120e+001  3.826834e+000  2.130000e+001
      vertex  5.000000e+001  1.224647e-015  2.130000e+001
    endloop
  endfacet
  facet normal  9.807853e-001 -1.950901e-001  1.121673e-017
    outer loop
      vertex  5.076120e+001  3.826834e+000  0.000000e+000
      vertex  5.000000e+001  1.224647e-015  2.130000e+001
      vertex  5.000000e+001  0.000000e+000  0.000000e+000
    endloop
  endfacet
  facet normal  1.950903e-001 -9.807853e-001  0.000000e+000
    outer loop
      vertex  5.617316e+001  9.238795e+000  2.130000e+001
      vertex  6.000000e+001  1.000000e+001  0.000000e+000
      vertex  6.000000e+001  1.000000e+001  2.130000e+001
    endloop
  endfacet
  facet normal -1.950903e-001 -9.807853e-001  -0.000000e+000
    outer loop
      vertex  6.000000e+001  1.000000e+001  2.130000e+001
      vertex  6.000000e+001  1.000000e+001  0.000000e+000
      vertex  6.382684e+001  9.238795e+000  0.000000e+000
    endloop
  endfacet
  facet normal -1.950903e-001 -9.807853e-001  0.000000e+000
    outer loop
      vertex  6.000000e+001  1.000000e+001  2.130000e+001
      vertex  6.382684e+001  9.238795e+000  0.000000e+000
      vertex  6.382684e+001  9.238795e+000  2.130000e+001
    endloop
  endfacet
  facet normal -5.555704e-001 -8.314695e-001  -0.000000e+000
    outer loop
      vertex  6.382684e+001  9.238795e+000  2.130000e+001
      vertex  6.382684e+001  9.238795e+000  0.000000e+000
      vertex  6.707107e+001  7.071068e+000  0.000000e+000
    endloop
  endfacet
  facet normal -5.555704e-001 -8.314695e-001  0.000000e+000
    outer loop
      vertex  6.382684e+001  9.238795e+000  2.130000e+001
      vertex  6.707107e+001  7.071068e+000  0.000000e+000
      vertex  6.707107e+001  7.071068e+000  2.130000e+001
    endloop
  endfacet
  facet normal -8.314699e-001 -5.555697e-001  -0.000000e+000
    outer loop
      vertex  6.707107e+001  7.071068e+000  2.130000e+001
      vertex  6.707107e+001  7.071068e+000  0.000000e+000
      vertex  6.923879e+001  3.826834e+000  0.000000e+000
    endloop
  endfacet
  facet normal -8.314699e-001 -5.555697e-001  0.000000e+000
    outer loop
      vertex  6.707107e+001  7.071068e+000  2.130000e+001
      vertex  6.923879e+001  3.826834e+000  0.000000e+000
      vertex  6.923879e+001  3.826834e+000  2.130000e+001
    endloop
  endfacet
  facet normal -9.807852e-001 -1.950910e-001  -0.000000e+000
    outer loop
      vertex  6.923879e+001  3.826834e+000  2.130000e+001
      vertex  6.923879e+001  3.826834e+000  0.000000e+000
      vertex  7.000000e+001  0.000000e+000  0.000000e+000
    endloop
  endfacet
  facet normal -9.807852e-001 -1.950910e-001  0.000000e+000
    outer loop
      vertex  6.923879e+001  3.826834e+000  2.130000e+001
      vertex  7.000000e+001  0.000000e+000  0.000000e+000
      vertex  7.000000e+001  0.000000e+000  2.130000e+001
    endloop
  endfacet
  facet normal  -0.000000e+000  0.000000e+000  1.000000e+000
    outer loop
      vertex  9.827818e+001  1.193313e+001  2.130000e+001
      vertex  6.000000e+001  1.000000e+001  2.130000e+001
      vertex  6.382684e+001  9.238795e+000  2.130000e+001
    endloop
  endfacet
  facet normal  0.000000e+000  -0.000000e+000  1.000000e+000
    outer loop
      vertex  1.000000e+001  0.000000e+000  2.130000e+001
      vertex  5.000000e+001  1.224647e-015  2.130000e+001
      vertex  5.076120e+001  3.826834e+000  2.130000e+001
    endloop
  endfacet
  facet normal  0.000000e+000  -0.000000e+000  1.000000e+000
    outer loop
      vertex  1.000000e+001  0.000000e+000  2.130000e+001
      vertex  5.076120e+001  3.826834e+000  2.130000e+001
      vertex  5.292893e+001  7.071068e+000  2.130000e+001
    endloop
  endfacet
  facet normal  0.000000e+000  -0.000000e+000  1.000000e+000
    outer loop
      vertex  1.000000e+001  0.000000e+000  2.130000e+001
      vertex  5.292893e+001  7.071068e+000  2.130000e+001
      vertex  5.617316e+001  9.238795e+000  2.130000e+001
    endloop
  endfacet
  facet normal  0.000000e+000  0.000000e+000  1.000000e+000
    outer loop
      vertex  1.000000e+001  2.022500e+001  2.130000e+001
      vertex  1.000000e+001  0.000000e+000  2.130000e+001
      vertex  5.617316e+001  9.238795e+000  2.130000e+001
    endloop
  endfacet
  facet normal  0.000000e+000  -0.000000e+000  1.000000e+000
    outer loop
      vertex  1.000000e+001  2.022500e+001  2.130000e+001
      vertex  5.617316e+001  9.238795e+000  2.130000e+001
      vertex  6.000000e+001  1.000000e+001  2.130000e+001
    endloop
  endfacet
  facet normal  0.000000e+000  -0.000000e+000  1.000000e+000
    outer loop
      vertex  1.000000e+001  2.022500e+001  2.130000e+001
      vertex  6.000000e+001  1.000000e+001  2.130000e+001
      vertex  9.827818e+001  1.193313e+001  2.130000e+001
    endloop
  endfacet
  facet normal  0.000000e+000  0.000000e+000  1.000000e+000
    outer loop
      vertex  1.000000e+001  2.022500e+001  2.130000e+001
      vertex  9.827818e+001  1.193313e+001  2.130000e+001
      vertex  9.612324e+001  2.369225e+001  2.130000e+001
    endloop
  endfacet
  facet normal  0.000000e+000  0.000000e+000  1.000000e+000
    outer loop
      vertex  1.000000e+001  2.022500e+001  2.130000e+001
      vertex  9.612324e+001  2.369225e+001  2.130000e+001
      vertex -4.440892e-015  2.022500e+001  2.130000e+001
    endloop
  endfacet
  facet normal  0.000000e+000  0.000000e+000  1.000000e+000
    outer loop
      vertex -4.440892e-015  2.022500e+001  2.130000e+001
      vertex  9.612324e+001  2.369225e+001  2.130000e+001
      vertex  9.256660e+001  3.510588e+001  2.130000e+001
    endloop
  endfacet
  facet normal  0.000000e+000  0.000000e+000  1.000000e+000
    outer loop
      vertex -4.440892e-015  2.022500e+001  2.130000e+001
      vertex  9.256660e+001  3.510588e+001  2.130000e+001
      vertex  8.766015e+001  4.600760e+001  2.130000e+001
    endloop
  endfacet
  facet normal  0.000000e+000  0.000000e+000  1.000000e+000
    outer loop
      vertex -4.440892e-015  2.022500e+001  2.130000e+001
      vertex  8.766015e+001  4.600760e+001  2.130000e+001
      vertex  8.147540e+001  5.623841e+001  2.130000e+001
    endloop
  endfacet
  facet normal  0.000000e+000  0.000000e+000  1.000000e+000
    outer loop
      vertex -4.440892e-015  2.022500e+001  2.130000e+001
      vertex  8.147540e+001  5.623841e+001  2.130000e+001
      vertex  7.410256e+001  6.564914e+001  2.130000e+001
    endloop
  endfacet
  facet normal  0.000000e+000  0.000000e+000  9.999999e-001
    outer loop
      vertex -4.440892e-015  2.022500e+001  2.130000e+001
      vertex  7.410256e+001  6.564914e+001  2.130000e+001
      vertex  6.564914e+001  7.410256e+001  2.130000e+001
    endloop
  endfacet
  facet normal  0.000000e+000  0.000000e+000  1.000000e+000
    outer loop
      vertex -4.440892e-015  2.022500e+001  2.130000e+001
      vertex  6.564914e+001  7.410256e+001  2.130000e+001
      vertex  5.623841e+001  8.147540e+001  2.130000e+001
    endloop
  endfacet
  facet normal  0.000000e+000  0.000000e+000  1.000000e+000
    outer loop
      vertex -4.440892e-015  2.022500e+001  2.130000e+001
      vertex  5.623841e+001  8.147540e+001  2.130000e+001
      vertex  4.600760e+001  8.766015e+001  2.130000e+001
    endloop
  endfacet
  facet normal  0.000000e+000  0.000000e+000  1.000000e+000
    outer loop
      vertex -4.440892e-015  2.022500e+001  2.130000e+001
      vertex  4.600760e+001  8.766015e+001  2.130000e+001
      vertex  3.510588e+001  9.256660e+001  2.130000e+001
    endloop
  endfacet
  facet normal  0.000000e+000  0.000000e+000  1.000000e+000
    outer loop
      vertex -4.440892e-015  2.022500e+001  2.130000e+001
      vertex  3.510588e+001  9.256660e+001  2.130000e+001
      vertex  2.369225e+001  9.612324e+001  2.130000e+001
    endloop
  endfacet
  facet normal  0.000000e+000  0.000000e+000  1.000000e+000
    outer loop
      vertex -4.440892e-015  2.022500e+001  2.130000e+001
      vertex  2.369225e+001  9.612324e+001  2.130000e+001
      vertex  1.193313e+001  9.827818e+001  2.130000e+001
    endloop
  endfacet
  facet normal  0.000000e+000  0.000000e+000  1.000000e+000
    outer loop
      vertex -4.440892e-015  2.022500e+001  2.130000e+001
      vertex  1.193313e+001  9.827818e+001  2.130000e+001
      vertex  4.452086e-014  9.900000e+001  2.130000e+001
    endloop
  endfacet
  facet normal  0.000000e+000  0.000000e+000  1.000000e+000
    outer loop
      vertex  9.900000e+001  0.000000e+000  2.130000e+001
      vertex  9.827818e+001  1.193313e+001  2.130000e+001
      vertex  6.382684e+001  9.238795e+000  2.130000e+001
    endloop
  endfacet
  facet normal  0.000000e+000  0.000000e+000  1.000000e+000
    outer loop
      vertex  9.900000e+001  0.000000e+000  2.130000e+001
      vertex  6.382684e+001  9.238795e+000  2.130000e+001
      vertex  6.707107e+001  7.071068e+000  2.130000e+001
    endloop
  endfacet
  facet normal  0.000000e+000  0.000000e+000  1.000000e+000
    outer loop
      vertex  9.900000e+001  0.000000e+000  2.130000e+001
      vertex  6.707107e+001  7.071068e+000  2.130000e+001
      vertex  6.923879e+001  3.826834e+000  2.130000e+001
    endloop
  endfacet
  facet normal  0.000000e+000  0.000000e+000  9.999999e-001
    outer loop
      vertex  9.900000e+001  0.000000e+000  2.130000e+001
      vertex  6.923879e+001  3.826834e+000  2.130000e+001
      vertex  7.000000e+001  0.000000e+000  2.130000e+001
    endloop
  endfacet
  facet normal  0.000000e+000  0.000000e+000  9.999999e-001
    outer loop
      vertex  1.235501e+001  1.017527e+002  4.000000e+001
      vertex  6.276315e-015  1.025000e+002  4.000000e+001
      vertex  2.452986e+001  9.952154e+001  4.000000e+001
    endloop
  endfacet
  facet normal  0.000000e+000  0.000000e+000  9.999999e-001
    outer loop
      vertex  2.452986e+001  9.952154e+001  4.000000e+001
      vertex  6.276315e-015  1.025000e+002  4.000000e+001
      vertex  5.002683e-014  9.900000e+001  4.000000e+001
    endloop
  endfacet
  facet normal  -0.000000e+000  0.000000e+000  1.000000e+000
    outer loop
      vertex  2.452986e+001  9.952154e+001  4.000000e+001
      vertex  5.002683e-014  9.900000e+001  4.000000e+001
      vertex  1.193313e+001  9.827818e+001  4.000000e+001
    endloop
  endfacet
  facet normal  -0.000000e+000  0.000000e+000  9.999999e-001
    outer loop
      vertex  2.452986e+001  9.952154e+001  4.000000e+001
      vertex  1.193313e+001  9.827818e+001  4.000000e+001
      vertex  3.634700e+001  9.583916e+001  4.000000e+001
    endloop
  endfacet
  facet normal  0.000000e+000  0.000000e+000  9.999999e-001
    outer loop
      vertex  3.634700e+001  9.583916e+001  4.000000e+001
      vertex  1.193313e+001  9.827818e+001  4.000000e+001
      vertex  2.369225e+001  9.612324e+001  4.000000e+001
    endloop
  endfacet
  facet normal  0.000000e+000  0.000000e+000  1.000000e+000
    outer loop
      vertex  3.634700e+001  9.583916e+001  4.000000e+001
      vertex  2.369225e+001  9.612324e+001  4.000000e+001
      vertex  4.763412e+001  9.075924e+001  4.000000e+001
    endloop
  endfacet
  facet normal  0.000000e+000  0.000000e+000  9.999999e-001
    outer loop
      vertex  4.763412e+001  9.075924e+001  4.000000e+001
      vertex  2.369225e+001  9.612324e+001  4.000000e+001
      vertex  3.510588e+001  9.256660e+001  4.000000e+001
    endloop
  endfacet
  facet normal  0.000000e+000  0.000000e+000  1.000000e+000
    outer loop
      vertex  4.763412e+001  9.075924e+001  4.000000e+001
      vertex  3.510588e+001  9.256660e+001  4.000000e+001
      vertex  5.822663e+001  8.435584e+001  4.000000e+001
    endloop
  endfacet
  facet normal  0.000000e+000  0.000000e+000  1.000000e+000
    outer loop
      vertex  5.822663e+001  8.435584e+001  4.000000e+001
      vertex  3.510588e+001  9.256660e+001  4.000000e+001
      vertex  4.600760e+001  8.766015e+001  4.000000e+001
    endloop
  endfacet
  facet normal  0.000000e+000  0.000000e+000  1.000000e+000
    outer loop
      vertex  5.822663e+001  8.435584e+001  4.000000e+001
      vertex  4.600760e+001  8.766015e+001  4.000000e+001
      vertex  5.623841e+001  8.147540e+001  4.000000e+001
    endloop
  endfacet
  facet normal  -0.000000e+000  0.000000e+000  1.000000e+000
    outer loop
      vertex  5.822663e+001  8.435584e+001  4.000000e+001
      vertex  5.623841e+001  8.147540e+001  4.000000e+001
      vertex  6.797007e+001  7.672235e+001  4.000000e+001
    endloop
  endfacet
  facet normal  0.000000e+000  0.000000e+000  1.000000e+000
    outer loop
      vertex  6.797007e+001  7.672235e+001  4.000000e+001
      vertex  5.623841e+001  8.147540e+001  4.000000e+001
      vertex  6.564914e+001  7.410256e+001  4.000000e+001
    endloop
  endfacet
  facet normal  -0.000000e+000  0.000000e+000  9.999999e-001
    outer loop
      vertex  6.797007e+001  7.672235e+001  4.000000e+001
      vertex  6.564914e+001  7.410256e+001  4.000000e+001
      vertex  7.672235e+001  6.797007e+001  4.000000e+001
    endloop
  endfacet
  facet normal  0.000000e+000  0.000000e+000  1.000000e+000
    outer loop
      vertex  7.672235e+001  6.797007e+001  4.000000e+001
      vertex  6.564914e+001  7.410256e+001  4.000000e+001
      vertex  7.410256e+001  6.564914e+001  4.000000e+001
    endloop
  endfacet
  facet normal  -0.000000e+000  0.000000e+000  1.000000e+000
    outer loop
      vertex  7.672235e+001  6.797007e+001  4.000000e+001
      vertex  7.410256e+001  6.564914e+001  4.000000e+001
      vertex  8.435584e+001  5.822663e+001  4.000000e+001
    endloop
  endfacet
  facet normal  0.000000e+000  0.000000e+000  9.999999e-001
    outer loop
      vertex  8.435584e+001  5.822663e+001  4.000000e+001
      vertex  7.410256e+001  6.564914e+001  4.000000e+001
      vertex  8.147540e+001  5.623841e+001  4.000000e+001
    endloop
  endfacet
  facet normal  -0.000000e+000  0.000000e+000  1.000000e+000
    outer loop
      vertex  8.435584e+001  5.822663e+001  4.000000e+001
      vertex  8.147540e+001  5.623841e+001  4.000000e+001
      vertex  9.075924e+001  4.763412e+001  4.000000e+001
    endloop
  endfacet
  facet normal  0.000000e+000  0.000000e+000  1.000000e+000
    outer loop
      vertex  9.075924e+001  4.763412e+001  4.000000e+001
      vertex  8.147540e+001  5.623841e+001  4.000000e+001
      vertex  8.766015e+001  4.600760e+001  4.000000e+001
    endloop
  endfacet
  facet normal  -0.000000e+000  0.000000e+000  1.000000e+000
    outer loop
      vertex  9.075924e+001  4.763412e+001  4.000000e+001
      vertex  8.766015e+001  4.600760e+001  4.000000e+001
      vertex  9.583916e+001  3.634700e+001  4.000000e+001
    endloop
  endfacet
  facet normal  0.000000e+000  0.000000e+000  9.999999e-001
    outer loop
      vertex  9.583916e+001  3.634700e+001  4.000000e+001
      vertex  8.766015e+001  4.600760e+001  4.000000e+001
      vertex  9.256660e+001  3.510588e+001  4.000000e+001
    endloop
  endfacet
  facet normal  -0.000000e+000  0.000000e+000  9.999999e-001
    outer loop
      vertex  9.583916e+001  3.634700e+001  4.000000e+001
      vertex  9.256660e+001  3.510588e+001  4.000000e+001
      vertex  9.952154e+001  2.452986e+001  4.000000e+001
    endloop
  endfacet
  facet normal  0.000000e+000  0.000000e+000  1.000000e+000
    outer loop
      vertex  9.952154e+001  2.452986e+001  4.000000e+001
      vertex  9.256660e+001  3.510588e+001  4.000000e+001
      vertex  9.612324e+001  2.369225e+001  4.000000e+001
    endloop
  endfacet
  facet normal  -0.000000e+000  0.000000e+000  1.000000e+000
    outer loop
      vertex  9.952154e+001  2.452986e+001  4.000000e+001
      vertex  9.612324e+001  2.369225e+001  4.000000e+001
      vertex  1.017527e+002  1.235501e+001  4.000000e+001
    endloop
  endfacet
  facet normal  0.000000e+000  0.000000e+000  1.000000e+000
    outer loop
      vertex  1.017527e+002  1.235501e+001  4.000000e+001
      vertex  9.612324e+001  2.369225e+001  4.000000e+001
      vertex  9.827818e+001  1.193313e+001  4.000000e+001
    endloop
  endfacet
  facet normal  -0.000000e+000  0.000000e+000  9.999999e-001
    outer loop
      vertex  1.017527e+002  1.235501e+001  4.000000e+001
      vertex  9.827818e+001  1.193313e+001  4.000000e+001
      vertex  1.025000e+002 -2.510526e-014  4.000000e+001
    endloop
  endfacet
  facet normal  0.000000e+000  0.000000e+000  9.999999e-001
    outer loop
      vertex  1.025000e+002 -2.510526e-014  4.000000e+001
      vertex  9.827818e+001  1.193313e+001  4.000000e+001
      vertex  9.900000e+001  0.000000e+000  4.000000e+001
    endloop
  endfacet
  facet normal -6.167192e-001 -7.871832e-001  -0.000000e+000
    outer loop
      vertex  6.564914e+001  7.410256e+001  2.130000e+001
      vertex  5.623841e+001  8.147540e+001  4.000000e+001
      vertex  5.623841e+001  8.147540e+001  2.130000e+001
    endloop
  endfacet
  facet normal -5.173379e-001 -8.557811e-001  0.000000e+000
    outer loop
      vertex  5.623841e+001  8.147540e+001  2.130000e+001
      vertex  5.623841e+001  8.147540e+001  4.000000e+001
      vertex  4.600760e+001  8.766015e+001  4.000000e+001
    endloop
  endfacet
  facet normal -5.173379e-001 -8.557811e-001  -0.000000e+000
    outer loop
      vertex  5.623841e+001  8.147540e+001  2.130000e+001
      vertex  4.600760e+001  8.766015e+001  4.000000e+001
      vertex  4.600760e+001  8.766015e+001  2.130000e+001
    endloop
  endfacet
  facet normal -4.104124e-001 -9.119000e-001  0.000000e+000
    outer loop
      vertex  4.600760e+001  8.766015e+001  2.130000e+001
      vertex  4.600760e+001  8.766015e+001  4.000000e+001
      vertex  3.510588e+001  9.256660e+001  4.000000e+001
    endloop
  endfacet
  facet normal -4.104124e-001 -9.119000e-001  -0.000000e+000
    outer loop
      vertex  4.600760e+001  8.766015e+001  2.130000e+001
      vertex  3.510588e+001  9.256660e+001  4.000000e+001
      vertex  3.510588e+001  9.256660e+001  2.130000e+001
    endloop
  endfacet
  facet normal -2.975031e-001 -9.547209e-001  0.000000e+000
    outer loop
      vertex  3.510588e+001  9.256660e+001  2.130000e+001
      vertex  3.510588e+001  9.256660e+001  4.000000e+001
      vertex  2.369225e+001  9.612324e+001  4.000000e+001
    endloop
  endfacet
  facet normal -2.975031e-001 -9.547209e-001  -0.000000e+000
    outer loop
      vertex  3.510588e+001  9.256660e+001  2.130000e+001
      vertex  2.369225e+001  9.612324e+001  4.000000e+001
      vertex  2.369225e+001  9.612324e+001  2.130000e+001
    endloop
  endfacet
  facet normal -1.802550e-001 -9.836199e-001  0.000000e+000
    outer loop
      vertex  2.369225e+001  9.612324e+001  2.130000e+001
      vertex  2.369225e+001  9.612324e+001  4.000000e+001
      vertex  1.193313e+001  9.827818e+001  4.000000e+001
    endloop
  endfacet
  facet normal -1.802550e-001 -9.836199e-001  -0.000000e+000
    outer loop
      vertex  2.369225e+001  9.612324e+001  2.130000e+001
      vertex  1.193313e+001  9.827818e+001  4.000000e+001
      vertex  1.193313e+001  9.827818e+001  2.130000e+001
    endloop
  endfacet
  facet normal -6.037876e-002 -9.981755e-001  0.000000e+000
    outer loop
      vertex  1.193313e+001  9.827818e+001  2.130000e+001
      vertex  1.193313e+001  9.827818e+001  4.000000e+001
      vertex  5.002683e-014  9.900000e+001  4.000000e+001
    endloop
  endfacet
  facet normal -6.037876e-002 -9.981755e-001  1.777774e-017
    outer loop
      vertex  1.193313e+001  9.827818e+001  2.130000e+001
      vertex  5.002683e-014  9.900000e+001  4.000000e+001
      vertex  4.452086e-014  9.900000e+001  2.130000e+001
    endloop
  endfacet
  facet normal -6.167192e-001 -7.871832e-001  0.000000e+000
    outer loop
      vertex  5.623841e+001  8.147540e+001  4.000000e+001
      vertex  6.564914e+001  7.410256e+001  2.130000e+001
      vertex  6.564914e+001  7.410256e+001  4.000000e+001
    endloop
  endfacet
  facet normal -7.071068e-001 -7.071068e-001  -0.000000e+000
    outer loop
      vertex  6.564914e+001  7.410256e+001  4.000000e+001
      vertex  6.564914e+001  7.410256e+001  2.130000e+001
      vertex  7.410256e+001  6.564914e+001  2.130000e+001
    endloop
  endfacet
  facet normal -7.071068e-001 -7.071068e-001  0.000000e+000
    outer loop
      vertex  6.564914e+001  7.410256e+001  4.000000e+001
      vertex  7.410256e+001  6.564914e+001  2.130000e+001
      vertex  7.410256e+001  6.564914e+001  4.000000e+001
    endloop
  endfacet
  facet normal -7.871832e-001 -6.167192e-001  -0.000000e+000
    outer loop
      vertex  7.410256e+001  6.564914e+001  4.000000e+001
      vertex  7.410256e+001  6.564914e+001  2.130000e+001
      vertex  8.147540e+001  5.623841e+001  2.130000e+001
    endloop
  endfacet
  facet normal -7.871832e-001 -6.167192e-001  0.000000e+000
    outer loop
      vertex  7.410256e+001  6.564914e+001  4.000000e+001
      vertex  8.147540e+001  5.623841e+001  2.130000e+001
      vertex  8.147540e+001  5.623841e+001  4.000000e+001
    endloop
  endfacet
  facet normal -8.557811e-001 -5.173379e-001  -0.000000e+000
    outer loop
      vertex  8.147540e+001  5.623841e+001  4.000000e+001
      vertex  8.147540e+001  5.623841e+001  2.130000e+001
      vertex  8.766015e+001  4.600760e+001  2.130000e+001
    endloop
  endfacet
  facet normal -8.557811e-001 -5.173379e-001  0.000000e+000
    outer loop
      vertex  8.147540e+001  5.623841e+001  4.000000e+001
      vertex  8.766015e+001  4.600760e+001  2.130000e+001
      vertex  8.766015e+001  4.600760e+001  4.000000e+001
    endloop
  endfacet
  facet normal -9.119000e-001 -4.104124e-001  -0.000000e+000
    outer loop
      vertex  8.766015e+001  4.600760e+001  4.000000e+001
      vertex  8.766015e+001  4.600760e+001  2.130000e+001
      vertex  9.256660e+001  3.510588e+001  2.130000e+001
    endloop
  endfacet
  facet normal -9.119000e-001 -4.104124e-001  0.000000e+000
    outer loop
      vertex  8.766015e+001  4.600760e+001  4.000000e+001
      vertex  9.256660e+001  3.510588e+001  2.130000e+001
      vertex  9.256660e+001  3.510588e+001  4.000000e+001
    endloop
  endfacet
  facet normal -9.547209e-001 -2.975031e-001  -0.000000e+000
    outer loop
      vertex  9.256660e+001  3.510588e+001  4.000000e+001
      vertex  9.256660e+001  3.510588e+001  2.130000e+001
      vertex  9.612324e+001  2.369225e+001  2.130000e+001
    endloop
  endfacet
  facet normal -9.547209e-001 -2.975031e-001  0.000000e+000
    outer loop
      vertex  9.256660e+001  3.510588e+001  4.000000e+001
      vertex  9.612324e+001  2.369225e+001  2.130000e+001
      vertex  9.612324e+001  2.369225e+001  4.000000e+001
    endloop
  endfacet
  facet normal -9.836199e-001 -1.802550e-001  -0.000000e+000
    outer loop
      vertex  9.612324e+001  2.369225e+001  4.000000e+001
      vertex  9.612324e+001  2.369225e+001  2.130000e+001
      vertex  9.827818e+001  1.193313e+001  2.130000e+001
    endloop
  endfacet
  facet normal -9.836199e-001 -1.802550e-001  0.000000e+000
    outer loop
      vertex  9.612324e+001  2.369225e+001  4.000000e+001
      vertex  9.827818e+001  1.193313e+001  2.130000e+001
      vertex  9.827818e+001  1.193313e+001  4.000000e+001
    endloop
  endfacet
  facet normal -9.981755e-001 -6.037876e-002  -0.000000e+000
    outer loop
      vertex  9.827818e+001  1.193313e+001  4.000000e+001
      vertex  9.827818e+001  1.193313e+001  2.130000e+001
      vertex  9.900000e+001  0.000000e+000  2.130000e+001
    endloop
  endfacet
  facet normal -9.981755e-001 -6.037876e-002  0.000000e+000
    outer loop
      vertex  9.827818e+001  1.193313e+001  4.000000e+001
      vertex  9.900000e+001  0.000000e+000  2.130000e+001
      vertex  9.900000e+001  0.000000e+000  4.000000e+001
    endloop
  endfacet
  facet normal  0.000000e+000 -1.000000e+000  0.000000e+000
    outer loop
      vertex  0.000000e+000  2.022500e+001  1.900000e+001
      vertex  1.000000e+001  2.022500e+001  1.900000e+001
      vertex -4.440892e-015  2.022500e+001  2.130000e+001
    endloop
  endfacet
  facet normal  0.000000e+000 -1.000000e+000  0.000000e+000
    outer loop
      vertex -4.440892e-015  2.022500e+001  2.130000e+001
      vertex  1.000000e+001  2.022500e+001  1.900000e+001
      vertex  1.000000e+001  2.022500e+001  2.130000e+001
    endloop
  endfacet
  facet normal  0.000000e+000  0.000000e+000 -1.000000e+000
    outer loop
      vertex  0.000000e+000  2.022500e+001  1.900000e+001
      vertex  0.000000e+000  3.000000e+001  1.900000e+001
      vertex  1.000000e+001  2.022500e+001  1.900000e+001
    endloop
  endfacet
  facet normal  0.000000e+000  0.000000e+000 -1.000000e+000
    outer loop
      vertex  1.000000e+001  2.022500e+001  1.900000e+001
      vertex  0.000000e+000  3.000000e+001  1.900000e+001
      vertex  1.000000e+001  3.000000e+001  1.900000e+001
    endloop
  endfacet
endsolid CATIA STL
