solid CATIA STL
  facet normal -9.999999e-001  -0.000000e+000  0.000000e+000
    outer loop
      vertex -1.500000e+000 -3.100000e+001  1.750000e+001
      vertex -1.500000e+000  3.100000e+001  1.750000e+001
      vertex -1.500000e+000  1.978298e+000  1.121949e+001
    endloop
  endfacet
  facet normal -1.000000e+000  0.000000e+000  0.000000e+000
    outer loop
      vertex -1.500000e+000 -3.100000e+001  1.750000e+001
      vertex -1.500000e+000  1.978298e+000  1.121949e+001
      vertex -1.500000e+000 -1.978298e+000  1.121949e+001
    endloop
  endfacet
  facet normal -1.000000e+000  -0.000000e+000  0.000000e+000
    outer loop
      vertex -1.500000e+000 -3.100000e+001  1.750000e+001
      vertex -1.500000e+000 -1.978298e+000  1.121949e+001
      vertex -1.500000e+000 -5.696282e+000  9.866251e+000
    endloop
  endfacet
  facet normal -1.000000e+000  -0.000000e+000  0.000000e+000
    outer loop
      vertex -1.500000e+000 -3.100000e+001  1.750000e+001
      vertex -1.500000e+000 -5.696282e+000  9.866251e+000
      vertex -1.500000e+000 -8.727211e+000  7.323000e+000
    endloop
  endfacet
  facet normal -1.000000e+000  -0.000000e+000  0.000000e+000
    outer loop
      vertex -1.500000e+000 -3.100000e+001  1.750000e+001
      vertex -1.500000e+000 -8.727211e+000  7.323000e+000
      vertex -1.500000e+000 -3.100000e+001 -1.750000e+001
    endloop
  endfacet
  facet normal -9.999999e-001  0.000000e+000  0.000000e+000
    outer loop
      vertex -1.500000e+000 -3.100000e+001 -1.750000e+001
      vertex -1.500000e+000 -8.727211e+000  7.323000e+000
      vertex -1.500000e+000 -1.070551e+001  3.896487e+000
    endloop
  endfacet
  facet normal -1.000000e+000  0.000000e+000  0.000000e+000
    outer loop
      vertex -1.500000e+000 -3.100000e+001 -1.750000e+001
      vertex -1.500000e+000 -1.070551e+001  3.896487e+000
      vertex -1.500000e+000 -1.139256e+001  1.395187e-015
    endloop
  endfacet
  facet normal -1.000000e+000  0.000000e+000  -0.000000e+000
    outer loop
      vertex -1.500000e+000 -3.100000e+001 -1.750000e+001
      vertex -1.500000e+000 -1.139256e+001  1.395187e-015
      vertex -1.500000e+000 -1.070551e+001 -3.896487e+000
    endloop
  endfacet
  facet normal -1.000000e+000  0.000000e+000  -0.000000e+000
    outer loop
      vertex -1.500000e+000 -3.100000e+001 -1.750000e+001
      vertex -1.500000e+000 -1.070551e+001 -3.896487e+000
      vertex -1.500000e+000 -8.727211e+000 -7.323000e+000
    endloop
  endfacet
  facet normal -1.000000e+000  0.000000e+000  -0.000000e+000
    outer loop
      vertex -1.500000e+000 -3.100000e+001 -1.750000e+001
      vertex -1.500000e+000 -8.727211e+000 -7.323000e+000
      vertex -1.500000e+000 -5.696282e+000 -9.866251e+000
    endloop
  endfacet
  facet normal -1.000000e+000  0.000000e+000  -0.000000e+000
    outer loop
      vertex -1.500000e+000 -3.100000e+001 -1.750000e+001
      vertex -1.500000e+000 -5.696282e+000 -9.866251e+000
      vertex -1.500000e+000 -1.978298e+000 -1.121949e+001
    endloop
  endfacet
  facet normal -1.000000e+000  0.000000e+000  -0.000000e+000
    outer loop
      vertex -1.500000e+000 -3.100000e+001 -1.750000e+001
      vertex -1.500000e+000 -1.978298e+000 -1.121949e+001
      vertex -1.500000e+000  1.978298e+000 -1.121949e+001
    endloop
  endfacet
  facet normal -9.999999e-001  0.000000e+000  -0.000000e+000
    outer loop
      vertex -1.500000e+000 -3.100000e+001 -1.750000e+001
      vertex -1.500000e+000  1.978298e+000 -1.121949e+001
      vertex -1.500000e+000  3.100000e+001 -1.750000e+001
    endloop
  endfacet
  facet normal -1.000000e+000  0.000000e+000  0.000000e+000
    outer loop
      vertex -1.500000e+000  3.100000e+001 -1.750000e+001
      vertex -1.500000e+000  1.978298e+000 -1.121949e+001
      vertex -1.500000e+000  5.696282e+000 -9.866251e+000
    endloop
  endfacet
  facet normal -1.000000e+000  0.000000e+000  0.000000e+000
    outer loop
      vertex -1.500000e+000  3.100000e+001 -1.750000e+001
      vertex -1.500000e+000  5.696282e+000 -9.866251e+000
      vertex -1.500000e+000  8.727211e+000 -7.323000e+000
    endloop
  endfacet
  facet normal -1.000000e+000  0.000000e+000  0.000000e+000
    outer loop
      vertex -1.500000e+000  3.100000e+001 -1.750000e+001
      vertex -1.500000e+000  8.727211e+000 -7.323000e+000
      vertex -1.500000e+000  1.070551e+001 -3.896487e+000
    endloop
  endfacet
  facet normal -1.000000e+000  0.000000e+000  0.000000e+000
    outer loop
      vertex -1.500000e+000  3.100000e+001 -1.750000e+001
      vertex -1.500000e+000  1.070551e+001 -3.896487e+000
      vertex -1.500000e+000  1.139256e+001  0.000000e+000
    endloop
  endfacet
  facet normal -1.000000e+000  0.000000e+000  0.000000e+000
    outer loop
      vertex -1.500000e+000  3.100000e+001 -1.750000e+001
      vertex -1.500000e+000  1.139256e+001  0.000000e+000
      vertex -1.500000e+000  1.070551e+001  3.896487e+000
    endloop
  endfacet
  facet normal -1.000000e+000  0.000000e+000  0.000000e+000
    outer loop
      vertex -1.500000e+000  3.100000e+001 -1.750000e+001
      vertex -1.500000e+000  1.070551e+001  3.896487e+000
      vertex -1.500000e+000  8.727211e+000  7.323000e+000
    endloop
  endfacet
  facet normal -1.000000e+000  0.000000e+000  0.000000e+000
    outer loop
      vertex -1.500000e+000  3.100000e+001  1.750000e+001
      vertex -1.500000e+000  3.100000e+001 -1.750000e+001
      vertex -1.500000e+000  8.727211e+000  7.323000e+000
    endloop
  endfacet
  facet normal -1.000000e+000  0.000000e+000  0.000000e+000
    outer loop
      vertex -1.500000e+000  3.100000e+001  1.750000e+001
      vertex -1.500000e+000  8.727211e+000  7.323000e+000
      vertex -1.500000e+000  5.696282e+000  9.866251e+000
    endloop
  endfacet
  facet normal -1.000000e+000  0.000000e+000  0.000000e+000
    outer loop
      vertex -1.500000e+000  3.100000e+001  1.750000e+001
      vertex -1.500000e+000  5.696282e+000  9.866251e+000
      vertex -1.500000e+000  1.978298e+000  1.121949e+001
    endloop
  endfacet
  facet normal  1.000000e+000  0.000000e+000  0.000000e+000
    outer loop
      vertex  1.500000e+000 -3.100000e+001  1.750000e+001
      vertex  1.500000e+000 -3.100000e+001 -1.750000e+001
      vertex  1.500000e+000 -8.727211e+000  7.323000e+000
    endloop
  endfacet
  facet normal  1.000000e+000  0.000000e+000  -0.000000e+000
    outer loop
      vertex  1.500000e+000 -3.100000e+001  1.750000e+001
      vertex  1.500000e+000 -8.727211e+000  7.323000e+000
      vertex  1.500000e+000 -5.696282e+000  9.866251e+000
    endloop
  endfacet
  facet normal  1.000000e+000  0.000000e+000  -0.000000e+000
    outer loop
      vertex  1.500000e+000 -3.100000e+001  1.750000e+001
      vertex  1.500000e+000 -5.696282e+000  9.866251e+000
      vertex  1.500000e+000 -1.978298e+000  1.121949e+001
    endloop
  endfacet
  facet normal  1.000000e+000  0.000000e+000  -0.000000e+000
    outer loop
      vertex  1.500000e+000 -3.100000e+001  1.750000e+001
      vertex  1.500000e+000 -1.978298e+000  1.121949e+001
      vertex  1.500000e+000  1.978298e+000  1.121949e+001
    endloop
  endfacet
  facet normal  9.999999e-001  0.000000e+000  -0.000000e+000
    outer loop
      vertex  1.500000e+000 -3.100000e+001  1.750000e+001
      vertex  1.500000e+000  1.978298e+000  1.121949e+001
      vertex  1.500000e+000  3.100000e+001  1.750000e+001
    endloop
  endfacet
  facet normal  9.999999e-001  0.000000e+000  0.000000e+000
    outer loop
      vertex  1.500000e+000 -3.100000e+001 -1.750000e+001
      vertex  1.500000e+000  3.100000e+001 -1.750000e+001
      vertex  1.500000e+000  1.978298e+000 -1.121949e+001
    endloop
  endfacet
  facet normal  1.000000e+000  0.000000e+000  0.000000e+000
    outer loop
      vertex  1.500000e+000 -3.100000e+001 -1.750000e+001
      vertex  1.500000e+000  1.978298e+000 -1.121949e+001
      vertex  1.500000e+000 -1.978298e+000 -1.121949e+001
    endloop
  endfacet
  facet normal  1.000000e+000  0.000000e+000  0.000000e+000
    outer loop
      vertex  1.500000e+000 -3.100000e+001 -1.750000e+001
      vertex  1.500000e+000 -1.978298e+000 -1.121949e+001
      vertex  1.500000e+000 -5.696282e+000 -9.866251e+000
    endloop
  endfacet
  facet normal  1.000000e+000  0.000000e+000  0.000000e+000
    outer loop
      vertex  1.500000e+000 -3.100000e+001 -1.750000e+001
      vertex  1.500000e+000 -5.696282e+000 -9.866251e+000
      vertex  1.500000e+000 -8.727211e+000 -7.323000e+000
    endloop
  endfacet
  facet normal  1.000000e+000  0.000000e+000  0.000000e+000
    outer loop
      vertex  1.500000e+000 -3.100000e+001 -1.750000e+001
      vertex  1.500000e+000 -8.727211e+000 -7.323000e+000
      vertex  1.500000e+000 -1.070551e+001 -3.896487e+000
    endloop
  endfacet
  facet normal  1.000000e+000  0.000000e+000  0.000000e+000
    outer loop
      vertex  1.500000e+000 -3.100000e+001 -1.750000e+001
      vertex  1.500000e+000 -1.070551e+001 -3.896487e+000
      vertex  1.500000e+000 -1.139256e+001  1.395187e-015
    endloop
  endfacet
  facet normal  1.000000e+000  0.000000e+000  -0.000000e+000
    outer loop
      vertex  1.500000e+000 -3.100000e+001 -1.750000e+001
      vertex  1.500000e+000 -1.139256e+001  1.395187e-015
      vertex  1.500000e+000 -1.070551e+001  3.896487e+000
    endloop
  endfacet
  facet normal  1.000000e+000  0.000000e+000  -0.000000e+000
    outer loop
      vertex  1.500000e+000 -3.100000e+001 -1.750000e+001
      vertex  1.500000e+000 -1.070551e+001  3.896487e+000
      vertex  1.500000e+000 -8.727211e+000  7.323000e+000
    endloop
  endfacet
  facet normal  9.999999e-001  0.000000e+000  0.000000e+000
    outer loop
      vertex  1.500000e+000  3.100000e+001 -1.750000e+001
      vertex  1.500000e+000  8.727211e+000  7.323000e+000
      vertex  1.500000e+000  1.070551e+001  3.896487e+000
    endloop
  endfacet
  facet normal  1.000000e+000  0.000000e+000  0.000000e+000
    outer loop
      vertex  1.500000e+000  3.100000e+001 -1.750000e+001
      vertex  1.500000e+000  1.070551e+001  3.896487e+000
      vertex  1.500000e+000  1.139256e+001  0.000000e+000
    endloop
  endfacet
  facet normal  1.000000e+000  0.000000e+000  0.000000e+000
    outer loop
      vertex  1.500000e+000  3.100000e+001 -1.750000e+001
      vertex  1.500000e+000  1.139256e+001  0.000000e+000
      vertex  1.500000e+000  1.070551e+001 -3.896487e+000
    endloop
  endfacet
  facet normal  1.000000e+000  0.000000e+000  0.000000e+000
    outer loop
      vertex  1.500000e+000  3.100000e+001 -1.750000e+001
      vertex  1.500000e+000  1.070551e+001 -3.896487e+000
      vertex  1.500000e+000  8.727211e+000 -7.323000e+000
    endloop
  endfacet
  facet normal  1.000000e+000  0.000000e+000  0.000000e+000
    outer loop
      vertex  1.500000e+000  3.100000e+001 -1.750000e+001
      vertex  1.500000e+000  8.727211e+000 -7.323000e+000
      vertex  1.500000e+000  5.696282e+000 -9.866251e+000
    endloop
  endfacet
  facet normal  1.000000e+000  0.000000e+000  0.000000e+000
    outer loop
      vertex  1.500000e+000  3.100000e+001 -1.750000e+001
      vertex  1.500000e+000  5.696282e+000 -9.866251e+000
      vertex  1.500000e+000  1.978298e+000 -1.121949e+001
    endloop
  endfacet
  facet normal  1.000000e+000  -0.000000e+000  0.000000e+000
    outer loop
      vertex  1.500000e+000  3.100000e+001  1.750000e+001
      vertex  1.500000e+000  1.978298e+000  1.121949e+001
      vertex  1.500000e+000  5.696282e+000  9.866251e+000
    endloop
  endfacet
  facet normal  1.000000e+000  -0.000000e+000  0.000000e+000
    outer loop
      vertex  1.500000e+000  3.100000e+001  1.750000e+001
      vertex  1.500000e+000  5.696282e+000  9.866251e+000
      vertex  1.500000e+000  8.727211e+000  7.323000e+000
    endloop
  endfacet
  facet normal  1.000000e+000  -0.000000e+000  0.000000e+000
    outer loop
      vertex  1.500000e+000  3.100000e+001  1.750000e+001
      vertex  1.500000e+000  8.727211e+000  7.323000e+000
      vertex  1.500000e+000  3.100000e+001 -1.750000e+001
    endloop
  endfacet
  facet normal  0.000000e+000 -3.420201e-001  9.396926e-001
    outer loop
      vertex -1.500000e+000  1.978298e+000 -1.121949e+001
      vertex  1.500000e+000  5.696282e+000 -9.866251e+000
      vertex -1.500000e+000  5.696282e+000 -9.866251e+000
    endloop
  endfacet
  facet normal  0.000000e+000 -6.427876e-001  7.660444e-001
    outer loop
      vertex -1.500000e+000  5.696282e+000 -9.866251e+000
      vertex  1.500000e+000  5.696282e+000 -9.866251e+000
      vertex  1.500000e+000  8.727211e+000 -7.323000e+000
    endloop
  endfacet
  facet normal  0.000000e+000 -6.427876e-001  7.660444e-001
    outer loop
      vertex -1.500000e+000  5.696282e+000 -9.866251e+000
      vertex  1.500000e+000  8.727211e+000 -7.323000e+000
      vertex -1.500000e+000  8.727211e+000 -7.323000e+000
    endloop
  endfacet
  facet normal  0.000000e+000 -8.660254e-001  5.000000e-001
    outer loop
      vertex -1.500000e+000  8.727211e+000 -7.323000e+000
      vertex  1.500000e+000  8.727211e+000 -7.323000e+000
      vertex  1.500000e+000  1.070551e+001 -3.896487e+000
    endloop
  endfacet
  facet normal  0.000000e+000 -8.660254e-001  5.000000e-001
    outer loop
      vertex -1.500000e+000  8.727211e+000 -7.323000e+000
      vertex  1.500000e+000  1.070551e+001 -3.896487e+000
      vertex -1.500000e+000  1.070551e+001 -3.896487e+000
    endloop
  endfacet
  facet normal  0.000000e+000 -9.848077e-001  1.736481e-001
    outer loop
      vertex -1.500000e+000  1.070551e+001 -3.896487e+000
      vertex  1.500000e+000  1.070551e+001 -3.896487e+000
      vertex  1.500000e+000  1.139256e+001  0.000000e+000
    endloop
  endfacet
  facet normal  0.000000e+000 -9.848077e-001  1.736481e-001
    outer loop
      vertex -1.500000e+000  1.070551e+001 -3.896487e+000
      vertex  1.500000e+000  1.139256e+001  0.000000e+000
      vertex -1.500000e+000  1.139256e+001  0.000000e+000
    endloop
  endfacet
  facet normal  0.000000e+000 -3.420201e-001  9.396926e-001
    outer loop
      vertex  1.500000e+000  5.696282e+000 -9.866251e+000
      vertex -1.500000e+000  1.978298e+000 -1.121949e+001
      vertex  1.500000e+000  1.978298e+000 -1.121949e+001
    endloop
  endfacet
  facet normal  0.000000e+000  0.000000e+000  9.999999e-001
    outer loop
      vertex  1.500000e+000  1.978298e+000 -1.121949e+001
      vertex -1.500000e+000  1.978298e+000 -1.121949e+001
      vertex -1.500000e+000 -1.978298e+000 -1.121949e+001
    endloop
  endfacet
  facet normal  0.000000e+000  0.000000e+000  9.999999e-001
    outer loop
      vertex  1.500000e+000  1.978298e+000 -1.121949e+001
      vertex -1.500000e+000 -1.978298e+000 -1.121949e+001
      vertex  1.500000e+000 -1.978298e+000 -1.121949e+001
    endloop
  endfacet
  facet normal  0.000000e+000  3.420201e-001  9.396926e-001
    outer loop
      vertex  1.500000e+000 -1.978298e+000 -1.121949e+001
      vertex -1.500000e+000 -1.978298e+000 -1.121949e+001
      vertex -1.500000e+000 -5.696282e+000 -9.866251e+000
    endloop
  endfacet
  facet normal  -0.000000e+000  3.420201e-001  9.396926e-001
    outer loop
      vertex  1.500000e+000 -1.978298e+000 -1.121949e+001
      vertex -1.500000e+000 -5.696282e+000 -9.866251e+000
      vertex  1.500000e+000 -5.696282e+000 -9.866251e+000
    endloop
  endfacet
  facet normal  0.000000e+000  6.427876e-001  7.660444e-001
    outer loop
      vertex  1.500000e+000 -5.696282e+000 -9.866251e+000
      vertex -1.500000e+000 -5.696282e+000 -9.866251e+000
      vertex -1.500000e+000 -8.727211e+000 -7.323000e+000
    endloop
  endfacet
  facet normal  -0.000000e+000  6.427876e-001  7.660444e-001
    outer loop
      vertex  1.500000e+000 -5.696282e+000 -9.866251e+000
      vertex -1.500000e+000 -8.727211e+000 -7.323000e+000
      vertex  1.500000e+000 -8.727211e+000 -7.323000e+000
    endloop
  endfacet
  facet normal  0.000000e+000  8.660254e-001  5.000000e-001
    outer loop
      vertex  1.500000e+000 -8.727211e+000 -7.323000e+000
      vertex -1.500000e+000 -8.727211e+000 -7.323000e+000
      vertex -1.500000e+000 -1.070551e+001 -3.896487e+000
    endloop
  endfacet
  facet normal  -0.000000e+000  8.660254e-001  5.000000e-001
    outer loop
      vertex  1.500000e+000 -8.727211e+000 -7.323000e+000
      vertex -1.500000e+000 -1.070551e+001 -3.896487e+000
      vertex  1.500000e+000 -1.070551e+001 -3.896487e+000
    endloop
  endfacet
  facet normal  0.000000e+000  9.848077e-001  1.736481e-001
    outer loop
      vertex  1.500000e+000 -1.070551e+001 -3.896487e+000
      vertex -1.500000e+000 -1.070551e+001 -3.896487e+000
      vertex -1.500000e+000 -1.139256e+001  1.395187e-015
    endloop
  endfacet
  facet normal  -0.000000e+000  9.848077e-001  1.736481e-001
    outer loop
      vertex  1.500000e+000 -1.070551e+001 -3.896487e+000
      vertex -1.500000e+000 -1.139256e+001  1.395187e-015
      vertex  1.500000e+000 -1.139256e+001  1.395187e-015
    endloop
  endfacet
  facet normal  0.000000e+000  3.420201e-001 -9.396926e-001
    outer loop
      vertex -1.500000e+000 -1.978298e+000  1.121949e+001
      vertex  1.500000e+000 -5.696282e+000  9.866251e+000
      vertex -1.500000e+000 -5.696282e+000  9.866251e+000
    endloop
  endfacet
  facet normal  0.000000e+000  6.427876e-001 -7.660444e-001
    outer loop
      vertex -1.500000e+000 -5.696282e+000  9.866251e+000
      vertex  1.500000e+000 -5.696282e+000  9.866251e+000
      vertex  1.500000e+000 -8.727211e+000  7.323000e+000
    endloop
  endfacet
  facet normal  0.000000e+000  6.427876e-001 -7.660444e-001
    outer loop
      vertex -1.500000e+000 -5.696282e+000  9.866251e+000
      vertex  1.500000e+000 -8.727211e+000  7.323000e+000
      vertex -1.500000e+000 -8.727211e+000  7.323000e+000
    endloop
  endfacet
  facet normal  0.000000e+000  8.660254e-001 -5.000000e-001
    outer loop
      vertex -1.500000e+000 -8.727211e+000  7.323000e+000
      vertex  1.500000e+000 -8.727211e+000  7.323000e+000
      vertex  1.500000e+000 -1.070551e+001  3.896487e+000
    endloop
  endfacet
  facet normal  0.000000e+000  8.660254e-001 -5.000000e-001
    outer loop
      vertex -1.500000e+000 -8.727211e+000  7.323000e+000
      vertex  1.500000e+000 -1.070551e+001  3.896487e+000
      vertex -1.500000e+000 -1.070551e+001  3.896487e+000
    endloop
  endfacet
  facet normal  0.000000e+000  9.848077e-001 -1.736481e-001
    outer loop
      vertex -1.500000e+000 -1.070551e+001  3.896487e+000
      vertex  1.500000e+000 -1.070551e+001  3.896487e+000
      vertex  1.500000e+000 -1.139256e+001  1.395187e-015
    endloop
  endfacet
  facet normal  0.000000e+000  9.848077e-001 -1.736481e-001
    outer loop
      vertex -1.500000e+000 -1.070551e+001  3.896487e+000
      vertex  1.500000e+000 -1.139256e+001  1.395187e-015
      vertex -1.500000e+000 -1.139256e+001  1.395187e-015
    endloop
  endfacet
  facet normal  0.000000e+000  3.420201e-001 -9.396926e-001
    outer loop
      vertex  1.500000e+000 -5.696282e+000  9.866251e+000
      vertex -1.500000e+000 -1.978298e+000  1.121949e+001
      vertex  1.500000e+000 -1.978298e+000  1.121949e+001
    endloop
  endfacet
  facet normal  0.000000e+000  0.000000e+000 -9.999999e-001
    outer loop
      vertex  1.500000e+000 -1.978298e+000  1.121949e+001
      vertex -1.500000e+000 -1.978298e+000  1.121949e+001
      vertex -1.500000e+000  1.978298e+000  1.121949e+001
    endloop
  endfacet
  facet normal  0.000000e+000  0.000000e+000 -9.999999e-001
    outer loop
      vertex  1.500000e+000 -1.978298e+000  1.121949e+001
      vertex -1.500000e+000  1.978298e+000  1.121949e+001
      vertex  1.500000e+000  1.978298e+000  1.121949e+001
    endloop
  endfacet
  facet normal  -0.000000e+000 -3.420201e-001 -9.396926e-001
    outer loop
      vertex  1.500000e+000  1.978298e+000  1.121949e+001
      vertex -1.500000e+000  1.978298e+000  1.121949e+001
      vertex -1.500000e+000  5.696282e+000  9.866251e+000
    endloop
  endfacet
  facet normal  0.000000e+000 -3.420201e-001 -9.396926e-001
    outer loop
      vertex  1.500000e+000  1.978298e+000  1.121949e+001
      vertex -1.500000e+000  5.696282e+000  9.866251e+000
      vertex  1.500000e+000  5.696282e+000  9.866251e+000
    endloop
  endfacet
  facet normal  -0.000000e+000 -6.427876e-001 -7.660444e-001
    outer loop
      vertex  1.500000e+000  5.696282e+000  9.866251e+000
      vertex -1.500000e+000  5.696282e+000  9.866251e+000
      vertex -1.500000e+000  8.727211e+000  7.323000e+000
    endloop
  endfacet
  facet normal  0.000000e+000 -6.427876e-001 -7.660444e-001
    outer loop
      vertex  1.500000e+000  5.696282e+000  9.866251e+000
      vertex -1.500000e+000  8.727211e+000  7.323000e+000
      vertex  1.500000e+000  8.727211e+000  7.323000e+000
    endloop
  endfacet
  facet normal  -0.000000e+000 -8.660254e-001 -5.000000e-001
    outer loop
      vertex  1.500000e+000  8.727211e+000  7.323000e+000
      vertex -1.500000e+000  8.727211e+000  7.323000e+000
      vertex -1.500000e+000  1.070551e+001  3.896487e+000
    endloop
  endfacet
  facet normal  0.000000e+000 -8.660254e-001 -5.000000e-001
    outer loop
      vertex  1.500000e+000  8.727211e+000  7.323000e+000
      vertex -1.500000e+000  1.070551e+001  3.896487e+000
      vertex  1.500000e+000  1.070551e+001  3.896487e+000
    endloop
  endfacet
  facet normal  -0.000000e+000 -9.848077e-001 -1.736481e-001
    outer loop
      vertex  1.500000e+000  1.070551e+001  3.896487e+000
      vertex -1.500000e+000  1.070551e+001  3.896487e+000
      vertex -1.500000e+000  1.139256e+001  0.000000e+000
    endloop
  endfacet
  facet normal  0.000000e+000 -9.848077e-001 -1.736481e-001
    outer loop
      vertex  1.500000e+000  1.070551e+001  3.896487e+000
      vertex -1.500000e+000  1.139256e+001  0.000000e+000
      vertex  1.500000e+000  1.139256e+001  0.000000e+000
    endloop
  endfacet
  facet normal  0.000000e+000  1.000000e+000  -0.000000e+000
    outer loop
      vertex  1.500000e+000  3.100000e+001  1.750000e+001
      vertex  1.500000e+000  3.100000e+001 -1.750000e+001
      vertex -1.500000e+000  3.100000e+001  1.750000e+001
    endloop
  endfacet
  facet normal  0.000000e+000  1.000000e+000  0.000000e+000
    outer loop
      vertex -1.500000e+000  3.100000e+001  1.750000e+001
      vertex  1.500000e+000  3.100000e+001 -1.750000e+001
      vertex -1.500000e+000  3.100000e+001 -1.750000e+001
    endloop
  endfacet
  facet normal  0.000000e+000  0.000000e+000 -1.000000e+000
    outer loop
      vertex  1.500000e+000  3.100000e+001 -1.750000e+001
      vertex  1.500000e+000 -3.100000e+001 -1.750000e+001
      vertex -1.500000e+000  3.100000e+001 -1.750000e+001
    endloop
  endfacet
  facet normal  0.000000e+000  0.000000e+000 -1.000000e+000
    outer loop
      vertex -1.500000e+000  3.100000e+001 -1.750000e+001
      vertex  1.500000e+000 -3.100000e+001 -1.750000e+001
      vertex -1.500000e+000 -3.100000e+001 -1.750000e+001
    endloop
  endfacet
  facet normal  0.000000e+000 -1.000000e+000  -0.000000e+000
    outer loop
      vertex  1.500000e+000 -3.100000e+001 -1.750000e+001
      vertex  1.500000e+000 -3.100000e+001  1.750000e+001
      vertex -1.500000e+000 -3.100000e+001 -1.750000e+001
    endloop
  endfacet
  facet normal  0.000000e+000 -1.000000e+000  0.000000e+000
    outer loop
      vertex -1.500000e+000 -3.100000e+001 -1.750000e+001
      vertex  1.500000e+000 -3.100000e+001  1.750000e+001
      vertex -1.500000e+000 -3.100000e+001  1.750000e+001
    endloop
  endfacet
  facet normal  0.000000e+000  0.000000e+000  1.000000e+000
    outer loop
      vertex  1.500000e+000 -3.100000e+001  1.750000e+001
      vertex  1.500000e+000  3.100000e+001  1.750000e+001
      vertex -1.500000e+000 -3.100000e+001  1.750000e+001
    endloop
  endfacet
  facet normal  0.000000e+000  0.000000e+000  1.000000e+000
    outer loop
      vertex -1.500000e+000 -3.100000e+001  1.750000e+001
      vertex  1.500000e+000  3.100000e+001  1.750000e+001
      vertex -1.500000e+000  3.100000e+001  1.750000e+001
    endloop
  endfacet
endsolid CATIA STL
