solid CATIA STL
  facet normal  -0.000000e+000  0.000000e+000  1.000000e+000
    outer loop
      vertex  1.616120e+002  8.000000e+001  3.000000e+000
      vertex  6.487681e+001  8.000000e+001  3.000000e+000
      vertex  7.388596e+001  7.176257e+001  3.000000e+000
    endloop
  endfacet
  facet normal  -0.000000e+000  0.000000e+000  1.000000e+000
    outer loop
      vertex  1.616120e+002  8.000000e+001  3.000000e+000
      vertex  7.388596e+001  7.176257e+001  3.000000e+000
      vertex  8.185726e+001  6.251711e+001  3.000000e+000
    endloop
  endfacet
  facet normal  -0.000000e+000  0.000000e+000  1.000000e+000
    outer loop
      vertex  1.616120e+002  8.000000e+001  3.000000e+000
      vertex  8.185726e+001  6.251711e+001  3.000000e+000
      vertex  8.867875e+001  5.239350e+001  3.000000e+000
    endloop
  endfacet
  facet normal  -0.000000e+000  0.000000e+000  1.000000e+000
    outer loop
      vertex  1.616120e+002  8.000000e+001  3.000000e+000
      vertex  8.867875e+001  5.239350e+001  3.000000e+000
      vertex  9.425461e+001  4.153394e+001  3.000000e+000
    endloop
  endfacet
  facet normal  -0.000000e+000  0.000000e+000  1.000000e+000
    outer loop
      vertex  1.616120e+002  8.000000e+001  3.000000e+000
      vertex  9.425461e+001  4.153394e+001  3.000000e+000
      vertex  9.850652e+001  3.009098e+001  3.000000e+000
    endloop
  endfacet
  facet normal  -0.000000e+000  0.000000e+000  1.000000e+000
    outer loop
      vertex  1.616120e+002  8.000000e+001  3.000000e+000
      vertex  9.850652e+001  3.009098e+001  3.000000e+000
      vertex  1.013747e+002  1.822534e+001  3.000000e+000
    endloop
  endfacet
  facet normal  -0.000000e+000  0.000000e+000  1.000000e+000
    outer loop
      vertex  1.616120e+002  8.000000e+001  3.000000e+000
      vertex  1.013747e+002  1.822534e+001  3.000000e+000
      vertex  1.028190e+002  6.103691e+000  3.000000e+000
    endloop
  endfacet
  facet normal  -0.000000e+000  0.000000e+000  1.000000e+000
    outer loop
      vertex  1.616120e+002  8.000000e+001  3.000000e+000
      vertex  1.028190e+002  6.103691e+000  3.000000e+000
      vertex  1.028190e+002 -6.103691e+000  3.000000e+000
    endloop
  endfacet
  facet normal  -0.000000e+000  0.000000e+000  1.000000e+000
    outer loop
      vertex  1.616120e+002  8.000000e+001  3.000000e+000
      vertex  1.028190e+002 -6.103691e+000  3.000000e+000
      vertex  1.616120e+002 -8.000000e+001  3.000000e+000
    endloop
  endfacet
  facet normal  0.000000e+000  0.000000e+000  1.000000e+000
    outer loop
      vertex  1.616120e+002 -8.000000e+001  3.000000e+000
      vertex  1.028190e+002 -6.103691e+000  3.000000e+000
      vertex  1.013747e+002 -1.822534e+001  3.000000e+000
    endloop
  endfacet
  facet normal  0.000000e+000  0.000000e+000  1.000000e+000
    outer loop
      vertex  1.616120e+002 -8.000000e+001  3.000000e+000
      vertex  1.013747e+002 -1.822534e+001  3.000000e+000
      vertex  9.850652e+001 -3.009098e+001  3.000000e+000
    endloop
  endfacet
  facet normal  0.000000e+000  0.000000e+000  1.000000e+000
    outer loop
      vertex  1.616120e+002 -8.000000e+001  3.000000e+000
      vertex  9.850652e+001 -3.009098e+001  3.000000e+000
      vertex  9.425461e+001 -4.153394e+001  3.000000e+000
    endloop
  endfacet
  facet normal  0.000000e+000  0.000000e+000  1.000000e+000
    outer loop
      vertex  1.616120e+002 -8.000000e+001  3.000000e+000
      vertex  9.425461e+001 -4.153394e+001  3.000000e+000
      vertex  8.867875e+001 -5.239350e+001  3.000000e+000
    endloop
  endfacet
  facet normal  0.000000e+000  0.000000e+000  9.999999e-001
    outer loop
      vertex  1.616120e+002 -8.000000e+001  3.000000e+000
      vertex  8.867875e+001 -5.239350e+001  3.000000e+000
      vertex  8.185726e+001 -6.251711e+001  3.000000e+000
    endloop
  endfacet
  facet normal  0.000000e+000  0.000000e+000  1.000000e+000
    outer loop
      vertex  1.616120e+002 -8.000000e+001  3.000000e+000
      vertex  8.185726e+001 -6.251711e+001  3.000000e+000
      vertex  7.388596e+001 -7.176257e+001  3.000000e+000
    endloop
  endfacet
  facet normal  0.000000e+000  0.000000e+000  1.000000e+000
    outer loop
      vertex  1.616120e+002 -8.000000e+001  3.000000e+000
      vertex  7.388596e+001 -7.176257e+001  3.000000e+000
      vertex  6.487681e+001 -8.000000e+001  3.000000e+000
    endloop
  endfacet
  facet normal  0.000000e+000  0.000000e+000 -1.000000e+000
    outer loop
      vertex  1.616120e+002  8.000000e+001  0.000000e+000
      vertex  1.616120e+002 -8.000000e+001  0.000000e+000
      vertex  1.028190e+002 -6.103691e+000  0.000000e+000
    endloop
  endfacet
  facet normal  0.000000e+000  0.000000e+000 -1.000000e+000
    outer loop
      vertex  1.616120e+002  8.000000e+001  0.000000e+000
      vertex  1.028190e+002 -6.103691e+000  0.000000e+000
      vertex  1.028190e+002  6.103691e+000  0.000000e+000
    endloop
  endfacet
  facet normal  0.000000e+000  0.000000e+000 -1.000000e+000
    outer loop
      vertex  1.616120e+002  8.000000e+001  0.000000e+000
      vertex  1.028190e+002  6.103691e+000  0.000000e+000
      vertex  1.013747e+002  1.822534e+001  0.000000e+000
    endloop
  endfacet
  facet normal  0.000000e+000  0.000000e+000 -1.000000e+000
    outer loop
      vertex  1.616120e+002  8.000000e+001  0.000000e+000
      vertex  1.013747e+002  1.822534e+001  0.000000e+000
      vertex  9.850652e+001  3.009098e+001  0.000000e+000
    endloop
  endfacet
  facet normal  0.000000e+000  0.000000e+000 -1.000000e+000
    outer loop
      vertex  1.616120e+002  8.000000e+001  0.000000e+000
      vertex  9.850652e+001  3.009098e+001  0.000000e+000
      vertex  9.425461e+001  4.153394e+001  0.000000e+000
    endloop
  endfacet
  facet normal  0.000000e+000  0.000000e+000 -1.000000e+000
    outer loop
      vertex  1.616120e+002  8.000000e+001  0.000000e+000
      vertex  9.425461e+001  4.153394e+001  0.000000e+000
      vertex  8.867875e+001  5.239350e+001  0.000000e+000
    endloop
  endfacet
  facet normal  0.000000e+000  0.000000e+000 -9.999999e-001
    outer loop
      vertex  1.616120e+002  8.000000e+001  0.000000e+000
      vertex  8.867875e+001  5.239350e+001  0.000000e+000
      vertex  8.185726e+001  6.251711e+001  0.000000e+000
    endloop
  endfacet
  facet normal  0.000000e+000  0.000000e+000 -1.000000e+000
    outer loop
      vertex  1.616120e+002  8.000000e+001  0.000000e+000
      vertex  8.185726e+001  6.251711e+001  0.000000e+000
      vertex  7.388596e+001  7.176257e+001  0.000000e+000
    endloop
  endfacet
  facet normal  0.000000e+000  0.000000e+000 -1.000000e+000
    outer loop
      vertex  1.616120e+002  8.000000e+001  0.000000e+000
      vertex  7.388596e+001  7.176257e+001  0.000000e+000
      vertex  6.487681e+001  8.000000e+001  0.000000e+000
    endloop
  endfacet
  facet normal  0.000000e+000  0.000000e+000 -1.000000e+000
    outer loop
      vertex  1.616120e+002 -8.000000e+001  0.000000e+000
      vertex  6.487681e+001 -8.000000e+001  0.000000e+000
      vertex  7.388596e+001 -7.176257e+001  0.000000e+000
    endloop
  endfacet
  facet normal  0.000000e+000  0.000000e+000 -1.000000e+000
    outer loop
      vertex  1.616120e+002 -8.000000e+001  0.000000e+000
      vertex  7.388596e+001 -7.176257e+001  0.000000e+000
      vertex  8.185726e+001 -6.251711e+001  0.000000e+000
    endloop
  endfacet
  facet normal  0.000000e+000  0.000000e+000 -1.000000e+000
    outer loop
      vertex  1.616120e+002 -8.000000e+001  0.000000e+000
      vertex  8.185726e+001 -6.251711e+001  0.000000e+000
      vertex  8.867875e+001 -5.239350e+001  0.000000e+000
    endloop
  endfacet
  facet normal  0.000000e+000  0.000000e+000 -1.000000e+000
    outer loop
      vertex  1.616120e+002 -8.000000e+001  0.000000e+000
      vertex  8.867875e+001 -5.239350e+001  0.000000e+000
      vertex  9.425461e+001 -4.153394e+001  0.000000e+000
    endloop
  endfacet
  facet normal  0.000000e+000  0.000000e+000 -1.000000e+000
    outer loop
      vertex  1.616120e+002 -8.000000e+001  0.000000e+000
      vertex  9.425461e+001 -4.153394e+001  0.000000e+000
      vertex  9.850652e+001 -3.009098e+001  0.000000e+000
    endloop
  endfacet
  facet normal  0.000000e+000  0.000000e+000 -1.000000e+000
    outer loop
      vertex  1.616120e+002 -8.000000e+001  0.000000e+000
      vertex  9.850652e+001 -3.009098e+001  0.000000e+000
      vertex  1.013747e+002 -1.822534e+001  0.000000e+000
    endloop
  endfacet
  facet normal  0.000000e+000  0.000000e+000 -1.000000e+000
    outer loop
      vertex  1.616120e+002 -8.000000e+001  0.000000e+000
      vertex  1.013747e+002 -1.822534e+001  0.000000e+000
      vertex  1.028190e+002 -6.103691e+000  0.000000e+000
    endloop
  endfacet
  facet normal -9.929767e-001 -1.183104e-001  -0.000000e+000
    outer loop
      vertex  1.028190e+002  6.103691e+000  0.000000e+000
      vertex  1.013747e+002  1.822534e+001  3.000000e+000
      vertex  1.013747e+002  1.822534e+001  0.000000e+000
    endloop
  endfacet
  facet normal -9.720056e-001 -2.349577e-001  0.000000e+000
    outer loop
      vertex  1.013747e+002  1.822534e+001  0.000000e+000
      vertex  1.013747e+002  1.822534e+001  3.000000e+000
      vertex  9.850652e+001  3.009098e+001  3.000000e+000
    endloop
  endfacet
  facet normal -9.720056e-001 -2.349577e-001  -0.000000e+000
    outer loop
      vertex  1.013747e+002  1.822534e+001  0.000000e+000
      vertex  9.850652e+001  3.009098e+001  3.000000e+000
      vertex  9.850652e+001  3.009098e+001  0.000000e+000
    endloop
  endfacet
  facet normal -9.373808e-001 -3.483062e-001  0.000000e+000
    outer loop
      vertex  9.850652e+001  3.009098e+001  0.000000e+000
      vertex  9.850652e+001  3.009098e+001  3.000000e+000
      vertex  9.425461e+001  4.153394e+001  3.000000e+000
    endloop
  endfacet
  facet normal -9.373808e-001 -3.483062e-001  -0.000000e+000
    outer loop
      vertex  9.850652e+001  3.009098e+001  0.000000e+000
      vertex  9.425461e+001  4.153394e+001  3.000000e+000
      vertex  9.425461e+001  4.153394e+001  0.000000e+000
    endloop
  endfacet
  facet normal -8.895893e-001 -4.567612e-001  0.000000e+000
    outer loop
      vertex  9.425461e+001  4.153394e+001  0.000000e+000
      vertex  9.425461e+001  4.153394e+001  3.000000e+000
      vertex  8.867875e+001  5.239350e+001  3.000000e+000
    endloop
  endfacet
  facet normal -8.895893e-001 -4.567612e-001  -0.000000e+000
    outer loop
      vertex  9.425461e+001  4.153394e+001  0.000000e+000
      vertex  8.867875e+001  5.239350e+001  3.000000e+000
      vertex  8.867875e+001  5.239350e+001  0.000000e+000
    endloop
  endfacet
  facet normal -8.293023e-001 -5.588003e-001  0.000000e+000
    outer loop
      vertex  8.867875e+001  5.239350e+001  0.000000e+000
      vertex  8.867875e+001  5.239350e+001  3.000000e+000
      vertex  8.185726e+001  6.251711e+001  3.000000e+000
    endloop
  endfacet
  facet normal -8.293023e-001 -5.588003e-001  -0.000000e+000
    outer loop
      vertex  8.867875e+001  5.239350e+001  0.000000e+000
      vertex  8.185726e+001  6.251711e+001  3.000000e+000
      vertex  8.185726e+001  6.251711e+001  0.000000e+000
    endloop
  endfacet
  facet normal -7.573661e-001 -6.529906e-001  0.000000e+000
    outer loop
      vertex  8.185726e+001  6.251711e+001  0.000000e+000
      vertex  8.185726e+001  6.251711e+001  3.000000e+000
      vertex  7.388596e+001  7.176257e+001  3.000000e+000
    endloop
  endfacet
  facet normal -7.573661e-001 -6.529906e-001  -0.000000e+000
    outer loop
      vertex  8.185726e+001  6.251711e+001  0.000000e+000
      vertex  7.388596e+001  7.176257e+001  3.000000e+000
      vertex  7.388596e+001  7.176257e+001  0.000000e+000
    endloop
  endfacet
  facet normal -6.747915e-001 -7.380084e-001  0.000000e+000
    outer loop
      vertex  7.388596e+001  7.176257e+001  0.000000e+000
      vertex  7.388596e+001  7.176257e+001  3.000000e+000
      vertex  6.487681e+001  8.000000e+001  3.000000e+000
    endloop
  endfacet
  facet normal -6.747915e-001 -7.380084e-001  -0.000000e+000
    outer loop
      vertex  7.388596e+001  7.176257e+001  0.000000e+000
      vertex  6.487681e+001  8.000000e+001  3.000000e+000
      vertex  6.487681e+001  8.000000e+001  0.000000e+000
    endloop
  endfacet
  facet normal -9.929767e-001 -1.183104e-001  0.000000e+000
    outer loop
      vertex  1.013747e+002  1.822534e+001  3.000000e+000
      vertex  1.028190e+002  6.103691e+000  0.000000e+000
      vertex  1.028190e+002  6.103691e+000  3.000000e+000
    endloop
  endfacet
  facet normal -1.000000e+000  0.000000e+000  -0.000000e+000
    outer loop
      vertex  1.028190e+002  6.103691e+000  3.000000e+000
      vertex  1.028190e+002  6.103691e+000  0.000000e+000
      vertex  1.028190e+002 -6.103691e+000  0.000000e+000
    endloop
  endfacet
  facet normal -1.000000e+000  0.000000e+000  0.000000e+000
    outer loop
      vertex  1.028190e+002  6.103691e+000  3.000000e+000
      vertex  1.028190e+002 -6.103691e+000  0.000000e+000
      vertex  1.028190e+002 -6.103691e+000  3.000000e+000
    endloop
  endfacet
  facet normal -9.929767e-001  1.183104e-001  0.000000e+000
    outer loop
      vertex  1.028190e+002 -6.103691e+000  3.000000e+000
      vertex  1.028190e+002 -6.103691e+000  0.000000e+000
      vertex  1.013747e+002 -1.822534e+001  0.000000e+000
    endloop
  endfacet
  facet normal -9.929767e-001  1.183104e-001  0.000000e+000
    outer loop
      vertex  1.028190e+002 -6.103691e+000  3.000000e+000
      vertex  1.013747e+002 -1.822534e+001  0.000000e+000
      vertex  1.013747e+002 -1.822534e+001  3.000000e+000
    endloop
  endfacet
  facet normal -9.720056e-001  2.349577e-001  0.000000e+000
    outer loop
      vertex  1.013747e+002 -1.822534e+001  3.000000e+000
      vertex  1.013747e+002 -1.822534e+001  0.000000e+000
      vertex  9.850652e+001 -3.009098e+001  0.000000e+000
    endloop
  endfacet
  facet normal -9.720056e-001  2.349577e-001  0.000000e+000
    outer loop
      vertex  1.013747e+002 -1.822534e+001  3.000000e+000
      vertex  9.850652e+001 -3.009098e+001  0.000000e+000
      vertex  9.850652e+001 -3.009098e+001  3.000000e+000
    endloop
  endfacet
  facet normal -9.373808e-001  3.483062e-001  0.000000e+000
    outer loop
      vertex  9.850652e+001 -3.009098e+001  3.000000e+000
      vertex  9.850652e+001 -3.009098e+001  0.000000e+000
      vertex  9.425461e+001 -4.153394e+001  0.000000e+000
    endloop
  endfacet
  facet normal -9.373808e-001  3.483062e-001  0.000000e+000
    outer loop
      vertex  9.850652e+001 -3.009098e+001  3.000000e+000
      vertex  9.425461e+001 -4.153394e+001  0.000000e+000
      vertex  9.425461e+001 -4.153394e+001  3.000000e+000
    endloop
  endfacet
  facet normal -8.895893e-001  4.567612e-001  0.000000e+000
    outer loop
      vertex  9.425461e+001 -4.153394e+001  3.000000e+000
      vertex  9.425461e+001 -4.153394e+001  0.000000e+000
      vertex  8.867875e+001 -5.239350e+001  0.000000e+000
    endloop
  endfacet
  facet normal -8.895893e-001  4.567612e-001  0.000000e+000
    outer loop
      vertex  9.425461e+001 -4.153394e+001  3.000000e+000
      vertex  8.867875e+001 -5.239350e+001  0.000000e+000
      vertex  8.867875e+001 -5.239350e+001  3.000000e+000
    endloop
  endfacet
  facet normal -8.293023e-001  5.588003e-001  0.000000e+000
    outer loop
      vertex  8.867875e+001 -5.239350e+001  3.000000e+000
      vertex  8.867875e+001 -5.239350e+001  0.000000e+000
      vertex  8.185726e+001 -6.251711e+001  0.000000e+000
    endloop
  endfacet
  facet normal -8.293023e-001  5.588003e-001  0.000000e+000
    outer loop
      vertex  8.867875e+001 -5.239350e+001  3.000000e+000
      vertex  8.185726e+001 -6.251711e+001  0.000000e+000
      vertex  8.185726e+001 -6.251711e+001  3.000000e+000
    endloop
  endfacet
  facet normal -7.573661e-001  6.529906e-001  0.000000e+000
    outer loop
      vertex  8.185726e+001 -6.251711e+001  3.000000e+000
      vertex  8.185726e+001 -6.251711e+001  0.000000e+000
      vertex  7.388596e+001 -7.176257e+001  0.000000e+000
    endloop
  endfacet
  facet normal -7.573661e-001  6.529906e-001  0.000000e+000
    outer loop
      vertex  8.185726e+001 -6.251711e+001  3.000000e+000
      vertex  7.388596e+001 -7.176257e+001  0.000000e+000
      vertex  7.388596e+001 -7.176257e+001  3.000000e+000
    endloop
  endfacet
  facet normal -6.747915e-001  7.380084e-001  0.000000e+000
    outer loop
      vertex  7.388596e+001 -7.176257e+001  3.000000e+000
      vertex  7.388596e+001 -7.176257e+001  0.000000e+000
      vertex  6.487681e+001 -8.000000e+001  0.000000e+000
    endloop
  endfacet
  facet normal -6.747915e-001  7.380084e-001  0.000000e+000
    outer loop
      vertex  7.388596e+001 -7.176257e+001  3.000000e+000
      vertex  6.487681e+001 -8.000000e+001  0.000000e+000
      vertex  6.487681e+001 -8.000000e+001  3.000000e+000
    endloop
  endfacet
  facet normal  0.000000e+000  1.000000e+000  0.000000e+000
    outer loop
      vertex  6.487681e+001  8.000000e+001  3.000000e+000
      vertex  1.616120e+002  8.000000e+001  3.000000e+000
      vertex  6.487681e+001  8.000000e+001  0.000000e+000
    endloop
  endfacet
  facet normal  0.000000e+000  1.000000e+000  0.000000e+000
    outer loop
      vertex  6.487681e+001  8.000000e+001  0.000000e+000
      vertex  1.616120e+002  8.000000e+001  3.000000e+000
      vertex  1.616120e+002  8.000000e+001  0.000000e+000
    endloop
  endfacet
  facet normal  1.000000e+000  -0.000000e+000  0.000000e+000
    outer loop
      vertex  1.616120e+002  8.000000e+001  3.000000e+000
      vertex  1.616120e+002 -8.000000e+001  3.000000e+000
      vertex  1.616120e+002  8.000000e+001  0.000000e+000
    endloop
  endfacet
  facet normal  1.000000e+000  0.000000e+000  0.000000e+000
    outer loop
      vertex  1.616120e+002  8.000000e+001  0.000000e+000
      vertex  1.616120e+002 -8.000000e+001  3.000000e+000
      vertex  1.616120e+002 -8.000000e+001  0.000000e+000
    endloop
  endfacet
  facet normal  0.000000e+000 -1.000000e+000  0.000000e+000
    outer loop
      vertex  1.616120e+002 -8.000000e+001  3.000000e+000
      vertex  6.487681e+001 -8.000000e+001  3.000000e+000
      vertex  1.616120e+002 -8.000000e+001  0.000000e+000
    endloop
  endfacet
  facet normal  0.000000e+000 -1.000000e+000  0.000000e+000
    outer loop
      vertex  1.616120e+002 -8.000000e+001  0.000000e+000
      vertex  6.487681e+001 -8.000000e+001  3.000000e+000
      vertex  6.487681e+001 -8.000000e+001  0.000000e+000
    endloop
  endfacet
endsolid CATIA STL
